SplineFontDB: 3.0
FontName: SigmarOne
FullName: Sigmar One
FamilyName: Sigmar One
Weight: Book
Copyright: Copyright (c) 2011 by vernon adams. All rights reserved.
Version: 1.000
ItalicAngle: 0
UnderlinePosition: -103
UnderlineWidth: 102
Ascent: 1638
Descent: 410
sfntRevision: 0x00010000
LayerCount: 2
Layer: 0 1 "Back"  1
Layer: 1 1 "Fore"  0
XUID: [1021 759 1887733602 11678379]
FSType: 0
OS2Version: 2
OS2_WeightWidthSlopeOnly: 0
OS2_UseTypoMetrics: 1
CreationTime: 1301051212
ModificationTime: 1304371240
PfmFamily: 17
TTFWeight: 400
TTFWidth: 5
LineGap: 0
VLineGap: 0
Panose: 2 0 0 0 0 0 0 0 0 0
OS2TypoAscent: 763
OS2TypoAOffset: 1
OS2TypoDescent: -544
OS2TypoDOffset: 1
OS2TypoLinegap: 0
OS2WinAscent: 0
OS2WinAOffset: 1
OS2WinDescent: 0
OS2WinDOffset: 1
HheadAscent: 0
HheadAOffset: 1
HheadDescent: 0
HheadDOffset: 1
OS2SubXSize: 1434
OS2SubYSize: 1331
OS2SubXOff: 0
OS2SubYOff: 287
OS2SupXSize: 1434
OS2SupYSize: 1331
OS2SupXOff: 0
OS2SupYOff: 977
OS2StrikeYSize: 102
OS2StrikeYPos: 512
OS2Vendor: 'newt'
OS2CodePages: 20000193.45000000
OS2UnicodeRanges: 800000ef.5800204b.14200000.00000000
Lookup: 258 0 0 "'kern' Horizontal Kerning in Latin lookup 0"  {"'kern' Horizontal Kerning in Latin lookup 0 subtable"  } ['kern' ('latn' <'dflt' > ) ]
MarkAttachClasses: 1
DEI: 91125
TtTable: prep
PUSHW_1
 511
SCANCTRL
PUSHB_1
 4
SCANTYPE
EndTTInstrs
ShortTable: maxp 16
  1
  0
  395
  288
  7
  290
  4
  1
  0
  0
  0
  0
  0
  0
  2
  1
EndShort
LangName: 1033 "" "" "Regular" "1.000;newt;Sigmar One" "" "Version 1.000" "" "Sigmar One is a trademark of vernon adams." "vernon adams" "vernon adams" "Copyright (c) 2011 by vernon adams. All rights reserved." "" "newtypography.co.uk" "" "http://scripts.sil.org/OFL" "" "" "" "Sigmar ONe" 
GaspTable: 1 65535 14
Encoding: UnicodeBmp
UnicodeInterp: none
NameList: Adobe Glyph List
DisplaySize: -48
AntiAlias: 1
FitToEm: 1
WinInfo: 60 20 13
BeginPrivate: 0
EndPrivate
BeginChars: 65542 395

StartChar: exclam
Encoding: 33 33 4
Width: 842
Flags: W
LayerCount: 2
Fore
SplineSet
651 295 m 0,0,1
 651 262 651 262 651.5 237 c 128,-1,2
 652 212 652 212 653 190 c 128,-1,3
 654 168 654 168 655 145.5 c 128,-1,4
 656 123 656 123 657 93 c 0,5,6
 658 42 658 42 656.5 14.5 c 128,-1,7
 655 -13 655 -13 647 -26.5 c 128,-1,8
 639 -40 639 -40 622.5 -42.5 c 128,-1,9
 606 -45 606 -45 577 -45 c 0,10,11
 546 -45 546 -45 521.5 -44.5 c 128,-1,12
 497 -44 497 -44 465 -39 c 0,13,14
 464 -38 464 -38 443 -37.5 c 128,-1,15
 422 -37 422 -37 390.5 -36.5 c 128,-1,16
 359 -36 359 -36 322.5 -35.5 c 128,-1,17
 286 -35 286 -35 255 -33 c 128,-1,18
 224 -31 224 -31 203 -27.5 c 128,-1,19
 182 -24 182 -24 182 -18 c 2,20,-1
 176 160 l 2,21,22
 175 193 175 193 175 211.5 c 128,-1,23
 175 230 175 230 175.5 240.5 c 128,-1,24
 176 251 176 251 176.5 255.5 c 128,-1,25
 177 260 177 260 178 265 c 128,-1,26
 179 270 179 270 179.5 277.5 c 128,-1,27
 180 285 180 285 180 301 c 1,28,29
 179 305 179 305 182 311.5 c 128,-1,30
 185 318 185 318 190 323 c 128,-1,31
 195 328 195 328 202 332 c 128,-1,32
 209 336 209 336 217 336 c 0,33,34
 233 336 233 336 257 336.5 c 128,-1,35
 281 337 281 337 306.5 337 c 128,-1,36
 332 337 332 337 356.5 337.5 c 128,-1,37
 381 338 381 338 399 338 c 2,38,-1
 479 338 l 2,39,40
 507 338 507 338 537 336 c 128,-1,41
 567 334 567 334 592.5 329 c 128,-1,42
 618 324 618 324 634.5 315.5 c 128,-1,43
 651 307 651 307 651 295 c 0,0,1
143 842 m 256,44,45
 141 854 141 854 139 883 c 128,-1,46
 137 912 137 912 134.5 943.5 c 128,-1,47
 132 975 132 975 130.5 1000 c 128,-1,48
 129 1025 129 1025 129 1028 c 0,49,50
 129 1045 129 1045 125 1075.5 c 128,-1,51
 121 1106 121 1106 115.5 1139 c 128,-1,52
 110 1172 110 1172 106 1203 c 128,-1,53
 102 1234 102 1234 102 1253 c 0,54,55
 102 1275 102 1275 99 1295 c 128,-1,56
 96 1315 96 1315 88 1339 c 0,57,58
 86 1348 86 1348 100.5 1353.5 c 128,-1,59
 115 1359 115 1359 138.5 1362.5 c 128,-1,60
 162 1366 162 1366 191.5 1367.5 c 128,-1,61
 221 1369 221 1369 248 1370.5 c 128,-1,62
 275 1372 275 1372 296 1374 c 128,-1,63
 317 1376 317 1376 325 1380 c 1,64,-1
 669 1380 l 1,65,66
 681 1373 681 1373 695.5 1368 c 128,-1,67
 710 1363 710 1363 723.5 1355.5 c 128,-1,68
 737 1348 737 1348 746 1336.5 c 128,-1,69
 755 1325 755 1325 755 1307 c 0,70,71
 755 1269 755 1269 750 1230.5 c 128,-1,72
 745 1192 745 1192 733 1155 c 1,73,-1
 682 856 l 1,74,75
 680 853 680 853 678.5 841 c 128,-1,76
 677 829 677 829 675 815 c 128,-1,77
 673 801 673 801 671.5 789 c 128,-1,78
 670 777 670 777 669 774 c 1,79,80
 669 721 669 721 652.5 649.5 c 128,-1,81
 636 578 636 578 620 502 c 0,82,83
 617 491 617 491 591 485.5 c 128,-1,84
 565 480 565 480 525 478 c 128,-1,85
 485 476 485 476 434.5 475.5 c 128,-1,86
 384 475 384 475 332 475 c 0,87,88
 325 475 325 475 304 476.5 c 128,-1,89
 283 478 283 478 259.5 480.5 c 128,-1,90
 236 483 236 483 216.5 486 c 128,-1,91
 197 489 197 489 192 492 c 1,92,93
 188 498 188 498 185 516 c 128,-1,94
 182 534 182 534 179 554.5 c 128,-1,95
 176 575 176 575 174.5 593.5 c 128,-1,96
 173 612 173 612 172 618 c 0,97,98
 170 630 170 630 166.5 662 c 128,-1,99
 163 694 163 694 158.5 730 c 128,-1,100
 154 766 154 766 149.5 798 c 128,-1,101
 145 830 145 830 143 842 c 256,44,45
EndSplineSet
EndChar

StartChar: quotedbl
Encoding: 34 34 5
Width: 1501
Flags: W
LayerCount: 2
Fore
SplineSet
625 705 m 0,0,1
 617 672 617 672 611.5 637.5 c 128,-1,2
 606 603 606 603 601 569 c 128,-1,3
 596 535 596 535 589 501 c 128,-1,4
 582 467 582 467 572 434 c 1,5,6
 566 434 566 434 558.5 434.5 c 128,-1,7
 551 435 551 435 544 435 c 0,8,9
 520 435 520 435 491.5 434 c 128,-1,10
 463 433 463 433 425 434 c 1,11,-1
 304 434 l 1,12,-1
 294 434 l 2,13,14
 283 434 283 434 271.5 432.5 c 128,-1,15
 260 431 260 431 248 431 c 0,16,17
 231 431 231 431 221 447 c 128,-1,18
 211 463 211 463 205 484.5 c 128,-1,19
 199 506 199 506 196 528.5 c 128,-1,20
 193 551 193 551 190 563 c 0,21,22
 171 653 171 653 163 744 c 128,-1,23
 155 835 155 835 143 926 c 1,24,25
 132 1035 132 1035 122 1144 c 128,-1,26
 112 1253 112 1253 105 1364 c 1,27,-1
 117 1378 l 1,28,-1
 134 1378 l 1,29,30
 169 1384 169 1384 188 1387 c 128,-1,31
 207 1390 207 1390 216.5 1391.5 c 128,-1,32
 226 1393 226 1393 228.5 1393 c 128,-1,33
 231 1393 231 1393 232 1393 c 2,34,-1
 356 1393 l 2,35,36
 365 1393 365 1393 377.5 1392 c 128,-1,37
 390 1391 390 1391 419 1386 c 1,38,39
 432 1393 432 1393 456 1392.5 c 128,-1,40
 480 1392 480 1392 507 1389 c 128,-1,41
 534 1386 534 1386 560 1383 c 128,-1,42
 586 1380 586 1380 605 1382 c 1,43,44
 632 1376 632 1376 647.5 1371.5 c 128,-1,45
 663 1367 663 1367 671.5 1361 c 128,-1,46
 680 1355 680 1355 682.5 1345 c 128,-1,47
 685 1335 685 1335 685 1319 c 0,48,49
 685 1311 685 1311 684 1289 c 128,-1,50
 683 1267 683 1267 681 1238 c 128,-1,51
 679 1209 679 1209 677 1175 c 128,-1,52
 675 1141 675 1141 672.5 1108 c 128,-1,53
 670 1075 670 1075 668 1046.5 c 128,-1,54
 666 1018 666 1018 664 999 c 1,55,56
 657 962 657 962 653 925.5 c 128,-1,57
 649 889 649 889 645.5 852 c 128,-1,58
 642 815 642 815 637.5 778.5 c 128,-1,59
 633 742 633 742 625 705 c 0,0,1
1336 705 m 0,60,61
 1328 672 1328 672 1322.5 637.5 c 128,-1,62
 1317 603 1317 603 1312 569 c 128,-1,63
 1307 535 1307 535 1300 501 c 128,-1,64
 1293 467 1293 467 1282 434 c 1,65,66
 1276 434 1276 434 1269 434.5 c 128,-1,67
 1262 435 1262 435 1254 435 c 0,68,69
 1231 435 1231 435 1205 434 c 128,-1,70
 1179 433 1179 433 1160 432 c 1,71,-1
 1158 432 l 1,72,-1
 1143 440 l 1,73,-1
 1135 434 l 1,74,-1
 1015 434 l 1,75,-1
 1005 434 l 2,76,77
 993 434 993 434 982 432.5 c 128,-1,78
 971 431 971 431 959 431 c 0,79,80
 942 431 942 431 932 447 c 128,-1,81
 922 463 922 463 915.5 484.5 c 128,-1,82
 909 506 909 506 906 528 c 128,-1,83
 903 550 903 550 900 563 c 0,84,85
 890 608 890 608 884 653 c 128,-1,86
 878 698 878 698 873.5 743.5 c 128,-1,87
 869 789 869 789 864.5 835 c 128,-1,88
 860 881 860 881 853 926 c 1,89,90
 843 1035 843 1035 833 1144 c 128,-1,91
 823 1253 823 1253 816 1364 c 1,92,-1
 828 1378 l 1,93,94
 892 1378 892 1378 935.5 1380 c 128,-1,95
 979 1382 979 1382 1010.5 1384.5 c 128,-1,96
 1042 1387 1042 1387 1065.5 1388.5 c 128,-1,97
 1089 1390 1089 1390 1115 1389 c 1,98,99
 1132 1387 1132 1387 1146.5 1386 c 128,-1,100
 1161 1385 1161 1385 1170 1387 c 1,101,102
 1182 1381 1182 1381 1201 1379 c 128,-1,103
 1220 1377 1220 1377 1241 1377.5 c 128,-1,104
 1262 1378 1262 1378 1282 1379.5 c 128,-1,105
 1302 1381 1302 1381 1316 1382 c 1,106,107
 1342 1376 1342 1376 1357.5 1371.5 c 128,-1,108
 1373 1367 1373 1367 1381.5 1361 c 128,-1,109
 1390 1355 1390 1355 1392.5 1345 c 128,-1,110
 1395 1335 1395 1335 1395 1319 c 0,111,112
 1395 1311 1395 1311 1394 1289 c 128,-1,113
 1393 1267 1393 1267 1391 1238 c 128,-1,114
 1389 1209 1389 1209 1387 1175 c 128,-1,115
 1385 1141 1385 1141 1382.5 1108.5 c 128,-1,116
 1380 1076 1380 1076 1378 1047 c 128,-1,117
 1376 1018 1376 1018 1374 999 c 1,118,119
 1367 962 1367 962 1363 925.5 c 128,-1,120
 1359 889 1359 889 1356 852 c 128,-1,121
 1353 815 1353 815 1348.5 778.5 c 128,-1,122
 1344 742 1344 742 1336 705 c 0,60,61
EndSplineSet
EndChar

StartChar: numbersign
Encoding: 35 35 6
Width: 1812
Flags: W
LayerCount: 2
Fore
SplineSet
1602 1384 m 0,0,1
 1623 1363 1623 1363 1628 1341.5 c 128,-1,2
 1633 1320 1633 1320 1633 1309 c 2,3,-1
 1633 1301 l 2,4,5
 1633 1300 1633 1300 1624.5 1257 c 128,-1,6
 1616 1214 1616 1214 1602 1146 c 1,7,-1
 1606 1146 l 2,8,9
 1626 1146 1626 1146 1647.5 1145 c 128,-1,10
 1669 1144 1669 1144 1687 1139.5 c 128,-1,11
 1705 1135 1705 1135 1715.5 1126.5 c 128,-1,12
 1726 1118 1726 1118 1723 1103 c 0,13,14
 1717 1068 1717 1068 1711.5 1044.5 c 128,-1,15
 1706 1021 1706 1021 1701 1001 c 128,-1,16
 1696 981 1696 981 1691.5 962 c 128,-1,17
 1687 943 1687 943 1683 918 c 0,18,19
 1679 897 1679 897 1674 881 c 128,-1,20
 1669 865 1669 865 1656.5 853.5 c 128,-1,21
 1644 842 1644 842 1621.5 836.5 c 128,-1,22
 1599 831 1599 831 1562 831 c 1,23,-1
 1537 826 l 1,24,-1
 1492 609 l 1,25,-1
 1508 609 l 2,26,27
 1528 609 1528 609 1549.5 607.5 c 128,-1,28
 1571 606 1571 606 1589 600.5 c 128,-1,29
 1607 595 1607 595 1617.5 584 c 128,-1,30
 1628 573 1628 573 1625 554 c 0,31,32
 1619 509 1619 509 1613.5 478 c 128,-1,33
 1608 447 1608 447 1603 421.5 c 128,-1,34
 1598 396 1598 396 1593.5 371 c 128,-1,35
 1589 346 1589 346 1585 314 c 0,36,37
 1581 287 1581 287 1576 266 c 128,-1,38
 1571 245 1571 245 1558.5 231 c 128,-1,39
 1546 217 1546 217 1523.5 209.5 c 128,-1,40
 1501 202 1501 202 1464 202 c 1,41,42
 1456 200 1456 200 1449 198 c 0,43,44
 1437 195 1437 195 1430 195 c 2,45,-1
 1413 195 l 1,46,47
 1399 121 1399 121 1385.5 67 c 128,-1,48
 1372 13 1372 13 1355 -10 c 1,49,50
 1322 -13 1322 -13 1301.5 -15 c 128,-1,51
 1281 -17 1281 -17 1265 -18.5 c 128,-1,52
 1249 -20 1249 -20 1235 -21 c 128,-1,53
 1221 -22 1221 -22 1200 -23 c 0,54,55
 1141 -25 1141 -25 1091.5 -25 c 128,-1,56
 1042 -25 1042 -25 1005 -24.5 c 128,-1,57
 968 -24 968 -24 945.5 -23.5 c 128,-1,58
 923 -23 923 -23 917 -23 c 0,59,60
 906 -23 906 -23 902.5 -12.5 c 128,-1,61
 899 -2 899 -2 899 15 c 0,62,63
 899 33 899 33 902 55.5 c 128,-1,64
 905 78 905 78 909 99.5 c 128,-1,65
 913 121 913 121 916 139 c 128,-1,66
 919 157 919 157 919 166 c 1,67,68
 920 173 920 173 920.5 180 c 128,-1,69
 921 187 921 187 923 195 c 1,70,-1
 701 195 l 1,71,72
 687 121 687 121 673.5 67 c 128,-1,73
 660 13 660 13 643 -10 c 1,74,75
 625 -10 625 -10 607.5 -11.5 c 128,-1,76
 590 -13 590 -13 576 -14.5 c 128,-1,77
 562 -16 562 -16 553 -17 c 128,-1,78
 544 -18 544 -18 543 -18 c 2,79,-1
 537 -18 l 2,80,81
 524 -18 524 -18 518.5 -14 c 128,-1,82
 513 -10 513 -10 505 -10 c 1,83,84
 500 -11 500 -11 496 -13 c 0,85,86
 488 -17 488 -17 488 -18 c 1,87,-1
 336 -18 l 1,88,89
 334 -19 334 -19 315.5 -20 c 128,-1,90
 297 -21 297 -21 274.5 -21.5 c 128,-1,91
 252 -22 252 -22 231.5 -22.5 c 128,-1,92
 211 -23 211 -23 205 -23 c 0,93,94
 194 -23 194 -23 190.5 -12.5 c 128,-1,95
 187 -2 187 -2 187 15 c 0,96,97
 187 33 187 33 190 55.5 c 128,-1,98
 193 78 193 78 197 99.5 c 128,-1,99
 201 121 201 121 204 139 c 128,-1,100
 207 157 207 157 207 166 c 1,101,102
 208 173 208 173 208.5 180 c 128,-1,103
 209 187 209 187 211 194 c 1,104,105
 185 194 185 194 162.5 195.5 c 128,-1,106
 140 197 140 197 123 203 c 128,-1,107
 106 209 106 209 97 221.5 c 128,-1,108
 88 234 88 234 91 255 c 0,109,110
 97 301 97 301 101.5 337 c 128,-1,111
 106 373 106 373 110.5 406.5 c 128,-1,112
 115 440 115 440 119.5 475.5 c 128,-1,113
 124 511 124 511 131 556 c 0,114,115
 132 565 132 565 138.5 574.5 c 128,-1,116
 145 584 145 584 154 591.5 c 128,-1,117
 163 599 163 599 173 604 c 128,-1,118
 183 609 183 609 192 609 c 0,119,120
 216 609 216 609 239.5 610 c 128,-1,121
 263 611 263 611 286 613 c 1,122,-1
 299 694 l 1,123,-1
 324 826 l 1,124,125
 296 826 296 826 270 826 c 128,-1,126
 244 826 244 826 224.5 830.5 c 128,-1,127
 205 835 205 835 194.5 844.5 c 128,-1,128
 184 854 184 854 187 872 c 0,129,130
 193 908 193 908 197.5 935.5 c 128,-1,131
 202 963 202 963 206.5 989 c 128,-1,132
 211 1015 211 1015 215.5 1042.5 c 128,-1,133
 220 1070 220 1070 227 1105 c 0,134,135
 228 1112 228 1112 234.5 1119 c 128,-1,136
 241 1126 241 1126 250 1132 c 128,-1,137
 259 1138 259 1138 269 1142 c 128,-1,138
 279 1146 279 1146 288 1146 c 0,139,140
 314 1146 314 1146 338 1147 c 128,-1,141
 362 1148 362 1148 386 1149 c 1,142,-1
 427 1362 l 2,143,144
 427 1364 427 1364 430 1367 c 128,-1,145
 433 1370 433 1370 437 1373.5 c 128,-1,146
 441 1377 441 1377 443.5 1379.5 c 128,-1,147
 446 1382 446 1382 446 1384 c 1,148,149
 453 1384 453 1384 455 1383 c 128,-1,150
 457 1382 457 1382 463 1382 c 0,151,152
 476 1382 476 1382 487.5 1388.5 c 128,-1,153
 499 1395 499 1395 513 1395 c 256,154,155
 527 1395 527 1395 539 1389.5 c 128,-1,156
 551 1384 551 1384 565 1384 c 1,157,158
 574 1391 574 1391 587 1393 c 128,-1,159
 600 1395 600 1395 615 1395 c 0,160,161
 629 1395 629 1395 644 1394 c 128,-1,162
 659 1393 659 1393 673 1393 c 1,163,164
 673 1391 673 1391 679.5 1387.5 c 128,-1,165
 686 1384 686 1384 688 1384 c 256,166,167
 690 1384 690 1384 696 1385.5 c 128,-1,168
 702 1387 702 1387 708.5 1388.5 c 128,-1,169
 715 1390 715 1390 720.5 1391.5 c 128,-1,170
 726 1393 726 1393 726 1393 c 1,171,172
 730 1393 730 1393 743 1393 c 128,-1,173
 756 1393 756 1393 774 1392 c 128,-1,174
 792 1391 792 1391 811.5 1390.5 c 128,-1,175
 831 1390 831 1390 848 1389 c 128,-1,176
 865 1388 865 1388 876.5 1386.5 c 128,-1,177
 888 1385 888 1385 890 1384 c 0,178,179
 911 1363 911 1363 916 1341.5 c 128,-1,180
 921 1320 921 1320 921 1309 c 2,181,-1
 921 1301 l 2,182,183
 921 1300 921 1300 912.5 1258.5 c 128,-1,184
 904 1217 904 1217 891 1151 c 1,185,-1
 1098 1149 l 1,186,-1
 1139 1362 l 1,187,188
 1155 1376 1155 1376 1178.5 1385.5 c 128,-1,189
 1202 1395 1202 1395 1225 1395 c 2,190,-1
 1327 1395 l 2,191,192
 1333 1395 1333 1395 1354 1396 c 128,-1,193
 1375 1397 1375 1397 1403.5 1397.5 c 128,-1,194
 1432 1398 1432 1398 1464.5 1398 c 128,-1,195
 1497 1398 1497 1398 1525.5 1397 c 128,-1,196
 1554 1396 1554 1396 1575 1393 c 128,-1,197
 1596 1390 1596 1390 1602 1384 c 0,0,1
781 615 m 1,198,199
 831 615 831 615 886 614.5 c 128,-1,200
 941 614 941 614 998 613 c 1,201,-1
 1011 694 l 1,202,-1
 1036 826 l 1,203,-1
 824 826 l 1,204,-1
 781 615 l 1,198,199
EndSplineSet
EndChar

StartChar: dollar
Encoding: 36 36 7
Width: 1312
Flags: W
LayerCount: 2
Fore
SplineSet
1241 416 m 0,0,1
 1241 334 1241 334 1225 269 c 128,-1,2
 1209 204 1209 204 1180.5 154 c 128,-1,3
 1152 104 1152 104 1112 67 c 128,-1,4
 1072 30 1072 30 1024 4 c 1,5,-1
 1018 -188 l 1,6,-1
 813 -205 l 1,7,-1
 801 -43 l 1,8,9
 751 -46 751 -46 696 -47.5 c 128,-1,10
 641 -49 641 -49 591 -49 c 1,11,-1
 587 -188 l 1,12,-1
 531 -201 l 1,13,14
 526 -201 526 -201 524 -194.5 c 128,-1,15
 522 -188 522 -188 517 -188 c 1,16,17
 516 -191 516 -191 516 -194 c 0,18,19
 515 -197 515 -197 515 -201 c 1,20,-1
 458 -201 l 1,21,22
 456 -202 456 -202 445 -202.5 c 128,-1,23
 434 -203 434 -203 421 -203.5 c 128,-1,24
 408 -204 408 -204 396.5 -204.5 c 128,-1,25
 385 -205 385 -205 382 -205 c 0,26,27
 373 -205 373 -205 368.5 -192 c 128,-1,28
 364 -179 364 -179 362 -155.5 c 128,-1,29
 360 -132 360 -132 359.5 -100.5 c 128,-1,30
 359 -69 359 -69 359 -31 c 1,31,32
 311 -15 311 -15 264.5 11.5 c 128,-1,33
 218 38 218 38 186 76 c 1,34,35
 157 155 157 155 139 236.5 c 128,-1,36
 121 318 121 318 118 406 c 0,37,38
 118 421 118 421 125.5 435 c 128,-1,39
 133 449 133 449 145 449 c 0,40,41
 200 447 200 447 252.5 433.5 c 128,-1,42
 305 420 305 420 354 404 c 128,-1,43
 403 388 403 388 447 375.5 c 128,-1,44
 491 363 491 363 528 363 c 0,45,46
 546 363 546 363 565 364.5 c 128,-1,47
 584 366 584 366 600 370 c 128,-1,48
 616 374 616 374 628.5 382 c 128,-1,49
 641 390 641 390 647 404 c 1,50,51
 588 434 588 434 523 463 c 128,-1,52
 458 492 458 492 395 525 c 128,-1,53
 332 558 332 558 275 597.5 c 128,-1,54
 218 637 218 637 175 687.5 c 128,-1,55
 132 738 132 738 106.5 801.5 c 128,-1,56
 81 865 81 865 81 946 c 0,57,58
 81 1040 81 1040 97.5 1111 c 128,-1,59
 114 1182 114 1182 142 1234.5 c 128,-1,60
 170 1287 170 1287 207.5 1322 c 128,-1,61
 245 1357 245 1357 288 1378 c 1,62,-1
 288 1583 l 2,63,64
 288 1599 288 1599 299 1614.5 c 128,-1,65
 310 1630 310 1630 333 1630 c 0,66,67
 349 1630 349 1630 364.5 1628.5 c 128,-1,68
 380 1627 380 1627 393 1625 c 128,-1,69
 406 1623 406 1623 415 1621.5 c 128,-1,70
 424 1620 424 1620 427 1620 c 0,71,72
 435 1620 435 1620 436 1621 c 128,-1,73
 437 1622 437 1622 437 1624 c 1,74,75
 452 1615 452 1615 463.5 1612.5 c 128,-1,76
 475 1610 475 1610 480 1610 c 0,77,78
 482 1610 482 1610 485 1613 c 2,79,-1
 488 1616 l 1,80,81
 492 1616 492 1616 496 1600.5 c 128,-1,82
 500 1585 500 1585 503.5 1558 c 128,-1,83
 507 1531 507 1531 510 1495 c 128,-1,84
 513 1459 513 1459 515 1419 c 1,85,-1
 685 1423 l 1,86,-1
 687 1583 l 1,87,-1
 687 1595 l 2,88,89
 687 1598 687 1598 691 1604 c 128,-1,90
 695 1610 695 1610 701.5 1616 c 128,-1,91
 708 1622 708 1622 716 1626 c 128,-1,92
 724 1630 724 1630 732 1630 c 0,93,94
 753 1630 753 1630 770.5 1627 c 128,-1,95
 788 1624 788 1624 804.5 1621 c 128,-1,96
 821 1618 821 1618 838.5 1615 c 128,-1,97
 856 1612 856 1612 878 1612 c 0,98,99
 882 1612 882 1612 886 1614 c 1,100,-1
 888 1616 l 1,101,102
 891 1616 891 1616 895 1599.5 c 128,-1,103
 899 1583 899 1583 902.5 1555 c 128,-1,104
 906 1527 906 1527 909 1490 c 128,-1,105
 912 1453 912 1453 914 1411 c 1,106,107
 966 1402 966 1402 1008 1387 c 128,-1,108
 1050 1372 1050 1372 1085 1366 c 0,109,110
 1091 1365 1091 1365 1095 1360.5 c 128,-1,111
 1099 1356 1099 1356 1103 1350.5 c 128,-1,112
 1107 1345 1107 1345 1111 1340.5 c 128,-1,113
 1115 1336 1115 1336 1120 1335 c 0,114,115
 1122 1335 1122 1335 1122 1336 c 128,-1,116
 1122 1337 1122 1337 1124 1337 c 1,117,118
 1128 1282 1128 1282 1134.5 1228 c 128,-1,119
 1141 1174 1141 1174 1141 1118 c 0,120,121
 1141 1101 1141 1101 1141 1079.5 c 128,-1,122
 1141 1058 1141 1058 1137.5 1038.5 c 128,-1,123
 1134 1019 1134 1019 1125.5 1006 c 128,-1,124
 1117 993 1117 993 1100 993 c 0,125,126
 1071 993 1071 993 1033 1000 c 128,-1,127
 995 1007 995 1007 952 1015.5 c 128,-1,128
 909 1024 909 1024 864 1031 c 128,-1,129
 819 1038 819 1038 777 1038 c 0,130,131
 743 1038 743 1038 713.5 1034.5 c 128,-1,132
 684 1031 684 1031 662 1023 c 128,-1,133
 640 1015 640 1015 627 1003 c 128,-1,134
 614 991 614 991 614 973 c 0,135,136
 614 968 614 968 641 955 c 128,-1,137
 668 942 668 942 712 922 c 128,-1,138
 756 902 756 902 812.5 874.5 c 128,-1,139
 869 847 869 847 927.5 812.5 c 128,-1,140
 986 778 986 778 1042.5 736 c 128,-1,141
 1099 694 1099 694 1143 644.5 c 128,-1,142
 1187 595 1187 595 1214 537.5 c 128,-1,143
 1241 480 1241 480 1241 416 c 0,0,1
EndSplineSet
EndChar

StartChar: percent
Encoding: 37 37 8
Width: 2549
Flags: W
LayerCount: 2
Fore
SplineSet
1410 408 m 0,0,1
 1382 336 1382 336 1362 286 c 128,-1,2
 1342 236 1342 236 1324.5 196 c 128,-1,3
 1307 156 1307 156 1290 119.5 c 128,-1,4
 1273 83 1273 83 1251 40 c 0,5,6
 1240 18 1240 18 1221 6 c 128,-1,7
 1202 -6 1202 -6 1184 -11 c 128,-1,8
 1166 -16 1166 -16 1152.5 -17 c 128,-1,9
 1139 -18 1139 -18 1138 -18 c 2,10,-1
 1132 -18 l 2,11,12
 1118 -18 1118 -18 1114 -14 c 128,-1,13
 1110 -10 1110 -10 1102 -10 c 1,14,15
 1096 -11 1096 -11 1092 -13 c 0,16,17
 1083 -17 1083 -17 1083 -18 c 1,18,-1
 971 -18 l 1,19,20
 969 -16 969 -16 954 -15.5 c 128,-1,21
 939 -15 939 -15 919.5 -15 c 128,-1,22
 900 -15 900 -15 882.5 -15.5 c 128,-1,23
 865 -16 865 -16 859 -16 c 0,24,25
 842 -16 842 -16 834.5 -5 c 128,-1,26
 827 6 827 6 826.5 23.5 c 128,-1,27
 826 41 826 41 830 62.5 c 128,-1,28
 834 84 834 84 839.5 104 c 128,-1,29
 845 124 845 124 850.5 141 c 128,-1,30
 856 158 856 158 859 166 c 0,31,32
 911 294 911 294 967.5 430 c 128,-1,33
 1024 566 1024 566 1079 694 c 1,34,-1
 1339 1362 l 2,35,36
 1339 1364 1339 1364 1342.5 1367.5 c 128,-1,37
 1346 1371 1346 1371 1350.5 1374 c 128,-1,38
 1355 1377 1355 1377 1359 1379.5 c 128,-1,39
 1363 1382 1363 1382 1363 1384 c 1,40,41
 1370 1384 1370 1384 1371.5 1383 c 128,-1,42
 1373 1382 1373 1382 1379 1382 c 0,43,44
 1401 1382 1401 1382 1424.5 1388.5 c 128,-1,45
 1448 1395 1448 1395 1472 1395 c 0,46,47
 1491 1395 1491 1395 1515 1395 c 128,-1,48
 1539 1395 1539 1395 1565.5 1394.5 c 128,-1,49
 1592 1394 1592 1394 1620 1391.5 c 128,-1,50
 1648 1389 1648 1389 1676 1384 c 1,51,52
 1674 1383 1674 1383 1676 1382 c 128,-1,53
 1678 1381 1678 1381 1681 1380 c 0,54,55
 1685 1379 1685 1379 1690 1378 c 1,56,-1
 1709 1384 l 1,57,58
 1727 1384 1727 1384 1741 1374 c 128,-1,59
 1755 1364 1755 1364 1758 1334 c 128,-1,60
 1761 1304 1761 1304 1748.5 1248.5 c 128,-1,61
 1736 1193 1736 1193 1701 1102 c 1,62,-1
 1639 958 l 2,63,64
 1627 931 1627 931 1616 905 c 128,-1,65
 1605 879 1605 879 1596.5 858.5 c 128,-1,66
 1588 838 1588 838 1582.5 825 c 128,-1,67
 1577 812 1577 812 1577 811 c 256,68,69
 1577 810 1577 810 1565 780.5 c 128,-1,70
 1553 751 1553 751 1534.5 706.5 c 128,-1,71
 1516 662 1516 662 1494.5 611 c 128,-1,72
 1473 560 1473 560 1454.5 515.5 c 128,-1,73
 1436 471 1436 471 1423.5 440.5 c 128,-1,74
 1411 410 1411 410 1410 408 c 0,0,1
437 486 m 0,75,76
 382 486 382 486 331.5 499 c 128,-1,77
 281 512 281 512 230 543 c 1,78,79
 186 568 186 568 155 610.5 c 128,-1,80
 124 653 124 653 104.5 702 c 128,-1,81
 85 751 85 751 76.5 802 c 128,-1,82
 68 853 68 853 68 895 c 0,83,84
 68 974 68 974 93.5 1054 c 128,-1,85
 119 1134 119 1134 166 1198.5 c 128,-1,86
 213 1263 213 1263 281 1303.5 c 128,-1,87
 349 1344 349 1344 433 1344 c 0,88,89
 446 1344 446 1344 458 1344 c 128,-1,90
 470 1344 470 1344 482 1342 c 1,91,92
 485 1343 485 1343 487.5 1343 c 128,-1,93
 490 1343 490 1343 492 1343 c 0,94,95
 547 1343 547 1343 589 1341.5 c 128,-1,96
 631 1340 631 1340 665 1335.5 c 128,-1,97
 699 1331 699 1331 728 1321.5 c 128,-1,98
 757 1312 757 1312 786 1296 c 1,99,100
 841 1260 841 1260 880.5 1220.5 c 128,-1,101
 920 1181 920 1181 945.5 1134 c 128,-1,102
 971 1087 971 1087 983.5 1031.5 c 128,-1,103
 996 976 996 976 996 908 c 0,104,105
 996 842 996 842 980.5 779.5 c 128,-1,106
 965 717 965 717 933 661 c 0,107,108
 931 656 931 656 927 649.5 c 128,-1,109
 923 643 923 643 919.5 637 c 128,-1,110
 916 631 916 631 913 627 c 128,-1,111
 910 623 910 623 910 623 c 1,112,-1
 901 618 l 1,113,114
 867 567 867 567 819.5 539 c 128,-1,115
 772 511 772 511 718 498 c 128,-1,116
 664 485 664 485 607 482.5 c 128,-1,117
 550 480 550 480 497 480 c 0,118,119
 480 480 480 480 466.5 483 c 128,-1,120
 453 486 453 486 437 486 c 0,75,76
473 876 m 2,121,122
 473 874 473 874 474.5 862 c 128,-1,123
 476 850 476 850 479.5 831.5 c 128,-1,124
 483 813 483 813 488.5 790 c 128,-1,125
 494 767 494 767 502 744 c 1,126,127
 503 736 503 736 509.5 735 c 128,-1,128
 516 734 516 734 521 734 c 0,129,130
 535 734 535 734 546 750 c 128,-1,131
 557 766 557 766 564.5 790 c 128,-1,132
 572 814 572 814 576.5 844 c 128,-1,133
 581 874 581 874 583.5 901 c 128,-1,134
 586 928 586 928 587 950 c 128,-1,135
 588 972 588 972 588 981 c 1,136,137
 588 978 588 978 587.5 998.5 c 128,-1,138
 587 1019 587 1019 583.5 1044.5 c 128,-1,139
 580 1070 580 1070 572 1091.5 c 128,-1,140
 564 1113 564 1113 548 1113 c 0,141,142
 529 1113 529 1113 510 1082.5 c 128,-1,143
 491 1052 491 1052 482 978 c 2,144,-1
 473 904 l 1,145,-1
 473 876 l 2,121,122
1917 -18 m 0,146,147
 1862 -18 1862 -18 1811.5 -5 c 128,-1,148
 1761 8 1761 8 1710 39 c 1,149,150
 1666 64 1666 64 1635 106.5 c 128,-1,151
 1604 149 1604 149 1584.5 198 c 128,-1,152
 1565 247 1565 247 1556.5 298 c 128,-1,153
 1548 349 1548 349 1548 391 c 0,154,155
 1548 470 1548 470 1573.5 550 c 128,-1,156
 1599 630 1599 630 1646 694.5 c 128,-1,157
 1693 759 1693 759 1761 799.5 c 128,-1,158
 1829 840 1829 840 1913 840 c 0,159,160
 1926 840 1926 840 1938 840 c 128,-1,161
 1950 840 1950 840 1962 838 c 1,162,163
 1965 839 1965 839 1967.5 839 c 128,-1,164
 1970 839 1970 839 1972 839 c 0,165,166
 2027 839 2027 839 2069 837.5 c 128,-1,167
 2111 836 2111 836 2145 831.5 c 128,-1,168
 2179 827 2179 827 2208 817.5 c 128,-1,169
 2237 808 2237 808 2266 792 c 1,170,171
 2321 756 2321 756 2360.5 716.5 c 128,-1,172
 2400 677 2400 677 2425.5 630 c 128,-1,173
 2451 583 2451 583 2463.5 527.5 c 128,-1,174
 2476 472 2476 472 2476 404 c 0,175,176
 2476 338 2476 338 2460.5 275.5 c 128,-1,177
 2445 213 2445 213 2413 157 c 0,178,179
 2411 152 2411 152 2407 145.5 c 128,-1,180
 2403 139 2403 139 2399.5 133 c 128,-1,181
 2396 127 2396 127 2393 123 c 128,-1,182
 2390 119 2390 119 2390 119 c 1,183,-1
 2381 114 l 1,184,185
 2347 63 2347 63 2299.5 35 c 128,-1,186
 2252 7 2252 7 2198 -6 c 128,-1,187
 2144 -19 2144 -19 2087 -21.5 c 128,-1,188
 2030 -24 2030 -24 1977 -24 c 0,189,190
 1960 -24 1960 -24 1946.5 -21 c 128,-1,191
 1933 -18 1933 -18 1917 -18 c 0,146,147
1953 332 m 2,192,193
 1953 330 1953 330 1954.5 320.5 c 128,-1,194
 1956 311 1956 311 1959.5 296.5 c 128,-1,195
 1963 282 1963 282 1968.5 264.5 c 128,-1,196
 1974 247 1974 247 1982 230 c 1,197,198
 1983 222 1983 222 1989.5 221 c 128,-1,199
 1996 220 1996 220 2001 220 c 0,200,201
 2015 220 2015 220 2026 236.5 c 128,-1,202
 2037 253 2037 253 2044.5 278.5 c 128,-1,203
 2052 304 2052 304 2056.5 334.5 c 128,-1,204
 2061 365 2061 365 2063.5 393.5 c 128,-1,205
 2066 422 2066 422 2067 445 c 128,-1,206
 2068 468 2068 468 2068 477 c 1,207,208
 2068 475 2068 475 2067.5 492 c 128,-1,209
 2067 509 2067 509 2063.5 530.5 c 128,-1,210
 2060 552 2060 552 2052 570.5 c 128,-1,211
 2044 589 2044 589 2028 589 c 0,212,213
 2009 589 2009 589 1990 563 c 128,-1,214
 1971 537 1971 537 1962 474 c 1,215,-1
 1953 360 l 1,216,-1
 1953 332 l 2,192,193
EndSplineSet
EndChar

StartChar: ampersand
Encoding: 38 38 9
Width: 2137
Flags: W
LayerCount: 2
Fore
SplineSet
1744 518 m 1,0,1
 1744 479 1744 479 1745.5 437 c 128,-1,2
 1747 395 1747 395 1751.5 361 c 128,-1,3
 1756 327 1756 327 1765.5 305 c 128,-1,4
 1775 283 1775 283 1790 283 c 0,5,6
 1852 283 1852 283 1916 283.5 c 128,-1,7
 1980 284 1980 284 2042 298 c 1,8,9
 2054 295 2054 295 2066.5 281 c 128,-1,10
 2079 267 2079 267 2079 255 c 2,11,-1
 2079 14 l 2,12,13
 2079 9 2079 9 2064 6.5 c 128,-1,14
 2049 4 2049 4 2024 2.5 c 128,-1,15
 1999 1 1999 1 1966.5 0.5 c 128,-1,16
 1934 0 1934 0 1900 0 c 0,17,18
 1856 0 1856 0 1813 0.5 c 128,-1,19
 1770 1 1770 1 1732.5 1 c 128,-1,20
 1695 1 1695 1 1664.5 1.5 c 128,-1,21
 1634 2 1634 2 1615 2 c 0,22,23
 1575 2 1575 2 1534 -1 c 128,-1,24
 1493 -4 1493 -4 1456 -4 c 0,25,26
 1422 -4 1422 -4 1386 5.5 c 128,-1,27
 1350 15 1350 15 1315.5 32.5 c 128,-1,28
 1281 50 1281 50 1250 75.5 c 128,-1,29
 1219 101 1219 101 1195 133 c 1,30,31
 1136 96 1136 96 1084 67 c 0,32,33
 1062 55 1062 55 1039 43 c 128,-1,34
 1016 31 1016 31 995 22 c 128,-1,35
 974 13 974 13 956.5 7.5 c 128,-1,36
 939 2 939 2 928 2 c 0,37,38
 767 2 767 2 604.5 1 c 128,-1,39
 442 0 442 0 280 0 c 0,40,41
 272 0 272 0 248.5 2.5 c 128,-1,42
 225 5 225 5 200.5 9 c 128,-1,43
 176 13 176 13 157 18 c 128,-1,44
 138 23 138 23 139 29 c 1,45,46
 139 51 139 51 137.5 88.5 c 128,-1,47
 136 126 136 126 133.5 170.5 c 128,-1,48
 131 215 131 215 128 263.5 c 128,-1,49
 125 312 125 312 122.5 357.5 c 128,-1,50
 120 403 120 403 118.5 441 c 128,-1,51
 117 479 117 479 117 504 c 0,52,53
 117 530 117 530 117.5 552.5 c 128,-1,54
 118 575 118 575 118.5 598.5 c 128,-1,55
 119 622 119 622 119.5 650 c 128,-1,56
 120 678 120 678 120 714 c 2,57,-1
 120 805 l 1,58,-1
 120 900 l 2,59,60
 120 1023 120 1023 123 1147.5 c 128,-1,61
 126 1272 126 1272 137 1401 c 0,62,63
 137 1410 137 1410 158.5 1416.5 c 128,-1,64
 180 1423 180 1423 213.5 1427.5 c 128,-1,65
 247 1432 247 1432 288 1434.5 c 128,-1,66
 329 1437 329 1437 368 1438 c 128,-1,67
 407 1439 407 1439 440 1439.5 c 128,-1,68
 473 1440 473 1440 490 1440 c 0,69,70
 574 1440 574 1440 637 1442 c 128,-1,71
 700 1444 700 1444 752.5 1446 c 128,-1,72
 805 1448 805 1448 852.5 1450 c 128,-1,73
 900 1452 900 1452 954.5 1452 c 128,-1,74
 1009 1452 1009 1452 1076.5 1449.5 c 128,-1,75
 1144 1447 1144 1447 1235 1440 c 1,76,77
 1254 1440 1254 1440 1265 1418 c 128,-1,78
 1276 1396 1276 1396 1283 1362.5 c 128,-1,79
 1290 1329 1290 1329 1296.5 1289 c 128,-1,80
 1303 1249 1303 1249 1313 1213 c 1,81,82
 1314 1187 1314 1187 1311.5 1175.5 c 128,-1,83
 1309 1164 1309 1164 1303.5 1159.5 c 128,-1,84
 1298 1155 1298 1155 1288.5 1156 c 128,-1,85
 1279 1157 1279 1157 1266 1157 c 0,86,87
 1215 1157 1215 1157 1162 1153 c 128,-1,88
 1109 1149 1109 1149 1055 1143.5 c 128,-1,89
 1001 1138 1001 1138 947 1133 c 128,-1,90
 893 1128 893 1128 840 1125 c 0,91,92
 834 1125 834 1125 828.5 1109 c 128,-1,93
 823 1093 823 1093 818.5 1068 c 128,-1,94
 814 1043 814 1043 811 1012 c 128,-1,95
 808 981 808 981 805.5 951 c 128,-1,96
 803 921 803 921 802 895.5 c 128,-1,97
 801 870 801 870 801 856 c 0,98,99
 801 828 801 828 808.5 820.5 c 128,-1,100
 816 813 816 813 833 813 c 2,101,-1
 1153 813 l 1,102,103
 1154 907 1154 907 1160.5 969.5 c 128,-1,104
 1167 1032 1167 1032 1184 1052 c 1,105,106
 1263 1052 1263 1052 1320.5 1052.5 c 128,-1,107
 1378 1053 1378 1053 1426 1053 c 128,-1,108
 1474 1053 1474 1053 1519.5 1053.5 c 128,-1,109
 1565 1054 1565 1054 1620 1054 c 1,110,111
 1656 1051 1656 1051 1677.5 1049 c 128,-1,112
 1699 1047 1699 1047 1710.5 1032 c 128,-1,113
 1722 1017 1722 1017 1725.5 982 c 128,-1,114
 1729 947 1729 947 1729 878 c 0,115,116
 1729 864 1729 864 1731 847 c 128,-1,117
 1733 830 1733 830 1736 811 c 1,118,119
 1793 809 1793 809 1832.5 808 c 128,-1,120
 1872 807 1872 807 1886 805 c 0,121,122
 1902 803 1902 803 1913 802 c 128,-1,123
 1924 801 1924 801 1932 797.5 c 128,-1,124
 1940 794 1940 794 1945.5 785 c 128,-1,125
 1951 776 1951 776 1956 758 c 1,126,-1
 1964 575 l 1,127,-1
 1964 569 l 2,128,129
 1964 551 1964 551 1959.5 541 c 128,-1,130
 1955 531 1955 531 1940 526 c 128,-1,131
 1925 521 1925 521 1897.5 519.5 c 128,-1,132
 1870 518 1870 518 1825 518 c 2,133,-1
 1744 518 l 1,0,1
1157 298 m 1,134,135
 1157 355 1157 355 1156.5 410 c 128,-1,136
 1156 465 1156 465 1155 518 c 1,137,-1
 867 518 l 2,138,139
 843 518 843 518 829 516.5 c 128,-1,140
 815 515 815 515 807.5 507.5 c 128,-1,141
 800 500 800 500 797.5 483.5 c 128,-1,142
 795 467 795 467 794 436 c 0,143,144
 792 397 792 397 789 360 c 128,-1,145
 786 323 786 323 788 281 c 1,146,147
 816 281 816 281 854 282.5 c 128,-1,148
 892 284 892 284 933.5 286 c 128,-1,149
 975 288 975 288 1015 289.5 c 128,-1,150
 1055 291 1055 291 1088 292 c 1,151,-1
 1151 292 l 1,152,-1
 1157 298 l 1,134,135
EndSplineSet
EndChar

StartChar: quotesingle
Encoding: 39 39 10
Width: 813
Flags: W
LayerCount: 2
Fore
SplineSet
645 705 m 0,0,1
 637 672 637 672 631.5 637.5 c 128,-1,2
 626 603 626 603 621 569 c 128,-1,3
 616 535 616 535 609 501 c 128,-1,4
 602 467 602 467 592 434 c 1,5,6
 582 435 582 435 568.5 435 c 128,-1,7
 555 435 555 435 540.5 434.5 c 128,-1,8
 526 434 526 434 512.5 433.5 c 128,-1,9
 499 433 499 433 489 432 c 1,10,-1
 487 432 l 1,11,-1
 485 432 l 1,12,-1
 473 440 l 1,13,-1
 465 434 l 1,14,-1
 364 434 l 1,15,16
 333 436 333 436 300.5 433 c 128,-1,17
 268 430 268 430 237 432 c 1,18,19
 223 444 223 444 215 459.5 c 128,-1,20
 207 475 207 475 202.5 492.5 c 128,-1,21
 198 510 198 510 195 528 c 128,-1,22
 192 546 192 546 188 563 c 0,23,24
 170 653 170 653 162 744 c 128,-1,25
 154 835 154 835 141 926 c 1,26,27
 124 1035 124 1035 109.5 1144 c 128,-1,28
 95 1253 95 1253 84 1364 c 1,29,-1
 96 1378 l 1,30,-1
 112 1378 l 1,31,-1
 203 1393 l 1,32,33
 241 1395 241 1395 279.5 1393 c 128,-1,34
 318 1391 318 1391 356 1393 c 1,35,36
 378 1402 378 1402 400.5 1399.5 c 128,-1,37
 423 1397 423 1397 444 1399 c 1,38,-1
 459 1393 l 1,39,40
 467 1396 467 1396 479.5 1395.5 c 128,-1,41
 492 1395 492 1395 500 1397 c 1,42,43
 506 1394 506 1394 513 1393.5 c 128,-1,44
 520 1393 520 1393 526 1391 c 1,45,-1
 616 1384 l 1,46,-1
 631 1380 l 1,47,48
 636 1380 636 1380 638 1381 c 128,-1,49
 640 1382 640 1382 645 1382 c 1,50,51
 676 1375 676 1375 693 1370 c 128,-1,52
 710 1365 710 1365 717.5 1357 c 128,-1,53
 725 1349 725 1349 725.5 1335 c 128,-1,54
 726 1321 726 1321 725 1296 c 1,55,56
 723 1272 723 1272 718 1231.5 c 128,-1,57
 713 1191 713 1191 707 1147.5 c 128,-1,58
 701 1104 701 1104 694.5 1063.5 c 128,-1,59
 688 1023 688 1023 684 999 c 0,60,61
 670 925 670 925 666 852 c 128,-1,62
 662 779 662 779 645 705 c 0,0,1
EndSplineSet
EndChar

StartChar: parenleft
Encoding: 40 40 11
Width: 1123
Flags: W
LayerCount: 2
Fore
SplineSet
585 1475 m 0,0,1
 605 1485 605 1485 635 1492.5 c 128,-1,2
 665 1500 665 1500 694 1505 c 0,3,4
 727 1510 727 1510 763 1514 c 1,5,-1
 878 1130 l 1,6,7
 843 1089 843 1089 810.5 1046 c 128,-1,8
 778 1003 778 1003 753 948.5 c 128,-1,9
 728 894 728 894 713 825 c 128,-1,10
 698 756 698 756 698 664 c 0,11,12
 698 603 698 603 705.5 554.5 c 128,-1,13
 713 506 713 506 726.5 466.5 c 128,-1,14
 740 427 740 427 758.5 393.5 c 128,-1,15
 777 360 777 360 799 329 c 0,16,17
 803 323 803 323 816.5 307 c 128,-1,18
 830 291 830 291 845.5 273 c 128,-1,19
 861 255 861 255 874.5 239.5 c 128,-1,20
 888 224 888 224 892 220 c 0,21,22
 902 209 902 209 918.5 194 c 128,-1,23
 935 179 935 179 949 171 c 1,24,-1
 715 -250 l 1,25,26
 623 -207 623 -207 543 -153.5 c 128,-1,27
 463 -100 463 -100 393 -44 c 0,28,29
 367 -23 367 -23 334.5 2 c 128,-1,30
 302 27 302 27 268.5 59 c 128,-1,31
 235 91 235 91 202 132.5 c 128,-1,32
 169 174 169 174 142 228 c 128,-1,33
 115 282 115 282 95.5 350 c 128,-1,34
 76 418 76 418 69 504 c 1,35,36
 63 562 63 562 63 629 c 0,37,38
 63 677 63 677 66 721.5 c 128,-1,39
 69 766 69 766 76 811 c 0,40,41
 88 889 88 889 111 962 c 128,-1,42
 134 1035 134 1035 166 1100 c 1,43,44
 205 1184 205 1184 262.5 1246 c 128,-1,45
 320 1308 320 1308 380 1353 c 128,-1,46
 440 1398 440 1398 495 1427.5 c 128,-1,47
 550 1457 550 1457 585 1475 c 0,0,1
EndSplineSet
EndChar

StartChar: parenright
Encoding: 41 41 12
Width: 1123
Flags: W
LayerCount: 2
Fore
SplineSet
427 1475 m 0,0,1
 462 1457 462 1457 517 1427.5 c 128,-1,2
 572 1398 572 1398 632 1353 c 128,-1,3
 692 1308 692 1308 749.5 1246 c 128,-1,4
 807 1184 807 1184 846 1100 c 1,5,6
 878 1035 878 1035 901 962 c 128,-1,7
 924 889 924 889 936 811 c 0,8,9
 943 766 943 766 946 721.5 c 128,-1,10
 949 677 949 677 949 629 c 0,11,12
 949 562 949 562 943 504 c 1,13,14
 932 375 932 375 895 285 c 128,-1,15
 858 195 858 195 810 132.5 c 128,-1,16
 762 70 762 70 710 28.5 c 128,-1,17
 658 -13 658 -13 619 -44 c 0,18,19
 549 -100 549 -100 469 -153.5 c 128,-1,20
 389 -207 389 -207 297 -250 c 1,21,-1
 63 171 l 1,22,23
 77 179 77 179 93.5 194 c 128,-1,24
 110 209 110 209 120 220 c 0,25,26
 124 224 124 224 137.5 239.5 c 128,-1,27
 151 255 151 255 166.5 273 c 128,-1,28
 182 291 182 291 195.5 307 c 128,-1,29
 209 323 209 323 213 329 c 0,30,31
 235 360 235 360 253.5 393.5 c 128,-1,32
 272 427 272 427 285.5 466.5 c 128,-1,33
 299 506 299 506 306.5 554.5 c 128,-1,34
 314 603 314 603 314 664 c 0,35,36
 314 756 314 756 299 825 c 128,-1,37
 284 894 284 894 259 948.5 c 128,-1,38
 234 1003 234 1003 201.5 1046 c 128,-1,39
 169 1089 169 1089 134 1130 c 1,40,-1
 249 1514 l 1,41,42
 285 1510 285 1510 318 1505 c 0,43,44
 347 1500 347 1500 377 1492.5 c 128,-1,45
 407 1485 407 1485 427 1475 c 0,0,1
EndSplineSet
EndChar

StartChar: asterisk
Encoding: 42 42 13
Width: 1176
Flags: W
LayerCount: 2
Fore
SplineSet
192 794 m 2,0,-1
 331 887 l 1,1,-1
 192 980 l 2,2,3
 170 995 170 995 147.5 1009 c 128,-1,4
 125 1023 125 1023 109.5 1038 c 128,-1,5
 94 1053 94 1053 89 1069.5 c 128,-1,6
 84 1086 84 1086 97 1105 c 0,7,8
 113 1130 113 1130 126.5 1150 c 128,-1,9
 140 1170 140 1170 152 1189.5 c 128,-1,10
 164 1209 164 1209 177 1229 c 128,-1,11
 190 1249 190 1249 207 1274 c 0,12,13
 216 1287 216 1287 237 1290.5 c 128,-1,14
 258 1294 258 1294 270 1286 c 0,15,16
 317 1255 317 1255 359 1226.5 c 128,-1,17
 401 1198 401 1198 447 1168 c 1,18,-1
 447 1270 l 2,19,20
 447 1297 447 1297 446.5 1323.5 c 128,-1,21
 446 1350 446 1350 450 1371 c 128,-1,22
 454 1392 454 1392 464.5 1405.5 c 128,-1,23
 475 1419 475 1419 498 1419 c 0,24,25
 528 1419 528 1419 552 1419.5 c 128,-1,26
 576 1420 576 1420 599 1420 c 128,-1,27
 622 1420 622 1420 646 1420.5 c 128,-1,28
 670 1421 670 1421 700 1421 c 0,29,30
 708 1421 708 1421 716 1416.5 c 128,-1,31
 724 1412 724 1412 730.5 1405.5 c 128,-1,32
 737 1399 737 1399 741 1391 c 128,-1,33
 745 1383 745 1383 745 1376 c 2,34,-1
 745 1154 l 1,35,36
 768 1168 768 1168 786.5 1180 c 128,-1,37
 805 1192 805 1192 816 1199 c 0,38,39
 819 1201 819 1201 828 1208.5 c 128,-1,40
 837 1216 837 1216 847 1225 c 128,-1,41
 857 1234 857 1234 866 1241.5 c 128,-1,42
 875 1249 875 1249 878 1251 c 0,43,44
 904 1268 904 1268 922 1272.5 c 128,-1,45
 940 1277 940 1277 954.5 1272 c 128,-1,46
 969 1267 969 1267 980.5 1253 c 128,-1,47
 992 1239 992 1239 1005 1220 c 0,48,49
 1015 1204 1015 1204 1024.5 1192 c 128,-1,50
 1034 1180 1034 1180 1043.5 1167 c 128,-1,51
 1053 1154 1053 1154 1064 1138.5 c 128,-1,52
 1075 1123 1075 1123 1090 1101 c 0,53,54
 1099 1087 1099 1087 1096 1074 c 128,-1,55
 1093 1061 1093 1061 1082.5 1048 c 128,-1,56
 1072 1035 1072 1035 1057 1023.5 c 128,-1,57
 1042 1012 1042 1012 1028 1003 c 0,58,59
 985 974 985 974 943.5 945.5 c 128,-1,60
 902 917 902 917 859 887 c 1,61,62
 902 857 902 857 943.5 828.5 c 128,-1,63
 985 800 985 800 1028 771 c 0,64,65
 1042 762 1042 762 1057 750.5 c 128,-1,66
 1072 739 1072 739 1082.5 726 c 128,-1,67
 1093 713 1093 713 1096 699.5 c 128,-1,68
 1099 686 1099 686 1090 673 c 0,69,70
 1075 651 1075 651 1064 635.5 c 128,-1,71
 1053 620 1053 620 1043.5 607 c 128,-1,72
 1034 594 1034 594 1024.5 582 c 128,-1,73
 1015 570 1015 570 1005 554 c 0,74,75
 992 535 992 535 980.5 521 c 128,-1,76
 969 507 969 507 954.5 502 c 128,-1,77
 940 497 940 497 922 501.5 c 128,-1,78
 904 506 904 506 878 523 c 0,79,80
 875 524 875 524 866 532 c 128,-1,81
 857 540 857 540 847 549 c 128,-1,82
 837 558 837 558 828 565.5 c 128,-1,83
 819 573 819 573 816 575 c 2,84,-1
 739 623 l 1,85,86
 738 581 738 581 737.5 541 c 128,-1,87
 737 501 737 501 737 459 c 0,88,89
 737 442 737 442 735.5 423.5 c 128,-1,90
 734 405 734 405 729.5 389 c 128,-1,91
 725 373 725 373 715.5 363 c 128,-1,92
 706 353 706 353 690 353 c 0,93,94
 663 353 663 353 644 354 c 128,-1,95
 625 355 625 355 609 355.5 c 128,-1,96
 593 356 593 356 577.5 357 c 128,-1,97
 562 358 562 358 543 358 c 0,98,99
 520 358 520 358 502 360 c 128,-1,100
 484 362 484 362 472 371 c 128,-1,101
 460 380 460 380 453.5 397.5 c 128,-1,102
 447 415 447 415 447 446 c 0,103,104
 447 449 447 449 448.5 461 c 128,-1,105
 450 473 450 473 451.5 486.5 c 128,-1,106
 453 500 453 500 454.5 512 c 128,-1,107
 456 524 456 524 456 527 c 0,108,109
 456 539 456 539 455.5 561 c 128,-1,110
 455 583 455 583 454 610 c 1,111,-1
 270 488 l 2,112,113
 258 480 258 480 237 483.5 c 128,-1,114
 216 487 216 487 207 500 c 0,115,116
 190 525 190 525 177 545 c 128,-1,117
 164 565 164 565 152 584.5 c 128,-1,118
 140 604 140 604 126.5 624 c 128,-1,119
 113 644 113 644 97 669 c 0,120,121
 84 688 84 688 89 704.5 c 128,-1,122
 94 721 94 721 109.5 736 c 128,-1,123
 125 751 125 751 147.5 765 c 128,-1,124
 170 779 170 779 192 794 c 2,0,-1
EndSplineSet
EndChar

StartChar: plus
Encoding: 43 43 14
Width: 1131
Flags: W
LayerCount: 2
Fore
SplineSet
232 301 m 2,0,1
 200 301 200 301 169 300.5 c 128,-1,2
 138 300 138 300 112.5 304.5 c 128,-1,3
 87 309 87 309 71.5 321.5 c 128,-1,4
 56 334 56 334 56 360 c 0,5,6
 56 406 56 406 55.5 443 c 128,-1,7
 55 480 55 480 55 515.5 c 128,-1,8
 55 551 55 551 54.5 588 c 128,-1,9
 54 625 54 625 54 670 c 0,10,11
 54 679 54 679 59 688.5 c 128,-1,12
 64 698 64 698 72 705.5 c 128,-1,13
 80 713 80 713 89.5 718 c 128,-1,14
 99 723 99 723 107 723 c 2,15,-1
 361 723 l 1,16,-1
 361 840 l 2,17,18
 361 871 361 871 360.5 902.5 c 128,-1,19
 360 934 360 934 364.5 959.5 c 128,-1,20
 369 985 369 985 382 1000.5 c 128,-1,21
 395 1016 395 1016 421 1016 c 0,22,23
 467 1016 467 1016 504 1016.5 c 128,-1,24
 541 1017 541 1017 576 1017 c 128,-1,25
 611 1017 611 1017 648 1017.5 c 128,-1,26
 685 1018 685 1018 730 1018 c 0,27,28
 739 1018 739 1018 748.5 1013 c 128,-1,29
 758 1008 758 1008 765.5 1000 c 128,-1,30
 773 992 773 992 778 982.5 c 128,-1,31
 783 973 783 973 783 965 c 2,32,-1
 783 718 l 1,33,34
 826 716 826 716 867 714.5 c 128,-1,35
 908 713 908 713 951 713 c 0,36,37
 971 713 971 713 993 711.5 c 128,-1,38
 1015 710 1015 710 1033.5 704.5 c 128,-1,39
 1052 699 1052 699 1064 687.5 c 128,-1,40
 1076 676 1076 676 1076 657 c 0,41,42
 1076 613 1076 613 1075 581.5 c 128,-1,43
 1074 550 1074 550 1073 523.5 c 128,-1,44
 1072 497 1072 497 1071 471.5 c 128,-1,45
 1070 446 1070 446 1070 414 c 0,46,47
 1070 387 1070 387 1067.5 366 c 128,-1,48
 1065 345 1065 345 1054.5 330.5 c 128,-1,49
 1044 316 1044 316 1023.5 308.5 c 128,-1,50
 1003 301 1003 301 966 301 c 2,51,-1
 779 301 l 1,52,53
 777 254 777 254 775 210.5 c 128,-1,54
 773 167 773 167 773 121 c 0,55,56
 773 101 773 101 771.5 79 c 128,-1,57
 770 57 770 57 764.5 38.5 c 128,-1,58
 759 20 759 20 748 8 c 128,-1,59
 737 -4 737 -4 718 -4 c 0,60,61
 673 -4 673 -4 641.5 -3 c 128,-1,62
 610 -2 610 -2 583.5 -1 c 128,-1,63
 557 0 557 0 531.5 1 c 128,-1,64
 506 2 506 2 474 2 c 0,65,66
 447 2 447 2 426 4.5 c 128,-1,67
 405 7 405 7 390.5 17.5 c 128,-1,68
 376 28 376 28 368.5 48.5 c 128,-1,69
 361 69 361 69 361 106 c 0,70,71
 361 109 361 109 362.5 123 c 128,-1,72
 364 137 364 137 366.5 153 c 128,-1,73
 369 169 369 169 370.5 183 c 128,-1,74
 372 197 372 197 372 201 c 0,75,76
 372 207 372 207 370.5 221 c 128,-1,77
 369 235 369 235 367 251 c 128,-1,78
 365 267 365 267 363 281.5 c 128,-1,79
 361 296 361 296 361 301 c 1,80,-1
 232 301 l 2,0,1
EndSplineSet
EndChar

StartChar: comma
Encoding: 44 44 15
Width: 837
Flags: W
LayerCount: 2
Fore
SplineSet
477 -481 m 1,0,1
 429 -504 429 -504 376 -520.5 c 128,-1,2
 323 -537 323 -537 264 -537 c 0,3,4
 253 -537 253 -537 243.5 -537 c 128,-1,5
 234 -537 234 -537 225 -535 c 1,6,7
 224 -525 224 -525 221.5 -511.5 c 128,-1,8
 219 -498 219 -498 216 -484.5 c 128,-1,9
 213 -471 213 -471 209.5 -457.5 c 128,-1,10
 206 -444 206 -444 203 -434 c 1,11,-1
 203 -432 l 1,12,-1
 209 -418 l 1,13,-1
 201 -410 l 1,14,-1
 178 -340 l 1,15,16
 176 -338 176 -338 172.5 -331 c 128,-1,17
 169 -324 169 -324 165.5 -316 c 128,-1,18
 162 -308 162 -308 159 -301 c 128,-1,19
 156 -294 156 -294 153 -291 c 1,20,21
 214 -279 214 -279 257.5 -247 c 128,-1,22
 301 -215 301 -215 327 -180.5 c 128,-1,23
 353 -146 353 -146 362 -119 c 128,-1,24
 371 -92 371 -92 364 -90 c 0,25,26
 352 -88 352 -88 329 -86.5 c 128,-1,27
 306 -85 306 -85 278 -84.5 c 128,-1,28
 250 -84 250 -84 220 -82 c 128,-1,29
 190 -80 190 -80 165.5 -76.5 c 128,-1,30
 141 -73 141 -73 125 -66.5 c 128,-1,31
 109 -60 109 -60 108 -49 c 0,32,33
 104 -17 104 -17 102.5 38.5 c 128,-1,34
 101 94 101 94 99.5 154 c 128,-1,35
 98 214 98 214 95.5 269.5 c 128,-1,36
 93 325 93 325 88 358 c 1,37,-1
 100 373 l 1,38,-1
 207 387 l 1,39,-1
 239 387 l 1,40,-1
 327 387 l 2,41,42
 347 387 347 387 364.5 390 c 128,-1,43
 382 393 382 393 399 393 c 2,44,-1
 438 393 l 1,45,-1
 448 393 l 1,46,-1
 463 387 l 1,47,48
 471 390 471 390 483.5 389.5 c 128,-1,49
 496 389 496 389 504 391 c 1,50,51
 510 388 510 388 517 387.5 c 128,-1,52
 524 387 524 387 530 385 c 1,53,-1
 620 379 l 1,54,-1
 635 375 l 1,55,56
 640 375 640 375 642 376 c 128,-1,57
 644 377 644 377 649 377 c 1,58,59
 668 371 668 371 679.5 366 c 128,-1,60
 691 361 691 361 697.5 355 c 128,-1,61
 704 349 704 349 706 340.5 c 128,-1,62
 708 332 708 332 708 317 c 0,63,64
 708 309 708 309 708.5 281 c 128,-1,65
 709 253 709 253 711 218.5 c 128,-1,66
 713 184 713 184 717 151.5 c 128,-1,67
 721 119 721 119 729 104 c 1,68,69
 723 76 723 76 722 29 c 128,-1,70
 721 -18 721 -18 717.5 -73.5 c 128,-1,71
 714 -129 714 -129 703.5 -189 c 128,-1,72
 693 -249 693 -249 667 -304.5 c 128,-1,73
 641 -360 641 -360 595.5 -406.5 c 128,-1,74
 550 -453 550 -453 477 -481 c 1,0,1
EndSplineSet
EndChar

StartChar: hyphen
Encoding: 45 45 16
Width: 963
Flags: W
LayerCount: 2
Fore
SplineSet
294 399 m 2,0,1
 262 399 262 399 231 398.5 c 128,-1,2
 200 398 200 398 174.5 402.5 c 128,-1,3
 149 407 149 407 133.5 420 c 128,-1,4
 118 433 118 433 118 459 c 0,5,6
 118 505 118 505 117.5 541 c 128,-1,7
 117 577 117 577 116.5 610.5 c 128,-1,8
 116 644 116 644 115.5 679.5 c 128,-1,9
 115 715 115 715 115 760 c 0,10,11
 115 769 115 769 120 778.5 c 128,-1,12
 125 788 125 788 133 795.5 c 128,-1,13
 141 803 141 803 150.5 808 c 128,-1,14
 160 813 160 813 169 813 c 0,15,16
 217 813 217 813 260 817 c 128,-1,17
 303 821 303 821 353 821 c 2,18,-1
 543 821 l 2,19,20
 594 821 594 821 636 817 c 128,-1,21
 678 813 678 813 726 813 c 0,22,23
 746 813 746 813 768 811.5 c 128,-1,24
 790 810 790 810 808.5 804.5 c 128,-1,25
 827 799 827 799 839 788 c 128,-1,26
 851 777 851 777 851 758 c 0,27,28
 851 713 851 713 850 682 c 128,-1,29
 849 651 849 651 848 625.5 c 128,-1,30
 847 600 847 600 846 575 c 128,-1,31
 845 550 845 550 845 518 c 0,32,33
 845 491 845 491 842.5 470 c 128,-1,34
 840 449 840 449 830 435 c 128,-1,35
 820 421 820 421 798.5 413.5 c 128,-1,36
 777 406 777 406 740 406 c 1,37,-1
 726 402 l 2,38,39
 714 399 714 399 707 399 c 2,40,-1
 605 399 l 1,41,-1
 294 399 l 2,0,1
EndSplineSet
EndChar

StartChar: period
Encoding: 46 46 17
Width: 785
Flags: W
LayerCount: 2
Fore
SplineSet
669 -20 m 1,0,1
 672 -36 672 -36 660.5 -42.5 c 128,-1,2
 649 -49 649 -49 629.5 -50 c 128,-1,3
 610 -51 610 -51 585 -49 c 128,-1,4
 560 -47 560 -47 538 -47 c 0,5,6
 533 -47 533 -47 519.5 -47.5 c 128,-1,7
 506 -48 506 -48 491 -48.5 c 128,-1,8
 476 -49 476 -49 463 -49.5 c 128,-1,9
 450 -50 450 -50 446 -49 c 0,10,11
 380 -47 380 -47 332.5 -46 c 128,-1,12
 285 -45 285 -45 243 -47 c 0,13,14
 229 -48 229 -48 210.5 -50 c 128,-1,15
 192 -52 192 -52 174 -50.5 c 128,-1,16
 156 -49 156 -49 143 -42.5 c 128,-1,17
 130 -36 130 -36 129 -20 c 0,18,19
 125 12 125 12 123 67.5 c 128,-1,20
 121 123 121 123 119.5 183 c 128,-1,21
 118 243 118 243 116 298.5 c 128,-1,22
 114 354 114 354 108 387 c 1,23,-1
 121 401 l 1,24,-1
 186 416 l 1,25,-1
 307 416 l 2,26,27
 327 416 327 416 344.5 419 c 128,-1,28
 362 422 362 422 379 422 c 2,29,-1
 428 422 l 1,30,-1
 442 416 l 1,31,32
 448 419 448 419 461 418.5 c 128,-1,33
 474 418 474 418 483 420 c 1,34,35
 489 417 489 417 496 416.5 c 128,-1,36
 503 416 503 416 510 414 c 1,37,-1
 559 408 l 1,38,-1
 573 403 l 1,39,40
 576 403 576 403 580 404.5 c 128,-1,41
 584 406 584 406 587 406 c 0,42,43
 606 400 606 400 617.5 395 c 128,-1,44
 629 390 629 390 635.5 384 c 128,-1,45
 642 378 642 378 644.5 369.5 c 128,-1,46
 647 361 647 361 647 346 c 1,47,48
 654 338 654 338 658.5 310.5 c 128,-1,49
 663 283 663 283 664.5 249 c 128,-1,50
 666 215 666 215 666.5 182.5 c 128,-1,51
 667 150 667 150 667 133 c 1,52,53
 673 89 673 89 673 70.5 c 128,-1,54
 673 52 673 52 671.5 41.5 c 128,-1,55
 670 31 670 31 668.5 20 c 128,-1,56
 667 9 667 9 669 -20 c 1,0,1
EndSplineSet
EndChar

StartChar: slash
Encoding: 47 47 18
Width: 1120
Flags: W
LayerCount: 2
Fore
SplineSet
787 408 m 0,0,1
 766 336 766 336 747 269 c 128,-1,2
 728 202 728 202 711 146.5 c 128,-1,3
 694 91 694 91 678 50 c 128,-1,4
 662 9 662 9 646 -10 c 1,5,6
 628 -10 628 -10 606 -11.5 c 128,-1,7
 584 -13 584 -13 564 -14.5 c 128,-1,8
 544 -16 544 -16 530 -17 c 128,-1,9
 516 -18 516 -18 515 -18 c 2,10,-1
 509 -18 l 2,11,12
 496 -18 496 -18 491 -14 c 128,-1,13
 486 -10 486 -10 478 -10 c 1,14,15
 473 -11 473 -11 469 -13 c 0,16,17
 460 -17 460 -17 460 -18 c 1,18,-1
 228 -18 l 1,19,20
 226 -19 226 -19 210.5 -20 c 128,-1,21
 195 -21 195 -21 176 -21.5 c 128,-1,22
 157 -22 157 -22 139.5 -22.5 c 128,-1,23
 122 -23 122 -23 116 -23 c 0,24,25
 99 -23 99 -23 90.5 -11.5 c 128,-1,26
 82 0 82 0 79.5 18 c 128,-1,27
 77 36 77 36 79 58 c 128,-1,28
 81 80 81 80 85 101 c 128,-1,29
 89 122 89 122 93 139.5 c 128,-1,30
 97 157 97 157 99 166 c 0,31,32
 134 294 134 294 172.5 430 c 128,-1,33
 211 566 211 566 249 694 c 1,34,-1
 466 1362 l 2,35,36
 466 1364 466 1364 469.5 1367.5 c 128,-1,37
 473 1371 473 1371 477 1374 c 128,-1,38
 481 1377 481 1377 484.5 1379.5 c 128,-1,39
 488 1382 488 1382 488 1384 c 1,40,41
 495 1384 495 1384 497 1383 c 128,-1,42
 499 1382 499 1382 505 1382 c 0,43,44
 536 1382 536 1382 568.5 1388.5 c 128,-1,45
 601 1395 601 1395 636 1395 c 0,46,47
 650 1395 650 1395 661.5 1389.5 c 128,-1,48
 673 1384 673 1384 687 1384 c 1,49,50
 696 1390 696 1390 713 1392.5 c 128,-1,51
 730 1395 730 1395 749 1395 c 128,-1,52
 768 1395 768 1395 787 1394 c 128,-1,53
 806 1393 806 1393 820 1393 c 1,54,55
 820 1391 820 1391 825.5 1387.5 c 128,-1,56
 831 1384 831 1384 834 1384 c 0,57,58
 836 1384 836 1384 842 1385.5 c 128,-1,59
 848 1387 848 1387 854.5 1388.5 c 128,-1,60
 861 1390 861 1390 866.5 1391.5 c 128,-1,61
 872 1393 872 1393 873 1393 c 0,62,63
 884 1393 884 1393 902 1390.5 c 128,-1,64
 920 1388 920 1388 925 1384 c 1,65,-1
 961 1384 l 1,66,67
 960 1383 960 1383 962.5 1382 c 128,-1,68
 965 1381 965 1381 968 1380 c 2,69,-1
 976 1378 l 1,70,-1
 994 1384 l 1,71,72
 1022 1384 1022 1384 1034.5 1360 c 128,-1,73
 1047 1336 1047 1336 1048.5 1296.5 c 128,-1,74
 1050 1257 1050 1257 1042.5 1206.5 c 128,-1,75
 1035 1156 1035 1156 1023 1102 c 1,76,-1
 969 958 l 2,77,78
 959 931 959 931 949.5 905 c 128,-1,79
 940 879 940 879 932.5 858.5 c 128,-1,80
 925 838 925 838 920.5 825 c 128,-1,81
 916 812 916 812 916 811 c 256,82,83
 916 810 916 810 906 780.5 c 128,-1,84
 896 751 896 751 882 706.5 c 128,-1,85
 868 662 868 662 851.5 611 c 128,-1,86
 835 560 835 560 821 515.5 c 128,-1,87
 807 471 807 471 797 440.5 c 128,-1,88
 787 410 787 410 787 408 c 0,0,1
EndSplineSet
EndChar

StartChar: zero
Encoding: 48 48 19
Width: 1496
Flags: W
LayerCount: 2
Fore
SplineSet
385 14 m 1,0,1
 362 25 362 25 340 34.5 c 128,-1,2
 318 44 318 44 295 55 c 1,3,4
 282 69 282 69 266.5 78 c 128,-1,5
 251 87 251 87 237 98 c 0,6,7
 206 124 206 124 183.5 161.5 c 128,-1,8
 161 199 161 199 145 242.5 c 128,-1,9
 129 286 129 286 119.5 333 c 128,-1,10
 110 380 110 380 105 425.5 c 128,-1,11
 100 471 100 471 98 512.5 c 128,-1,12
 96 554 96 554 96 586 c 0,13,14
 96 637 96 637 99.5 681.5 c 128,-1,15
 103 726 103 726 110 769 c 128,-1,16
 117 812 117 812 127.5 856 c 128,-1,17
 138 900 138 900 153 950 c 1,18,19
 165 959 165 959 177.5 982 c 128,-1,20
 190 1005 190 1005 201 1029 c 128,-1,21
 212 1053 212 1053 222.5 1071.5 c 128,-1,22
 233 1090 233 1090 241 1090 c 0,23,24
 250 1091 250 1091 262.5 1100 c 128,-1,25
 275 1109 275 1109 288.5 1121 c 128,-1,26
 302 1133 302 1133 316.5 1146 c 128,-1,27
 331 1159 331 1159 344 1167 c 0,28,29
 376 1188 376 1188 412 1199 c 128,-1,30
 448 1210 448 1210 486 1215.5 c 128,-1,31
 524 1221 524 1221 562.5 1223.5 c 128,-1,32
 601 1226 601 1226 639 1231 c 1,33,34
 693 1229 693 1229 748.5 1225 c 128,-1,35
 804 1221 804 1221 857 1215 c 128,-1,36
 910 1209 910 1209 958.5 1200.5 c 128,-1,37
 1007 1192 1007 1192 1046 1182 c 1,38,39
 1044 1183 1044 1183 1066.5 1176.5 c 128,-1,40
 1089 1170 1089 1170 1117.5 1160 c 128,-1,41
 1146 1150 1146 1150 1170 1137 c 128,-1,42
 1194 1124 1194 1124 1194 1112 c 2,43,-1
 1194 1094 l 1,44,45
 1217 1094 1217 1094 1241.5 1073 c 128,-1,46
 1266 1052 1266 1052 1286.5 1022 c 128,-1,47
 1307 992 1307 992 1320 959.5 c 128,-1,48
 1333 927 1333 927 1333 905 c 1,49,50
 1350 905 1350 905 1353 903 c 128,-1,51
 1356 901 1356 901 1356 887 c 1,52,53
 1367 845 1367 845 1377.5 805 c 128,-1,54
 1388 765 1388 765 1399 723 c 0,55,56
 1399 721 1399 721 1400 707 c 128,-1,57
 1401 693 1401 693 1402 672.5 c 128,-1,58
 1403 652 1403 652 1404 627.5 c 128,-1,59
 1405 603 1405 603 1405 580 c 0,60,61
 1405 522 1405 522 1401.5 460 c 128,-1,62
 1398 398 1398 398 1384.5 339 c 128,-1,63
 1371 280 1371 280 1344.5 226.5 c 128,-1,64
 1318 173 1318 173 1272 133 c 0,65,66
 1240 105 1240 105 1203 82.5 c 128,-1,67
 1166 60 1166 60 1132 35 c 1,68,69
 1087 19 1087 19 1043 3 c 128,-1,70
 999 -13 999 -13 954 -29 c 1,71,72
 876 -29 876 -29 795.5 -39 c 128,-1,73
 715 -49 715 -49 635 -49 c 0,74,75
 628 -49 628 -49 607 -46 c 128,-1,76
 586 -43 586 -43 559.5 -38.5 c 128,-1,77
 533 -34 533 -34 503 -27.5 c 128,-1,78
 473 -21 473 -21 447.5 -14 c 128,-1,79
 422 -7 422 -7 404.5 0 c 128,-1,80
 387 7 387 7 385 14 c 1,0,1
676 311 m 1,81,82
 677 303 677 303 687 292 c 128,-1,83
 697 281 697 281 710 271 c 128,-1,84
 723 261 723 261 735 254.5 c 128,-1,85
 747 248 747 248 753 248 c 0,86,87
 791 248 791 248 812 264 c 128,-1,88
 833 280 833 280 843.5 302.5 c 128,-1,89
 854 325 854 325 856.5 350 c 128,-1,90
 859 375 859 375 860 393 c 0,91,92
 861 422 861 422 863 453 c 128,-1,93
 865 484 865 484 866.5 514 c 128,-1,94
 868 544 868 544 869 571 c 128,-1,95
 870 598 870 598 870 621 c 0,96,97
 870 682 870 682 855 738 c 128,-1,98
 840 794 840 794 821 856 c 1,99,100
 818 887 818 887 805.5 910.5 c 128,-1,101
 793 934 793 934 758 934 c 0,102,103
 724 934 724 934 704.5 915 c 128,-1,104
 685 896 685 896 675 868 c 128,-1,105
 665 840 665 840 661.5 809.5 c 128,-1,106
 658 779 658 779 655 756 c 0,107,108
 649 706 649 706 637.5 656 c 128,-1,109
 626 606 626 606 626 555 c 0,110,111
 626 518 626 518 629 487 c 128,-1,112
 632 456 632 456 638.5 427 c 128,-1,113
 645 398 645 398 654.5 370 c 128,-1,114
 664 342 664 342 676 311 c 1,81,82
EndSplineSet
EndChar

StartChar: one
Encoding: 49 49 20
Width: 1092
Flags: W
LayerCount: 2
Fore
SplineSet
974 682 m 1,0,-1
 974 451 l 2,1,2
 974 404 974 404 972.5 362 c 128,-1,3
 971 320 971 320 968.5 280.5 c 128,-1,4
 966 241 966 241 964.5 203 c 128,-1,5
 963 165 963 165 963 125 c 0,6,7
 963 105 963 105 961.5 83 c 128,-1,8
 960 61 960 61 954.5 42.5 c 128,-1,9
 949 24 949 24 938 12 c 128,-1,10
 927 0 927 0 908 0 c 0,11,12
 845 0 845 0 796 0.5 c 128,-1,13
 747 1 747 1 706 1.5 c 128,-1,14
 665 2 665 2 629.5 3 c 128,-1,15
 594 4 594 4 558.5 4.5 c 128,-1,16
 523 5 523 5 484 5.5 c 128,-1,17
 445 6 445 6 398 6 c 0,18,19
 371 6 371 6 350 8.5 c 128,-1,20
 329 11 329 11 315 21.5 c 128,-1,21
 301 32 301 32 293.5 53 c 128,-1,22
 286 74 286 74 286 111 c 0,23,24
 286 114 286 114 287.5 127.5 c 128,-1,25
 289 141 289 141 291 157 c 128,-1,26
 293 173 293 173 294.5 187 c 128,-1,27
 296 201 296 201 296 205 c 0,28,29
 296 211 296 211 294.5 227 c 128,-1,30
 293 243 293 243 291 260.5 c 128,-1,31
 289 278 289 278 287.5 291.5 c 128,-1,32
 286 305 286 305 286 307 c 0,33,34
 285 338 285 338 285 382.5 c 128,-1,35
 285 427 285 427 284.5 475 c 128,-1,36
 284 523 284 523 283.5 570 c 128,-1,37
 283 617 283 617 282.5 654.5 c 128,-1,38
 282 692 282 692 280.5 715.5 c 128,-1,39
 279 739 279 739 277 739 c 0,40,41
 266 739 266 739 251 722 c 128,-1,42
 236 705 236 705 217 684 c 128,-1,43
 198 663 198 663 175 646 c 128,-1,44
 152 629 152 629 126 629 c 0,45,46
 106 629 106 629 90.5 642.5 c 128,-1,47
 75 656 75 656 75 670 c 2,48,-1
 75 1063 l 2,49,50
 75 1068 75 1068 81.5 1073 c 128,-1,51
 88 1078 88 1078 101 1085.5 c 128,-1,52
 114 1093 114 1093 133.5 1104.5 c 128,-1,53
 153 1116 153 1116 179 1133 c 0,54,55
 236 1170 236 1170 266.5 1180 c 128,-1,56
 297 1190 297 1190 312 1190 c 0,57,58
 398 1190 398 1190 472 1189.5 c 128,-1,59
 546 1189 546 1189 617 1188 c 128,-1,60
 688 1187 688 1187 761.5 1186.5 c 128,-1,61
 835 1186 835 1186 920 1186 c 0,62,63
 929 1186 929 1186 939 1181 c 128,-1,64
 949 1176 949 1176 956.5 1168.5 c 128,-1,65
 964 1161 964 1161 969 1151.5 c 128,-1,66
 974 1142 974 1142 974 1133 c 2,67,-1
 974 682 l 1,0,-1
EndSplineSet
EndChar

StartChar: two
Encoding: 50 50 21
Width: 1269
Flags: W
LayerCount: 2
Fore
SplineSet
610 1 m 0,0,1
 565 1 565 1 521.5 0.5 c 128,-1,2
 478 0 478 0 436 0 c 0,3,4
 368 0 368 0 307.5 2 c 128,-1,5
 247 4 247 4 202 10 c 128,-1,6
 157 16 157 16 130.5 28 c 128,-1,7
 104 40 104 40 104 61 c 0,8,9
 104 93 104 93 119 119 c 128,-1,10
 134 145 134 145 157 168 c 1,11,12
 157 165 157 165 172 180.5 c 128,-1,13
 187 196 187 196 211 223.5 c 128,-1,14
 235 251 235 251 265 287.5 c 128,-1,15
 295 324 295 324 324 362 c 128,-1,16
 353 400 353 400 379 437 c 128,-1,17
 405 474 405 474 422 503 c 1,18,19
 434 519 434 519 448.5 544 c 128,-1,20
 463 569 463 569 475.5 597.5 c 128,-1,21
 488 626 488 626 497 655.5 c 128,-1,22
 506 685 506 685 506 711 c 0,23,24
 506 738 506 738 498.5 758 c 128,-1,25
 491 778 491 778 474 790.5 c 128,-1,26
 457 803 457 803 428 809.5 c 128,-1,27
 399 816 399 816 356 816 c 0,28,29
 325 816 325 816 299 812.5 c 128,-1,30
 273 809 273 809 246.5 801.5 c 128,-1,31
 220 794 220 794 191.5 782.5 c 128,-1,32
 163 771 163 771 127 754 c 0,33,34
 125 754 125 754 122.5 777 c 128,-1,35
 120 800 120 800 117 835 c 128,-1,36
 114 870 114 870 111 912 c 128,-1,37
 108 954 108 954 105.5 992.5 c 128,-1,38
 103 1031 103 1031 101.5 1060 c 128,-1,39
 100 1089 100 1089 100 1098 c 0,40,41
 100 1106 100 1106 101 1109 c 1,42,-1
 191 1150 l 1,43,44
 243 1169 243 1169 301 1183 c 128,-1,45
 359 1197 359 1197 418.5 1206 c 128,-1,46
 478 1215 478 1215 537.5 1219.5 c 128,-1,47
 597 1224 597 1224 651 1224 c 0,48,49
 747 1224 747 1224 839 1204 c 128,-1,50
 931 1184 931 1184 1004 1138 c 128,-1,51
 1077 1092 1077 1092 1121.5 1017.5 c 128,-1,52
 1166 943 1166 943 1166 835 c 256,53,54
 1166 727 1166 727 1095 625 c 128,-1,55
 1024 523 1024 523 873 413 c 1,56,57
 919 413 919 413 958 414 c 128,-1,58
 997 415 997 415 1042 415 c 0,59,60
 1062 415 1062 415 1084 413.5 c 128,-1,61
 1106 412 1106 412 1124.5 406.5 c 128,-1,62
 1143 401 1143 401 1155 390 c 128,-1,63
 1167 379 1167 379 1167 360 c 0,64,65
 1167 315 1167 315 1166 284 c 128,-1,66
 1165 253 1165 253 1164 227.5 c 128,-1,67
 1163 202 1163 202 1162 177 c 128,-1,68
 1161 152 1161 152 1161 120 c 0,69,70
 1161 93 1161 93 1158.5 72 c 128,-1,71
 1156 51 1156 51 1146 37 c 128,-1,72
 1136 23 1136 23 1114.5 15.5 c 128,-1,73
 1093 8 1093 8 1056 8 c 1,74,75
 1054 4 1054 4 1028.5 2 c 128,-1,76
 1003 0 1003 0 964 -0.5 c 128,-1,77
 925 -1 925 -1 876 -1 c 128,-1,78
 827 -1 827 -1 778 -0.5 c 128,-1,79
 729 0 729 0 684.5 0.5 c 128,-1,80
 640 1 640 1 610 1 c 0,0,1
EndSplineSet
EndChar

StartChar: three
Encoding: 51 51 22
Width: 1246
Flags: W
LayerCount: 2
Fore
SplineSet
1155 383 m 0,0,1
 1155 293 1155 293 1140 226.5 c 128,-1,2
 1125 160 1125 160 1103.5 115 c 128,-1,3
 1082 70 1082 70 1058.5 45.5 c 128,-1,4
 1035 21 1035 21 1018 14 c 1,5,6
 963 -14 963 -14 903.5 -29 c 128,-1,7
 844 -44 844 -44 782.5 -50.5 c 128,-1,8
 721 -57 721 -57 658 -58 c 128,-1,9
 595 -59 595 -59 534 -59 c 0,10,11
 527 -59 527 -59 506.5 -57 c 128,-1,12
 486 -55 486 -55 460 -51 c 128,-1,13
 434 -47 434 -47 405 -42.5 c 128,-1,14
 376 -38 376 -38 351.5 -32.5 c 128,-1,15
 327 -27 327 -27 309.5 -21.5 c 128,-1,16
 292 -16 292 -16 290 -11 c 1,17,18
 267 -3 267 -3 244.5 2 c 128,-1,19
 222 7 222 7 202 19 c 0,20,21
 188 27 188 27 174 35.5 c 128,-1,22
 160 44 160 44 146 52 c 1,23,-1
 166 333 l 1,24,25
 228 319 228 319 290.5 309 c 128,-1,26
 353 299 353 299 406 299 c 0,27,28
 439 299 439 299 466.5 304.5 c 128,-1,29
 494 310 494 310 514.5 322.5 c 128,-1,30
 535 335 535 335 546 356 c 128,-1,31
 557 377 557 377 557 407 c 0,32,33
 557 449 557 449 521.5 468.5 c 128,-1,34
 486 488 486 488 430 493 c 1,35,36
 387 493 387 493 347 491.5 c 128,-1,37
 307 490 307 490 262 486 c 1,38,-1
 260 708 l 1,39,40
 278 708 278 708 297 707.5 c 128,-1,41
 316 707 316 707 336 707 c 0,42,43
 369 707 369 707 399 710 c 128,-1,44
 429 713 429 713 452.5 723.5 c 128,-1,45
 476 734 476 734 490 754 c 128,-1,46
 504 774 504 774 504 809 c 0,47,48
 504 834 504 834 493 850.5 c 128,-1,49
 482 867 482 867 461.5 877.5 c 128,-1,50
 441 888 441 888 413.5 892.5 c 128,-1,51
 386 897 386 897 353 897 c 0,52,53
 300 897 300 897 237.5 878.5 c 128,-1,54
 175 860 175 860 113 833 c 1,55,-1
 93 1124 l 1,56,57
 141 1146 141 1146 200.5 1164.5 c 128,-1,58
 260 1183 260 1183 326 1196 c 128,-1,59
 392 1209 392 1209 462.5 1216.5 c 128,-1,60
 533 1224 533 1224 604 1224 c 1,61,62
 639 1222 639 1222 675.5 1219.5 c 128,-1,63
 712 1217 712 1217 747 1212.5 c 128,-1,64
 782 1208 782 1208 813.5 1202 c 128,-1,65
 845 1196 845 1196 871 1189 c 1,66,67
 869 1190 869 1190 884 1185.5 c 128,-1,68
 899 1181 899 1181 918 1174 c 128,-1,69
 937 1167 937 1167 952.5 1158 c 128,-1,70
 968 1149 968 1149 968 1140 c 2,71,-1
 968 1127 l 1,72,73
 989 1127 989 1127 1006 1108.5 c 128,-1,74
 1023 1090 1023 1090 1036.5 1065.5 c 128,-1,75
 1050 1041 1050 1041 1060 1017 c 128,-1,76
 1070 993 1070 993 1075 982 c 0,77,78
 1088 954 1088 954 1091.5 924.5 c 128,-1,79
 1095 895 1095 895 1103 866 c 1,80,81
 1103 837 1103 837 1095.5 805.5 c 128,-1,82
 1088 774 1088 774 1073.5 744.5 c 128,-1,83
 1059 715 1059 715 1038 689 c 128,-1,84
 1017 663 1017 663 991 646 c 1,85,86
 1068 601 1068 601 1111.5 535.5 c 128,-1,87
 1155 470 1155 470 1155 383 c 0,0,1
EndSplineSet
EndChar

StartChar: four
Encoding: 52 52 23
Width: 1490
Flags: W
LayerCount: 2
Fore
SplineSet
440 1266 m 1,0,1
 462 1266 462 1266 496.5 1265.5 c 128,-1,2
 531 1265 531 1265 567.5 1264 c 128,-1,3
 604 1263 604 1263 637 1262 c 128,-1,4
 670 1261 670 1261 688 1260 c 1,5,6
 700 1267 700 1267 722.5 1268.5 c 128,-1,7
 745 1270 745 1270 758 1270 c 0,8,9
 800 1270 800 1270 839.5 1267 c 128,-1,10
 879 1264 879 1264 924 1264 c 1,11,12
 926 1266 926 1266 928 1266 c 128,-1,13
 930 1266 930 1266 932 1268 c 1,14,-1
 1010 1268 l 1,15,16
 1012 1266 1012 1266 1016 1265 c 128,-1,17
 1020 1264 1020 1264 1022 1264 c 256,18,19
 1024 1264 1024 1264 1028 1264.5 c 128,-1,20
 1032 1265 1032 1265 1037 1266 c 256,21,22
 1042 1267 1042 1267 1050 1268 c 0,23,24
 1055 1268 1055 1268 1064 1266 c 128,-1,25
 1073 1264 1073 1264 1075 1264 c 0,26,27
 1085 1265 1085 1265 1100 1264.5 c 128,-1,28
 1115 1264 1115 1264 1130.5 1263.5 c 128,-1,29
 1146 1263 1146 1263 1161 1262.5 c 128,-1,30
 1176 1262 1176 1262 1186 1262 c 0,31,32
 1206 1262 1206 1262 1209 1232.5 c 128,-1,33
 1212 1203 1212 1203 1209 1157 c 128,-1,34
 1206 1111 1206 1111 1203.5 1055 c 128,-1,35
 1201 999 1201 999 1210 946 c 0,36,37
 1211 944 1211 944 1209.5 918.5 c 128,-1,38
 1208 893 1208 893 1206 841 c 128,-1,39
 1204 789 1204 789 1202 710 c 128,-1,40
 1200 631 1200 631 1200 522 c 2,41,-1
 1200 485 l 1,42,-1
 1345 485 l 2,43,44
 1372 485 1372 485 1386.5 461 c 128,-1,45
 1401 437 1401 437 1408 404 c 128,-1,46
 1415 371 1415 371 1416 336 c 128,-1,47
 1417 301 1417 301 1417 279 c 0,48,49
 1417 272 1417 272 1416 250 c 128,-1,50
 1415 228 1415 228 1414 204.5 c 128,-1,51
 1413 181 1413 181 1412 162.5 c 128,-1,52
 1411 144 1411 144 1411 143 c 0,53,54
 1406 136 1406 136 1395 132.5 c 128,-1,55
 1384 129 1384 129 1370.5 127.5 c 128,-1,56
 1357 126 1357 126 1343 125.5 c 128,-1,57
 1329 125 1329 125 1319 125 c 0,58,59
 1288 125 1288 125 1257.5 125 c 128,-1,60
 1227 125 1227 125 1196 123 c 1,61,-1
 1192 90 l 1,62,63
 1189 50 1189 50 1189.5 17.5 c 128,-1,64
 1190 -15 1190 -15 1187.5 -38.5 c 128,-1,65
 1185 -62 1185 -62 1175.5 -75 c 128,-1,66
 1166 -88 1166 -88 1143 -88 c 0,67,68
 1141 -88 1141 -88 1139.5 -86 c 128,-1,69
 1138 -84 1138 -84 1136 -84 c 0,70,71
 1133 -84 1133 -84 1129 -85 c 128,-1,72
 1125 -86 1125 -86 1121 -87 c 0,73,74
 1117 -89 1117 -89 1112 -90 c 1,75,76
 1097 -90 1097 -90 1087 -89 c 128,-1,77
 1077 -88 1077 -88 1070.5 -87 c 128,-1,78
 1064 -86 1064 -86 1058.5 -85 c 128,-1,79
 1053 -84 1053 -84 1046 -84 c 0,80,81
 1044 -84 1044 -84 1040 -86 c 128,-1,82
 1036 -88 1036 -88 1034 -90 c 1,83,-1
 901 -90 l 2,84,85
 899 -90 899 -90 886 -93 c 128,-1,86
 873 -96 873 -96 856.5 -99.5 c 128,-1,87
 840 -103 840 -103 825 -106 c 128,-1,88
 810 -109 810 -109 805 -109 c 0,89,90
 786 -109 786 -109 777 -90 c 128,-1,91
 768 -71 768 -71 764 -46 c 128,-1,92
 760 -21 760 -21 759.5 3.5 c 128,-1,93
 759 28 759 28 758 39 c 2,94,-1
 754 115 l 1,95,-1
 745 115 l 2,96,97
 671 115 671 115 600.5 115 c 128,-1,98
 530 115 530 115 458.5 114.5 c 128,-1,99
 387 114 387 114 313 112.5 c 128,-1,100
 239 111 239 111 160 109 c 1,101,102
 130 110 130 110 111.5 115 c 128,-1,103
 93 120 93 120 83.5 126 c 128,-1,104
 74 132 74 132 70.5 138.5 c 128,-1,105
 67 145 67 145 67 150 c 0,106,107
 67 216 67 216 67 258.5 c 128,-1,108
 67 301 67 301 69 332.5 c 128,-1,109
 71 364 71 364 75 391 c 128,-1,110
 79 418 79 418 87.5 451.5 c 128,-1,111
 96 485 96 485 109.5 531.5 c 128,-1,112
 123 578 123 578 143 649 c 1,113,114
 142 648 142 648 154.5 679 c 128,-1,115
 167 710 167 710 188 760.5 c 128,-1,116
 209 811 209 811 236 875 c 128,-1,117
 263 939 263 939 292 1005 c 128,-1,118
 321 1071 321 1071 350.5 1132.5 c 128,-1,119
 380 1194 380 1194 405 1239 c 1,120,121
 412 1245 412 1245 421.5 1252 c 128,-1,122
 431 1259 431 1259 440 1266 c 1,0,1
536 489 m 1,123,124
 583 489 583 489 632.5 488 c 128,-1,125
 682 487 682 487 733 487 c 1,126,-1
 733 518 l 1,127,-1
 733 1026 l 1,128,129
 718 985 718 985 700.5 936.5 c 128,-1,130
 683 888 683 888 664.5 837.5 c 128,-1,131
 646 787 646 787 627.5 736 c 128,-1,132
 609 685 609 685 592 639 c 128,-1,133
 575 593 575 593 560.5 554.5 c 128,-1,134
 546 516 546 516 536 489 c 1,123,124
EndSplineSet
EndChar

StartChar: five
Encoding: 53 53 24
Width: 1205
Flags: W
LayerCount: 2
Fore
SplineSet
1109 403 m 0,0,1
 1109 308 1109 308 1094 237.5 c 128,-1,2
 1079 167 1079 167 1057.5 120 c 128,-1,3
 1036 73 1036 73 1012.5 47 c 128,-1,4
 989 21 989 21 972 14 c 1,5,6
 917 -14 917 -14 857.5 -29 c 128,-1,7
 798 -44 798 -44 736.5 -50.5 c 128,-1,8
 675 -57 675 -57 612 -58 c 128,-1,9
 549 -59 549 -59 488 -59 c 0,10,11
 481 -59 481 -59 460.5 -57 c 128,-1,12
 440 -55 440 -55 414 -51 c 128,-1,13
 388 -47 388 -47 359 -42.5 c 128,-1,14
 330 -38 330 -38 305.5 -32.5 c 128,-1,15
 281 -27 281 -27 263.5 -21.5 c 128,-1,16
 246 -16 246 -16 244 -11 c 1,17,18
 221 -3 221 -3 198.5 2 c 128,-1,19
 176 7 176 7 156 19 c 2,20,-1
 100 52 l 1,21,-1
 113 121 l 1,22,-1
 110 194 l 1,23,-1
 114 251 l 1,24,-1
 120 333 l 1,25,26
 182 319 182 319 244.5 309 c 128,-1,27
 307 299 307 299 360 299 c 0,28,29
 393 299 393 299 420.5 304.5 c 128,-1,30
 448 310 448 310 468.5 322.5 c 128,-1,31
 489 335 489 335 500 356 c 128,-1,32
 511 377 511 377 511 407 c 0,33,34
 511 449 511 449 475.5 468.5 c 128,-1,35
 440 488 440 488 384 493 c 1,36,37
 330 493 330 493 278 491.5 c 128,-1,38
 226 490 226 490 166 486 c 1,39,-1
 159 568 l 1,40,-1
 161 602 l 2,41,42
 162 627 162 627 162 646 c 0,43,44
 162 663 162 663 162 676 c 128,-1,45
 162 689 162 689 163 690 c 1,46,-1
 162 741 l 2,47,48
 162 749 162 749 157 780 c 128,-1,49
 152 811 152 811 152 877 c 2,50,-1
 152 1171 l 2,51,52
 152 1174 152 1174 157 1181.5 c 128,-1,53
 162 1189 162 1189 167 1192 c 1,54,55
 172 1192 172 1192 175 1191 c 128,-1,56
 178 1190 178 1190 183 1190 c 0,57,58
 208 1190 208 1190 230.5 1195 c 128,-1,59
 253 1200 253 1200 279 1200 c 0,60,61
 318 1200 318 1200 357 1196 c 128,-1,62
 396 1192 396 1192 439 1192 c 1,63,-1
 447 1198 l 1,64,-1
 537 1198 l 1,65,66
 539 1196 539 1196 544.5 1194 c 128,-1,67
 550 1192 550 1192 552 1192 c 0,68,69
 553 1192 553 1192 558.5 1193 c 128,-1,70
 564 1194 564 1194 570 1195 c 128,-1,71
 576 1196 576 1196 581 1197 c 128,-1,72
 586 1198 586 1198 587 1198 c 0,73,74
 592 1198 592 1198 602 1196 c 128,-1,75
 612 1194 612 1194 615 1192 c 1,76,-1
 938 1192 l 1,77,78
 940 1190 940 1190 945.5 1188 c 128,-1,79
 951 1186 951 1186 953 1186 c 256,80,81
 955 1186 955 1186 963 1187 c 128,-1,82
 971 1188 971 1188 980 1189 c 128,-1,83
 989 1190 989 1190 997 1191 c 128,-1,84
 1005 1192 1005 1192 1007 1192 c 0,85,86
 1020 1192 1020 1192 1028.5 1170 c 128,-1,87
 1037 1148 1037 1148 1042.5 1112 c 128,-1,88
 1048 1076 1048 1076 1050.5 1030 c 128,-1,89
 1053 984 1053 984 1053 936 c 0,90,91
 1053 924 1053 924 1042.5 919 c 128,-1,92
 1032 914 1032 914 1017.5 912 c 128,-1,93
 1003 910 1003 910 987 910.5 c 128,-1,94
 971 911 971 911 961 911 c 2,95,-1
 939 911 l 2,96,97
 919 911 919 911 907.5 909.5 c 128,-1,98
 896 908 896 908 885.5 906.5 c 128,-1,99
 875 905 875 905 861.5 904 c 128,-1,100
 848 903 848 903 826 903 c 0,101,102
 806 903 806 903 786.5 903 c 128,-1,103
 767 903 767 903 761 905 c 1,104,-1
 747 897 l 1,105,106
 747 889 747 889 739 857.5 c 128,-1,107
 731 826 731 826 727 760 c 1,108,109
 770 755 770 755 809.5 748.5 c 128,-1,110
 849 742 849 742 880 733 c 1,111,112
 878 734 878 734 893 729.5 c 128,-1,113
 908 725 908 725 927 718 c 128,-1,114
 946 711 946 711 961.5 702 c 128,-1,115
 977 693 977 693 977 684 c 2,116,-1
 977 671 l 1,117,118
 998 671 998 671 1015 652.5 c 128,-1,119
 1032 634 1032 634 1045.5 609.5 c 128,-1,120
 1059 585 1059 585 1069 561 c 128,-1,121
 1079 537 1079 537 1084 526 c 0,122,123
 1090 514 1090 514 1095 498.5 c 128,-1,124
 1100 483 1100 483 1103 466 c 128,-1,125
 1106 449 1106 449 1107.5 432.5 c 128,-1,126
 1109 416 1109 416 1109 403 c 0,0,1
EndSplineSet
EndChar

StartChar: six
Encoding: 54 54 25
Width: 1476
Flags: W
LayerCount: 2
Fore
SplineSet
717 745 m 1,0,1
 782 767 782 767 843.5 777 c 128,-1,2
 905 787 905 787 963 787 c 0,3,4
 1036 787 1036 787 1100.5 771.5 c 128,-1,5
 1165 756 1165 756 1217 724 c 1,6,7
 1297 678 1297 678 1343.5 600 c 128,-1,8
 1390 522 1390 522 1390 414 c 256,9,10
 1390 306 1390 306 1339.5 224 c 128,-1,11
 1289 142 1289 142 1204.5 87.5 c 128,-1,12
 1120 33 1120 33 1010.5 5.5 c 128,-1,13
 901 -22 901 -22 783 -22 c 0,14,15
 698 -22 698 -22 613.5 -5 c 128,-1,16
 529 12 529 12 451.5 47 c 128,-1,17
 374 82 374 82 307 134 c 128,-1,18
 240 186 240 186 190.5 256 c 128,-1,19
 141 326 141 326 113 414 c 128,-1,20
 85 502 85 502 85 608 c 0,21,22
 85 687 85 687 92 758.5 c 128,-1,23
 99 830 99 830 124 893 c 0,24,25
 152 965 152 965 199.5 1027.5 c 128,-1,26
 247 1090 247 1090 301 1139 c 1,27,28
 404 1206 404 1206 539.5 1241 c 128,-1,29
 675 1276 675 1276 840 1276 c 0,30,31
 908 1276 908 1276 976.5 1265.5 c 128,-1,32
 1045 1255 1045 1255 1119 1234 c 1,33,34
 1151 1222 1151 1222 1185 1209.5 c 128,-1,35
 1219 1197 1219 1197 1248 1174 c 0,36,37
 1256 1168 1256 1168 1268 1163 c 128,-1,38
 1280 1158 1280 1158 1287.5 1143.5 c 128,-1,39
 1295 1129 1295 1129 1292.5 1098.5 c 128,-1,40
 1290 1068 1290 1068 1269 1010 c 1,41,42
 1251 968 1251 968 1240 941 c 128,-1,43
 1229 914 1229 914 1216.5 899 c 128,-1,44
 1204 884 1204 884 1186.5 881 c 128,-1,45
 1169 878 1169 878 1139 885 c 1,46,47
 1101 897 1101 897 1056 905.5 c 128,-1,48
 1011 914 1011 914 965 914 c 0,49,50
 904 914 904 914 862 904.5 c 128,-1,51
 820 895 820 895 793 880 c 128,-1,52
 766 865 766 865 751 846.5 c 128,-1,53
 736 828 736 828 729 809 c 128,-1,54
 722 790 722 790 720 773 c 128,-1,55
 718 756 718 756 717 745 c 1,0,1
874 308 m 0,56,57
 920 308 920 308 950.5 331 c 128,-1,58
 981 354 981 354 981 407 c 0,59,60
 981 451 981 451 953.5 467.5 c 128,-1,61
 926 484 926 484 887 484 c 0,62,63
 858 484 858 484 830 478.5 c 128,-1,64
 802 473 802 473 780 467 c 0,65,66
 754 460 754 460 731 451 c 1,67,68
 751 373 751 373 788.5 340.5 c 128,-1,69
 826 308 826 308 874 308 c 0,56,57
EndSplineSet
EndChar

StartChar: seven
Encoding: 55 55 26
Width: 1226
Flags: W
LayerCount: 2
Fore
SplineSet
479 707 m 1,0,1
 424 708 424 708 379 709.5 c 128,-1,2
 334 711 334 711 295 711.5 c 128,-1,3
 256 712 256 712 221 712.5 c 128,-1,4
 186 713 186 713 151 713 c 0,5,6
 122 713 122 713 106.5 746.5 c 128,-1,7
 91 780 91 780 83.5 827 c 128,-1,8
 76 874 76 874 75 923 c 128,-1,9
 74 972 74 972 74 1004 c 0,10,11
 74 1011 74 1011 75 1034.5 c 128,-1,12
 76 1058 76 1058 77 1083 c 128,-1,13
 78 1108 78 1108 79 1128 c 128,-1,14
 80 1148 80 1148 80 1149 c 0,15,16
 85 1156 85 1156 97.5 1160.5 c 128,-1,17
 110 1165 110 1165 124.5 1166.5 c 128,-1,18
 139 1168 139 1168 154 1168.5 c 128,-1,19
 169 1169 169 1169 180 1169 c 0,20,21
 242 1169 242 1169 299 1175.5 c 128,-1,22
 356 1182 356 1182 418 1182 c 0,23,24
 579 1182 579 1182 736 1182.5 c 128,-1,25
 893 1183 893 1183 1061 1188 c 1,26,27
 1092 1186 1092 1186 1112 1180.5 c 128,-1,28
 1132 1175 1132 1175 1142.5 1168.5 c 128,-1,29
 1153 1162 1153 1162 1157 1155 c 128,-1,30
 1161 1148 1161 1148 1161 1143 c 2,31,-1
 1161 815 l 2,32,33
 1161 787 1161 787 1149.5 755.5 c 128,-1,34
 1138 724 1138 724 1116.5 680 c 128,-1,35
 1095 636 1095 636 1064.5 575.5 c 128,-1,36
 1034 515 1034 515 995 430 c 0,37,38
 990 418 990 418 979.5 390.5 c 128,-1,39
 969 363 969 363 949 316.5 c 128,-1,40
 929 270 929 270 897 203.5 c 128,-1,41
 865 137 865 137 817 49 c 2,42,-1
 766 -45 l 2,43,44
 755 -65 755 -65 741 -87 c 0,45,46
 729 -106 729 -106 710.5 -130.5 c 128,-1,47
 692 -155 692 -155 668 -180 c 0,48,49
 661 -186 661 -186 650 -191.5 c 128,-1,50
 639 -197 639 -197 627 -197 c 0,51,52
 597 -197 597 -197 553 -180 c 128,-1,53
 509 -163 509 -163 461 -136.5 c 128,-1,54
 413 -110 413 -110 365 -77.5 c 128,-1,55
 317 -45 317 -45 279 -13 c 128,-1,56
 241 19 241 19 217.5 47 c 128,-1,57
 194 75 194 75 194 92 c 0,58,59
 194 96 194 96 205 121 c 128,-1,60
 216 146 216 146 234 185 c 128,-1,61
 252 224 252 224 275.5 273.5 c 128,-1,62
 299 323 299 323 324 376 c 128,-1,63
 349 429 349 429 374 481 c 128,-1,64
 399 533 399 533 420.5 578 c 128,-1,65
 442 623 442 623 457.5 657 c 128,-1,66
 473 691 473 691 479 707 c 1,0,1
EndSplineSet
EndChar

StartChar: eight
Encoding: 56 56 27
Width: 1520
Flags: W
LayerCount: 2
Fore
SplineSet
99 383 m 0,0,1
 99 426 99 426 103.5 464 c 128,-1,2
 108 502 108 502 121 535 c 128,-1,3
 134 568 134 568 158 595.5 c 128,-1,4
 182 623 182 623 220 646 c 1,5,6
 194 663 194 663 173 689 c 128,-1,7
 152 715 152 715 137.5 744.5 c 128,-1,8
 123 774 123 774 115.5 805.5 c 128,-1,9
 108 837 108 837 108 866 c 0,10,11
 108 923 108 923 124.5 974 c 128,-1,12
 141 1025 141 1025 172 1068 c 0,13,14
 185 1085 185 1085 199.5 1095 c 128,-1,15
 214 1105 214 1105 231 1119 c 0,16,17
 249 1133 249 1133 271 1149 c 128,-1,18
 293 1165 293 1165 315 1174 c 1,19,20
 370 1202 370 1202 432 1215 c 128,-1,21
 494 1228 494 1228 559.5 1231.5 c 128,-1,22
 625 1235 625 1235 692 1233.5 c 128,-1,23
 759 1232 759 1232 823 1232 c 0,24,25
 863 1232 863 1232 906.5 1229 c 128,-1,26
 950 1226 950 1226 991 1219 c 128,-1,27
 1032 1212 1032 1212 1070 1200.5 c 128,-1,28
 1108 1189 1108 1189 1138 1171 c 1,29,30
 1210 1143 1210 1143 1257 1107.5 c 128,-1,31
 1304 1072 1304 1072 1323 1043 c 1,32,33
 1345 1004 1345 1004 1358 958.5 c 128,-1,34
 1371 913 1371 913 1371 870 c 0,35,36
 1371 841 1371 841 1364.5 809 c 128,-1,37
 1358 777 1358 777 1345 746.5 c 128,-1,38
 1332 716 1332 716 1312 689.5 c 128,-1,39
 1292 663 1292 663 1266 646 c 1,40,41
 1343 601 1343 601 1386.5 535.5 c 128,-1,42
 1430 470 1430 470 1430 383 c 0,43,44
 1430 321 1430 321 1416 268 c 0,45,46
 1398 201 1398 201 1359 153.5 c 128,-1,47
 1320 106 1320 106 1266 73 c 0,48,49
 1237 55 1237 55 1204 41.5 c 128,-1,50
 1171 28 1171 28 1134 17 c 0,51,52
 1120 13 1120 13 1105.5 9.5 c 128,-1,53
 1091 6 1091 6 1076 3 c 0,54,55
 1056 -2 1056 -2 1035 -2 c 128,-1,56
 1014 -2 1014 -2 992 -5 c 0,57,58
 972 -7 972 -7 951.5 -11.5 c 128,-1,59
 931 -16 931 -16 911 -18 c 0,60,61
 879 -20 879 -20 846 -21 c 128,-1,62
 813 -22 813 -22 779 -22 c 0,63,64
 724 -22 724 -22 670 -19 c 128,-1,65
 616 -16 616 -16 562 -9 c 0,66,67
 474 2 474 2 399.5 25 c 128,-1,68
 325 48 325 48 260 86 c 0,69,70
 249 92 249 92 233 98.5 c 128,-1,71
 217 105 217 105 208 112 c 1,72,73
 172 135 172 135 150 163.5 c 128,-1,74
 128 192 128 192 117 225.5 c 128,-1,75
 106 259 106 259 102.5 298.5 c 128,-1,76
 99 338 99 338 99 383 c 0,0,1
741 546 m 2,77,78
 717 546 717 546 700.5 511 c 128,-1,79
 684 476 684 476 684 397 c 0,80,81
 684 329 684 329 691 289 c 128,-1,82
 698 249 698 249 710 229 c 128,-1,83
 722 209 722 209 738.5 203.5 c 128,-1,84
 755 198 755 198 774 198 c 0,85,86
 790 198 790 198 804.5 204 c 128,-1,87
 819 210 819 210 829.5 230 c 128,-1,88
 840 250 840 250 846 289.5 c 128,-1,89
 852 329 852 329 852 397 c 0,90,91
 852 476 852 476 830.5 511 c 128,-1,92
 809 546 809 546 775 546 c 2,93,-1
 741 546 l 2,77,78
743 1007 m 1,94,95
 732 1006 732 1006 717 1003.5 c 128,-1,96
 702 1001 702 1001 688.5 986 c 128,-1,97
 675 971 675 971 666 939 c 128,-1,98
 657 907 657 907 657 849 c 0,99,100
 657 801 657 801 664 773 c 128,-1,101
 671 745 671 745 683 730 c 128,-1,102
 695 715 695 715 711 711 c 128,-1,103
 727 707 727 707 745 707 c 0,104,105
 764 707 764 707 780 712.5 c 128,-1,106
 796 718 796 718 806.5 734 c 128,-1,107
 817 750 817 750 823 777.5 c 128,-1,108
 829 805 829 805 829 849 c 0,109,110
 829 903 829 903 821 933.5 c 128,-1,111
 813 964 813 964 800.5 980 c 128,-1,112
 788 996 788 996 773 1000.5 c 128,-1,113
 758 1005 758 1005 743 1007 c 1,94,95
EndSplineSet
EndChar

StartChar: nine
Encoding: 57 57 28
Width: 1476
Flags: W
LayerCount: 2
Fore
SplineSet
759 509 m 1,0,1
 694 487 694 487 632.5 477 c 128,-1,2
 571 467 571 467 513 467 c 0,3,4
 440 467 440 467 375.5 482.5 c 128,-1,5
 311 498 311 498 259 530 c 1,6,7
 179 576 179 576 132.5 654 c 128,-1,8
 86 732 86 732 86 840 c 256,9,10
 86 948 86 948 136.5 1030 c 128,-1,11
 187 1112 187 1112 271.5 1166.5 c 128,-1,12
 356 1221 356 1221 465.5 1248.5 c 128,-1,13
 575 1276 575 1276 693 1276 c 0,14,15
 778 1276 778 1276 862.5 1259 c 128,-1,16
 947 1242 947 1242 1024.5 1207 c 128,-1,17
 1102 1172 1102 1172 1169 1120 c 128,-1,18
 1236 1068 1236 1068 1285.5 998 c 128,-1,19
 1335 928 1335 928 1363 840 c 128,-1,20
 1391 752 1391 752 1391 646 c 0,21,22
 1391 567 1391 567 1384 495.5 c 128,-1,23
 1377 424 1377 424 1352 361 c 0,24,25
 1324 289 1324 289 1276.5 226.5 c 128,-1,26
 1229 164 1229 164 1175 115 c 1,27,28
 1072 48 1072 48 936.5 13 c 128,-1,29
 801 -22 801 -22 636 -22 c 0,30,31
 568 -22 568 -22 499.5 -11.5 c 128,-1,32
 431 -1 431 -1 357 20 c 1,33,34
 325 32 325 32 291 44.5 c 128,-1,35
 257 57 257 57 228 80 c 0,36,37
 220 86 220 86 208 91 c 128,-1,38
 196 96 196 96 188.5 110.5 c 128,-1,39
 181 125 181 125 183.5 155.5 c 128,-1,40
 186 186 186 186 207 244 c 1,41,42
 225 286 225 286 236 313 c 128,-1,43
 247 340 247 340 259.5 355 c 128,-1,44
 272 370 272 370 289.5 373 c 128,-1,45
 307 376 307 376 337 369 c 1,46,47
 375 357 375 357 420 348.5 c 128,-1,48
 465 340 465 340 511 340 c 0,49,50
 572 340 572 340 614 349.5 c 128,-1,51
 656 359 656 359 683 374 c 128,-1,52
 710 389 710 389 725 407.5 c 128,-1,53
 740 426 740 426 747 445 c 128,-1,54
 754 464 754 464 756 481 c 128,-1,55
 758 498 758 498 759 509 c 1,0,1
602 946 m 0,56,57
 556 946 556 946 525.5 923 c 128,-1,58
 495 900 495 900 495 847 c 0,59,60
 495 825 495 825 502.5 810.5 c 128,-1,61
 510 796 510 796 522.5 787 c 128,-1,62
 535 778 535 778 552 774 c 128,-1,63
 569 770 569 770 589 770 c 0,64,65
 618 770 618 770 646 775 c 128,-1,66
 674 780 674 780 696 786 c 0,67,68
 722 793 722 793 745 803 c 1,69,70
 725 881 725 881 687.5 913.5 c 128,-1,71
 650 946 650 946 602 946 c 0,56,57
EndSplineSet
EndChar

StartChar: colon
Encoding: 58 58 29
Width: 784
Flags: W
LayerCount: 2
Fore
SplineSet
669 664 m 1,0,1
 672 648 672 648 660 641.5 c 128,-1,2
 648 635 648 635 628.5 634 c 128,-1,3
 609 633 609 633 584.5 635 c 128,-1,4
 560 637 560 637 538 637 c 0,5,6
 532 637 532 637 519 636.5 c 128,-1,7
 506 636 506 636 491 635.5 c 128,-1,8
 476 635 476 635 463 634.5 c 128,-1,9
 450 634 450 634 445 635 c 0,10,11
 379 636 379 636 331.5 637 c 128,-1,12
 284 638 284 638 243 637 c 0,13,14
 229 636 229 636 210 634 c 128,-1,15
 191 632 191 632 173 633.5 c 128,-1,16
 155 635 155 635 142 641.5 c 128,-1,17
 129 648 129 648 128 664 c 0,18,19
 124 696 124 696 122.5 751.5 c 128,-1,20
 121 807 121 807 119.5 867 c 128,-1,21
 118 927 118 927 115.5 982.5 c 128,-1,22
 113 1038 113 1038 108 1071 c 1,23,-1
 120 1085 l 1,24,-1
 185 1100 l 1,25,-1
 306 1100 l 2,26,27
 326 1100 326 1100 343.5 1103 c 128,-1,28
 361 1106 361 1106 378 1106 c 2,29,-1
 427 1106 l 1,30,-1
 441 1100 l 1,31,32
 448 1103 448 1103 460.5 1102.5 c 128,-1,33
 473 1102 473 1102 482 1104 c 1,34,35
 489 1101 489 1101 496 1100.5 c 128,-1,36
 503 1100 503 1100 509 1098 c 1,37,-1
 558 1092 l 1,38,-1
 572 1087 l 1,39,40
 576 1087 576 1087 580 1088.5 c 128,-1,41
 584 1090 584 1090 587 1090 c 0,42,43
 605 1084 605 1084 616.5 1079 c 128,-1,44
 628 1074 628 1074 634.5 1068 c 128,-1,45
 641 1062 641 1062 643.5 1053.5 c 128,-1,46
 646 1045 646 1045 646 1030 c 1,47,48
 654 1022 654 1022 658 994.5 c 128,-1,49
 662 967 662 967 664 933 c 128,-1,50
 666 899 666 899 666.5 866.5 c 128,-1,51
 667 834 667 834 667 817 c 1,52,53
 672 773 672 773 672 754.5 c 128,-1,54
 672 736 672 736 670.5 725.5 c 128,-1,55
 669 715 669 715 668 704 c 128,-1,56
 667 693 667 693 669 664 c 1,0,1
669 25 m 1,57,58
 672 9 672 9 660 2.5 c 128,-1,59
 648 -4 648 -4 628.5 -5 c 128,-1,60
 609 -6 609 -6 584.5 -4 c 128,-1,61
 560 -2 560 -2 538 -2 c 0,62,63
 532 -2 532 -2 519 -2.5 c 128,-1,64
 506 -3 506 -3 491 -3.5 c 128,-1,65
 476 -4 476 -4 463 -4.5 c 128,-1,66
 450 -5 450 -5 445 -4 c 0,67,68
 379 -3 379 -3 331.5 -2 c 128,-1,69
 284 -1 284 -1 243 -2 c 0,70,71
 229 -3 229 -3 210 -5 c 128,-1,72
 191 -7 191 -7 173 -5.5 c 128,-1,73
 155 -4 155 -4 142 2.5 c 128,-1,74
 129 9 129 9 128 25 c 0,75,76
 124 57 124 57 122.5 112.5 c 128,-1,77
 121 168 121 168 119.5 228 c 128,-1,78
 118 288 118 288 115.5 343.5 c 128,-1,79
 113 399 113 399 108 432 c 1,80,-1
 120 446 l 1,81,-1
 185 461 l 1,82,-1
 306 461 l 2,83,84
 326 461 326 461 343.5 464 c 128,-1,85
 361 467 361 467 378 467 c 2,86,-1
 427 467 l 1,87,-1
 441 461 l 1,88,89
 448 464 448 464 460.5 463.5 c 128,-1,90
 473 463 473 463 482 465 c 1,91,92
 489 462 489 462 496 461.5 c 128,-1,93
 503 461 503 461 509 459 c 1,94,-1
 558 453 l 1,95,-1
 572 449 l 1,96,97
 576 449 576 449 580 450 c 128,-1,98
 584 451 584 451 587 451 c 0,99,100
 605 445 605 445 616.5 440 c 128,-1,101
 628 435 628 435 634.5 429 c 128,-1,102
 641 423 641 423 643.5 414.5 c 128,-1,103
 646 406 646 406 646 391 c 1,104,105
 654 383 654 383 658 355.5 c 128,-1,106
 662 328 662 328 664 294 c 128,-1,107
 666 260 666 260 666.5 227.5 c 128,-1,108
 667 195 667 195 667 178 c 1,109,110
 672 134 672 134 672 115.5 c 128,-1,111
 672 97 672 97 670.5 86.5 c 128,-1,112
 669 76 669 76 668 65 c 128,-1,113
 667 54 667 54 669 25 c 1,57,58
EndSplineSet
EndChar

StartChar: semicolon
Encoding: 59 59 30
Width: 818
Flags: W
LayerCount: 2
Fore
SplineSet
729 104 m 0,0,1
 735 59 735 59 735 4 c 256,2,3
 735 -51 735 -51 727 -112.5 c 128,-1,4
 719 -174 719 -174 698.5 -234.5 c 128,-1,5
 678 -295 678 -295 644 -349.5 c 128,-1,6
 610 -404 610 -404 557.5 -446 c 128,-1,7
 505 -488 505 -488 432.5 -512.5 c 128,-1,8
 360 -537 360 -537 264 -537 c 0,9,10
 253 -537 253 -537 243.5 -537 c 128,-1,11
 234 -537 234 -537 225 -535 c 1,12,13
 224 -525 224 -525 221.5 -511.5 c 128,-1,14
 219 -498 219 -498 215.5 -484.5 c 128,-1,15
 212 -471 212 -471 208.5 -457.5 c 128,-1,16
 205 -444 205 -444 203 -434 c 2,17,-1
 178 -340 l 1,18,19
 176 -338 176 -338 172.5 -331 c 128,-1,20
 169 -324 169 -324 165.5 -316 c 128,-1,21
 162 -308 162 -308 159 -301 c 128,-1,22
 156 -294 156 -294 153 -291 c 1,23,24
 208 -281 208 -281 248 -254 c 128,-1,25
 288 -227 288 -227 314 -196 c 128,-1,26
 340 -165 340 -165 353 -136.5 c 128,-1,27
 366 -108 366 -108 366 -96 c 0,28,29
 366 -91 366 -91 347 -88.5 c 128,-1,30
 328 -86 328 -86 300 -84.5 c 128,-1,31
 272 -83 272 -83 238.5 -81.5 c 128,-1,32
 205 -80 205 -80 176.5 -76.5 c 128,-1,33
 148 -73 148 -73 128.5 -66.5 c 128,-1,34
 109 -60 109 -60 108 -49 c 0,35,36
 104 -17 104 -17 102.5 38.5 c 128,-1,37
 101 94 101 94 99.5 154 c 128,-1,38
 98 214 98 214 95.5 269.5 c 128,-1,39
 93 325 93 325 88 358 c 1,40,-1
 100 373 l 1,41,-1
 207 387 l 1,42,43
 272 387 272 387 332.5 390 c 128,-1,44
 393 393 393 393 448 393 c 1,45,-1
 463 387 l 1,46,47
 471 390 471 390 483.5 389.5 c 128,-1,48
 496 389 496 389 504 391 c 1,49,50
 510 388 510 388 517 387.5 c 128,-1,51
 524 387 524 387 530 385 c 1,52,-1
 620 379 l 1,53,-1
 635 375 l 1,54,55
 640 375 640 375 642 376 c 128,-1,56
 644 377 644 377 649 377 c 1,57,58
 668 371 668 371 679.5 366 c 128,-1,59
 691 361 691 361 697.5 355 c 128,-1,60
 704 349 704 349 706 340.5 c 128,-1,61
 708 332 708 332 708 317 c 0,62,63
 708 309 708 309 710.5 281.5 c 128,-1,64
 713 254 713 254 716.5 220 c 128,-1,65
 720 186 720 186 723.5 153.5 c 128,-1,66
 727 121 727 121 729 104 c 0,0,1
678 664 m 1,67,68
 681 648 681 648 669 641.5 c 128,-1,69
 657 635 657 635 637.5 634 c 128,-1,70
 618 633 618 633 593.5 635 c 128,-1,71
 569 637 569 637 547 637 c 0,72,73
 541 637 541 637 528 636.5 c 128,-1,74
 515 636 515 636 500 635.5 c 128,-1,75
 485 635 485 635 472 634.5 c 128,-1,76
 459 634 459 634 454 635 c 0,77,78
 388 636 388 636 340.5 637 c 128,-1,79
 293 638 293 638 252 637 c 0,80,81
 238 636 238 636 219 634 c 128,-1,82
 200 632 200 632 182 633.5 c 128,-1,83
 164 635 164 635 151 641.5 c 128,-1,84
 138 648 138 648 137 664 c 0,85,86
 133 696 133 696 131.5 751.5 c 128,-1,87
 130 807 130 807 128.5 867 c 128,-1,88
 127 927 127 927 124.5 982.5 c 128,-1,89
 122 1038 122 1038 117 1071 c 1,90,-1
 129 1085 l 1,91,-1
 194 1100 l 1,92,-1
 315 1100 l 2,93,94
 335 1100 335 1100 352.5 1103 c 128,-1,95
 370 1106 370 1106 387 1106 c 2,96,-1
 436 1106 l 1,97,-1
 450 1100 l 1,98,99
 457 1103 457 1103 469.5 1102.5 c 128,-1,100
 482 1102 482 1102 491 1104 c 1,101,102
 498 1101 498 1101 505 1100.5 c 128,-1,103
 512 1100 512 1100 518 1098 c 1,104,-1
 567 1092 l 1,105,-1
 581 1087 l 1,106,107
 585 1087 585 1087 589 1088.5 c 128,-1,108
 593 1090 593 1090 596 1090 c 0,109,110
 614 1084 614 1084 625.5 1079 c 128,-1,111
 637 1074 637 1074 643.5 1068 c 128,-1,112
 650 1062 650 1062 652.5 1053.5 c 128,-1,113
 655 1045 655 1045 655 1030 c 1,114,115
 663 1022 663 1022 667 994.5 c 128,-1,116
 671 967 671 967 673 933 c 128,-1,117
 675 899 675 899 675.5 866.5 c 128,-1,118
 676 834 676 834 676 817 c 1,119,120
 681 773 681 773 681 754.5 c 128,-1,121
 681 736 681 736 679.5 725.5 c 128,-1,122
 678 715 678 715 677 704 c 128,-1,123
 676 693 676 693 678 664 c 1,67,68
EndSplineSet
EndChar

StartChar: less
Encoding: 60 60 31
Width: 1158
Flags: W
LayerCount: 2
Fore
SplineSet
1065 252 m 0,0,1
 1065 234 1065 234 1045.5 204 c 128,-1,2
 1026 174 1026 174 995 138.5 c 128,-1,3
 964 103 964 103 925 66.5 c 128,-1,4
 886 30 886 30 847 0.5 c 128,-1,5
 808 -29 808 -29 772.5 -47.5 c 128,-1,6
 737 -66 737 -66 713 -66 c 0,7,8
 700 -66 700 -66 689 -62 c 128,-1,9
 678 -58 678 -58 672 -53 c 0,10,11
 647 -34 647 -34 628.5 -16 c 128,-1,12
 610 2 610 2 598 16 c 0,13,14
 583 33 583 33 573 47 c 1,15,-1
 502 117 l 1,16,17
 424 178 424 178 370 226.5 c 128,-1,18
 316 275 316 275 281 310.5 c 128,-1,19
 246 346 246 346 226.5 368 c 128,-1,20
 207 390 207 390 199 399 c 1,21,22
 155 458 155 458 123.5 502.5 c 128,-1,23
 92 547 92 547 72 581 c 128,-1,24
 52 615 52 615 42.5 640 c 128,-1,25
 33 665 33 665 33 686 c 0,26,27
 33 706 33 706 45 730 c 128,-1,28
 57 754 57 754 80.5 787.5 c 128,-1,29
 104 821 104 821 139 865.5 c 128,-1,30
 174 910 174 910 219 971 c 1,31,32
 228 979 228 979 249.5 998 c 128,-1,33
 271 1017 271 1017 306 1050.5 c 128,-1,34
 341 1084 341 1084 390 1133.5 c 128,-1,35
 439 1183 439 1183 502 1253 c 1,36,-1
 553 1323 l 1,37,38
 565 1337 565 1337 583 1353 c 0,39,40
 598 1367 598 1367 620.5 1385 c 128,-1,41
 643 1403 643 1403 672 1423 c 0,42,43
 678 1428 678 1428 689 1432 c 128,-1,44
 700 1436 700 1436 713 1436 c 0,45,46
 738 1436 738 1436 775.5 1417.5 c 128,-1,47
 813 1399 813 1399 854.5 1369.5 c 128,-1,48
 896 1340 896 1340 937 1303.5 c 128,-1,49
 978 1267 978 1267 1011 1231.5 c 128,-1,50
 1044 1196 1044 1196 1064.5 1165.5 c 128,-1,51
 1085 1135 1085 1135 1085 1118 c 0,52,53
 1085 1115 1085 1115 1070 1098 c 128,-1,54
 1055 1081 1055 1081 1030.5 1054.5 c 128,-1,55
 1006 1028 1006 1028 974 994.5 c 128,-1,56
 942 961 942 961 907.5 925.5 c 128,-1,57
 873 890 873 890 839 854.5 c 128,-1,58
 805 819 805 819 776.5 789 c 128,-1,59
 748 759 748 759 727 737 c 128,-1,60
 706 715 706 715 698 705 c 1,61,-1
 698 700 l 2,62,63
 698 691 698 691 714 667.5 c 128,-1,64
 730 644 730 644 755.5 611.5 c 128,-1,65
 781 579 781 579 814 540.5 c 128,-1,66
 847 502 847 502 881.5 463 c 128,-1,67
 916 424 916 424 949 387 c 128,-1,68
 982 350 982 350 1007.5 321 c 128,-1,69
 1033 292 1033 292 1049 273.5 c 128,-1,70
 1065 255 1065 255 1065 252 c 0,0,1
EndSplineSet
EndChar

StartChar: equal
Encoding: 61 61 32
Width: 1092
Flags: W
LayerCount: 2
Fore
SplineSet
169 712 m 2,0,1
 160 712 160 712 151.5 711.5 c 128,-1,2
 143 711 143 711 135.5 715 c 128,-1,3
 128 719 128 719 123.5 730.5 c 128,-1,4
 119 742 119 742 119 765 c 0,5,6
 119 796 119 796 118.5 819.5 c 128,-1,7
 118 843 118 843 117.5 865 c 128,-1,8
 117 887 117 887 116.5 910 c 128,-1,9
 116 933 116 933 116 963 c 0,10,11
 116 979 116 979 121.5 994.5 c 128,-1,12
 127 1010 127 1010 132 1010 c 0,13,14
 198 1010 198 1010 260.5 1013.5 c 128,-1,15
 323 1017 323 1017 395 1017 c 2,16,-1
 618 1017 l 2,17,18
 661 1017 661 1017 698 1016 c 128,-1,19
 735 1015 735 1015 770 1013.5 c 128,-1,20
 805 1012 805 1012 841.5 1011 c 128,-1,21
 878 1010 878 1010 919 1010 c 0,22,23
 929 1010 929 1010 939.5 1009 c 128,-1,24
 950 1008 950 1008 959 1003 c 128,-1,25
 968 998 968 998 973.5 988 c 128,-1,26
 979 978 979 978 979 961 c 0,27,28
 979 934 979 934 978 915 c 128,-1,29
 977 896 977 896 975.5 880.5 c 128,-1,30
 974 865 974 865 973 850 c 128,-1,31
 972 835 972 835 972 817 c 0,32,33
 972 769 972 769 967 743.5 c 128,-1,34
 962 718 962 718 935 718 c 1,35,36
 907 716 907 716 882 715 c 1,37,38
 861 713 861 713 840 712.5 c 128,-1,39
 819 712 819 712 810 712 c 2,40,-1
 691 712 l 1,41,-1
 169 712 l 2,0,1
169 275 m 2,42,43
 160 275 160 275 151.5 274.5 c 128,-1,44
 143 274 143 274 135.5 278 c 128,-1,45
 128 282 128 282 123.5 293.5 c 128,-1,46
 119 305 119 305 119 328 c 0,47,48
 119 359 119 359 118.5 382.5 c 128,-1,49
 118 406 118 406 117.5 428 c 128,-1,50
 117 450 117 450 116.5 473 c 128,-1,51
 116 496 116 496 116 526 c 0,52,53
 116 543 116 543 121.5 558.5 c 128,-1,54
 127 574 127 574 132 574 c 0,55,56
 198 574 198 574 260.5 577 c 128,-1,57
 323 580 323 580 395 580 c 2,58,-1
 618 580 l 2,59,60
 661 580 661 580 698 579 c 128,-1,61
 735 578 735 578 770 577 c 128,-1,62
 805 576 805 576 841.5 575 c 128,-1,63
 878 574 878 574 919 574 c 0,64,65
 929 574 929 574 939.5 573 c 128,-1,66
 950 572 950 572 959 567 c 128,-1,67
 968 562 968 562 973.5 552 c 128,-1,68
 979 542 979 542 979 525 c 0,69,70
 979 498 979 498 978 479.5 c 128,-1,71
 977 461 977 461 975.5 445.5 c 128,-1,72
 974 430 974 430 973 415 c 128,-1,73
 972 400 972 400 972 380 c 0,74,75
 972 332 972 332 967 306.5 c 128,-1,76
 962 281 962 281 935 281 c 1,77,78
 907 279 907 279 882 278 c 1,79,80
 861 276 861 276 840 275.5 c 128,-1,81
 819 275 819 275 810 275 c 2,82,-1
 691 275 l 1,83,-1
 169 275 l 2,42,43
EndSplineSet
EndChar

StartChar: greater
Encoding: 62 62 33
Width: 1158
Flags: W
LayerCount: 2
Fore
SplineSet
93 252 m 0,0,1
 93 255 93 255 109 273.5 c 128,-1,2
 125 292 125 292 150.5 321 c 128,-1,3
 176 350 176 350 209 387 c 128,-1,4
 242 424 242 424 276.5 463 c 128,-1,5
 311 502 311 502 344 540.5 c 128,-1,6
 377 579 377 579 402.5 611.5 c 128,-1,7
 428 644 428 644 444 667.5 c 128,-1,8
 460 691 460 691 460 700 c 2,9,-1
 460 705 l 1,10,11
 452 715 452 715 431 737 c 128,-1,12
 410 759 410 759 381.5 789 c 128,-1,13
 353 819 353 819 319 854.5 c 128,-1,14
 285 890 285 890 250.5 925.5 c 128,-1,15
 216 961 216 961 184 994.5 c 128,-1,16
 152 1028 152 1028 127.5 1054.5 c 128,-1,17
 103 1081 103 1081 88 1098 c 128,-1,18
 73 1115 73 1115 73 1118 c 0,19,20
 73 1135 73 1135 93.5 1165.5 c 128,-1,21
 114 1196 114 1196 147 1231.5 c 128,-1,22
 180 1267 180 1267 221 1303.5 c 128,-1,23
 262 1340 262 1340 303.5 1369.5 c 128,-1,24
 345 1399 345 1399 382 1417.5 c 128,-1,25
 419 1436 419 1436 445 1436 c 0,26,27
 458 1436 458 1436 469 1432 c 128,-1,28
 480 1428 480 1428 486 1423 c 0,29,30
 515 1403 515 1403 537.5 1385 c 128,-1,31
 560 1367 560 1367 575 1353 c 0,32,33
 593 1337 593 1337 605 1323 c 1,34,-1
 656 1253 l 1,35,36
 719 1183 719 1183 768 1133.5 c 128,-1,37
 817 1084 817 1084 852 1050.5 c 128,-1,38
 887 1017 887 1017 908.5 998 c 128,-1,39
 930 979 930 979 939 971 c 1,40,41
 984 910 984 910 1019 865.5 c 128,-1,42
 1054 821 1054 821 1077.5 787.5 c 128,-1,43
 1101 754 1101 754 1113 730 c 128,-1,44
 1125 706 1125 706 1125 686 c 0,45,46
 1125 665 1125 665 1115.5 640 c 128,-1,47
 1106 615 1106 615 1086 581 c 128,-1,48
 1066 547 1066 547 1034.5 502.5 c 128,-1,49
 1003 458 1003 458 959 399 c 1,50,51
 951 390 951 390 931.5 368 c 128,-1,52
 912 346 912 346 877 310.5 c 128,-1,53
 842 275 842 275 788 226.5 c 128,-1,54
 734 178 734 178 656 117 c 1,55,-1
 585 47 l 1,56,57
 574 33 574 33 560 16 c 1,58,59
 547 2 547 2 529 -16 c 128,-1,60
 511 -34 511 -34 486 -53 c 0,61,62
 480 -58 480 -58 469 -62 c 128,-1,63
 458 -66 458 -66 445 -66 c 0,64,65
 421 -66 421 -66 385.5 -47.5 c 128,-1,66
 350 -29 350 -29 311 0.5 c 128,-1,67
 272 30 272 30 233 66.5 c 128,-1,68
 194 103 194 103 163 138.5 c 128,-1,69
 132 174 132 174 112.5 204 c 128,-1,70
 93 234 93 234 93 252 c 0,0,1
EndSplineSet
EndChar

StartChar: question
Encoding: 63 63 34
Width: 1135
Flags: W
LayerCount: 2
Fore
SplineSet
602 492 m 2,0,1
 575 492 575 492 545 494 c 128,-1,2
 515 496 515 496 491 496 c 0,3,4
 475 496 475 496 466 492 c 1,5,-1
 262 492 l 2,6,7
 236 492 236 492 221 505.5 c 128,-1,8
 206 519 206 519 198 543.5 c 128,-1,9
 190 568 190 568 187.5 603.5 c 128,-1,10
 185 639 185 639 185 683 c 0,11,12
 185 712 185 712 185.5 742.5 c 128,-1,13
 186 773 186 773 186 796 c 0,14,15
 186 837 186 837 199.5 863.5 c 128,-1,16
 213 890 213 890 236.5 909 c 128,-1,17
 260 928 260 928 290.5 941.5 c 128,-1,18
 321 955 321 955 355.5 970.5 c 128,-1,19
 390 986 390 986 426 1006 c 128,-1,20
 462 1026 462 1026 495 1057 c 1,21,22
 503 1062 503 1062 513 1070.5 c 128,-1,23
 523 1079 523 1079 532 1088.5 c 128,-1,24
 541 1098 541 1098 547 1108.5 c 128,-1,25
 553 1119 553 1119 553 1128 c 0,26,27
 553 1147 553 1147 545.5 1159 c 128,-1,28
 538 1171 538 1171 516.5 1178 c 128,-1,29
 495 1185 495 1185 456 1188 c 128,-1,30
 417 1191 417 1191 355 1191 c 0,31,32
 298 1191 298 1191 237 1185 c 128,-1,33
 176 1179 176 1179 122 1165 c 0,34,35
 120 1164 120 1164 117 1164 c 0,36,37
 107 1164 107 1164 103.5 1174 c 128,-1,38
 100 1184 100 1184 100 1199 c 0,39,40
 100 1217 100 1217 103 1239.5 c 128,-1,41
 106 1262 106 1262 107 1281 c 0,42,43
 110 1362 110 1362 114 1408.5 c 128,-1,44
 118 1455 118 1455 125 1478 c 128,-1,45
 132 1501 132 1501 143 1507 c 128,-1,46
 154 1513 154 1513 171 1514 c 0,47,48
 285 1520 285 1520 399 1520 c 0,49,50
 491 1520 491 1520 578.5 1513.5 c 128,-1,51
 666 1507 666 1507 742.5 1490.5 c 128,-1,52
 819 1474 819 1474 882.5 1445.5 c 128,-1,53
 946 1417 946 1417 992 1373 c 128,-1,54
 1038 1329 1038 1329 1063.5 1267 c 128,-1,55
 1089 1205 1089 1205 1089 1122 c 0,56,57
 1089 1070 1089 1070 1065.5 1028 c 128,-1,58
 1042 986 1042 986 1004.5 951 c 128,-1,59
 967 916 967 916 919 886 c 128,-1,60
 871 856 871 856 822.5 827.5 c 128,-1,61
 774 799 774 799 729 771.5 c 128,-1,62
 684 744 684 744 652 714 c 1,63,-1
 652 684 l 1,64,65
 653 653 653 653 654 624 c 0,66,67
 655 599 655 599 655.5 572.5 c 128,-1,68
 656 546 656 546 656 529 c 256,69,70
 656 512 656 512 651.5 502 c 128,-1,71
 647 492 647 492 633 492 c 2,72,-1
 602 492 l 2,0,1
731 -118 m 0,73,74
 730 -110 730 -110 730 -103 c 128,-1,75
 730 -96 730 -96 730 -91 c 0,76,77
 730 -81 730 -81 731 -74.5 c 128,-1,78
 732 -68 732 -68 732.5 -62.5 c 128,-1,79
 733 -57 733 -57 734 -51 c 128,-1,80
 735 -45 735 -45 735 -35 c 0,81,82
 735 -24 735 -24 733.5 -7.5 c 128,-1,83
 732 9 732 9 729 35 c 1,84,85
 729 52 729 52 728.5 84.5 c 128,-1,86
 728 117 728 117 726.5 151 c 128,-1,87
 725 185 725 185 720.5 212.5 c 128,-1,88
 716 240 716 240 709 248 c 1,89,90
 709 262 709 262 706.5 271 c 128,-1,91
 704 280 704 280 697.5 286 c 128,-1,92
 691 292 691 292 679.5 297 c 128,-1,93
 668 302 668 302 649 308 c 0,94,95
 646 308 646 308 642 306.5 c 128,-1,96
 638 305 638 305 635 305 c 1,97,-1
 621 310 l 1,98,-1
 572 316 l 2,99,100
 565 317 565 317 558 317.5 c 128,-1,101
 551 318 551 318 545 322 c 1,102,103
 536 320 536 320 523 320.5 c 128,-1,104
 510 321 510 321 504 318 c 1,105,-1
 490 324 l 1,106,-1
 441 324 l 2,107,108
 424 324 424 324 406.5 321 c 128,-1,109
 389 318 389 318 369 318 c 2,110,-1
 248 318 l 1,111,-1
 183 303 l 1,112,-1
 170 289 l 1,113,114
 176 256 176 256 178.5 200.5 c 128,-1,115
 181 145 181 145 182.5 85 c 128,-1,116
 184 25 184 25 185.5 -30.5 c 128,-1,117
 187 -86 187 -86 191 -118 c 0,118,119
 193 -137 193 -137 209.5 -143 c 128,-1,120
 226 -149 226 -149 248 -149 c 0,121,122
 282 -149 282 -149 305.5 -146.5 c 128,-1,123
 329 -144 329 -144 356 -144 c 0,124,125
 390 -144 390 -144 429.5 -146 c 128,-1,126
 469 -148 469 -148 521 -148 c 0,127,128
 530 -148 530 -148 541.5 -147.5 c 128,-1,129
 553 -147 553 -147 565 -146.5 c 128,-1,130
 577 -146 577 -146 586.5 -145.5 c 128,-1,131
 596 -145 596 -145 600 -145 c 0,132,133
 619 -145 619 -145 640 -146.5 c 128,-1,134
 661 -148 661 -148 679 -148 c 0,135,136
 702 -148 702 -148 717 -144 c 128,-1,137
 732 -140 732 -140 732 -124 c 0,138,139
 732 -123 732 -123 731.5 -121.5 c 128,-1,140
 731 -120 731 -120 731 -118 c 0,73,74
EndSplineSet
EndChar

StartChar: at
Encoding: 64 64 35
Width: 1214
Flags: W
LayerCount: 2
Fore
SplineSet
1096 680 m 2,0,1
 1096 604 1096 604 1094.5 560.5 c 128,-1,2
 1093 517 1093 517 1091.5 488.5 c 128,-1,3
 1090 460 1090 460 1088.5 437.5 c 128,-1,4
 1087 415 1087 415 1087 380 c 0,5,6
 1087 364 1087 364 1086 347.5 c 128,-1,7
 1085 331 1085 331 1081 317.5 c 128,-1,8
 1077 304 1077 304 1069 295 c 128,-1,9
 1061 286 1061 286 1047 286 c 0,10,11
 995 286 995 286 959 287 c 128,-1,12
 923 288 923 288 892.5 288.5 c 128,-1,13
 862 289 862 289 832.5 290 c 128,-1,14
 803 291 803 291 764 291 c 0,15,16
 743 291 743 291 727.5 293 c 128,-1,17
 712 295 712 295 701 302.5 c 128,-1,18
 690 310 690 310 684.5 325.5 c 128,-1,19
 679 341 679 341 679 368 c 0,20,21
 679 371 679 371 679.5 381 c 128,-1,22
 680 391 680 391 680.5 402.5 c 128,-1,23
 681 414 681 414 680.5 422 c 128,-1,24
 680 430 680 430 679 428 c 0,25,26
 648 375 648 375 616.5 344 c 128,-1,27
 585 313 585 313 555.5 297.5 c 128,-1,28
 526 282 526 282 498.5 278 c 128,-1,29
 471 274 471 274 447 274 c 0,30,31
 368 274 368 274 303.5 296.5 c 128,-1,32
 239 319 239 319 193 370 c 128,-1,33
 147 421 147 421 122 503.5 c 128,-1,34
 97 586 97 586 97 706 c 0,35,36
 97 778 97 778 116 832 c 128,-1,37
 135 886 135 886 167 925 c 128,-1,38
 199 964 199 964 241 989 c 128,-1,39
 283 1014 283 1014 329 1028.5 c 128,-1,40
 375 1043 375 1043 421 1049 c 128,-1,41
 467 1055 467 1055 508 1055 c 0,42,43
 580 1055 580 1055 641.5 1052.5 c 128,-1,44
 703 1050 703 1050 754 1050 c 0,45,46
 808 1050 808 1050 881.5 1051.5 c 128,-1,47
 955 1053 955 1053 1056 1053 c 0,48,49
 1070 1053 1070 1053 1083 1040 c 128,-1,50
 1096 1027 1096 1027 1096 1013 c 2,51,-1
 1096 680 l 2,0,1
693 649 m 1,52,53
 692 722 692 722 684 779 c 0,54,55
 681 803 681 803 676 826.5 c 128,-1,56
 671 850 671 850 663.5 868.5 c 128,-1,57
 656 887 656 887 646 898.5 c 128,-1,58
 636 910 636 910 623 910 c 0,59,60
 593 910 593 910 572.5 898 c 128,-1,61
 552 886 552 886 539 867.5 c 128,-1,62
 526 849 526 849 519 827.5 c 128,-1,63
 512 806 512 806 508.5 787 c 128,-1,64
 505 768 505 768 504.5 754.5 c 128,-1,65
 504 741 504 741 504 739 c 0,66,67
 504 725 504 725 504.5 698.5 c 128,-1,68
 505 672 505 672 506.5 641 c 128,-1,69
 508 610 508 610 512.5 577 c 128,-1,70
 517 544 517 544 524.5 517.5 c 128,-1,71
 532 491 532 491 543.5 474 c 128,-1,72
 555 457 555 457 572 457 c 0,73,74
 594 457 594 457 611.5 465 c 128,-1,75
 629 473 629 473 642 486.5 c 128,-1,76
 655 500 655 500 663.5 517.5 c 128,-1,77
 672 535 672 535 678 553 c 0,78,79
 691 595 691 595 693 649 c 1,52,53
EndSplineSet
EndChar

StartChar: A
Encoding: 65 65 36
Width: 1880
Flags: W
LayerCount: 2
Fore
SplineSet
715 1364 m 0,0,1
 716 1364 716 1364 731.5 1364.5 c 128,-1,2
 747 1365 747 1365 769.5 1366 c 128,-1,3
 792 1367 792 1367 818 1368 c 128,-1,4
 844 1369 844 1369 866 1370.5 c 128,-1,5
 888 1372 888 1372 902 1372.5 c 128,-1,6
 916 1373 916 1373 915 1374 c 1,7,8
 921 1374 921 1374 950 1374.5 c 128,-1,9
 979 1375 979 1375 1019 1375 c 128,-1,10
 1059 1375 1059 1375 1104.5 1375 c 128,-1,11
 1150 1375 1150 1375 1189.5 1374 c 128,-1,12
 1229 1373 1229 1373 1256.5 1370.5 c 128,-1,13
 1284 1368 1284 1368 1288 1364 c 1,14,15
 1317 1364 1317 1364 1343.5 1369 c 128,-1,16
 1370 1374 1370 1374 1399 1374 c 0,17,18
 1411 1374 1411 1374 1423 1368 c 128,-1,19
 1435 1362 1435 1362 1448 1362 c 0,20,21
 1454 1362 1454 1362 1457.5 1363 c 128,-1,22
 1461 1364 1461 1364 1466 1364 c 1,23,24
 1472 1361 1472 1361 1479.5 1353.5 c 128,-1,25
 1487 1346 1487 1346 1487 1341 c 1,26,-1
 1630 694 l 1,27,28
 1662 570 1662 570 1692.5 440 c 128,-1,29
 1723 310 1723 310 1749 186 c 0,30,31
 1751 177 1751 177 1755 159.5 c 128,-1,32
 1759 142 1759 142 1762.5 121 c 128,-1,33
 1766 100 1766 100 1768 78.5 c 128,-1,34
 1770 57 1770 57 1767.5 39 c 128,-1,35
 1765 21 1765 21 1756.5 9.5 c 128,-1,36
 1748 -2 1748 -2 1732 -2 c 0,37,38
 1725 -2 1725 -2 1705 -2 c 128,-1,39
 1685 -2 1685 -2 1659 -1.5 c 128,-1,40
 1633 -1 1633 -1 1605.5 -0.5 c 128,-1,41
 1578 0 1578 0 1554 0.5 c 128,-1,42
 1530 1 1530 1 1514 1 c 128,-1,43
 1498 1 1498 1 1497 2 c 1,44,-1
 1368 2 l 1,45,46
 1368 4 1368 4 1365.5 7 c 128,-1,47
 1363 10 1363 10 1347 10 c 0,48,49
 1345 10 1345 10 1343.5 6 c 128,-1,50
 1342 2 1342 2 1339 2 c 2,51,-1
 1333 2 l 2,52,53
 1332 2 1332 2 1315.5 3 c 128,-1,54
 1299 4 1299 4 1275.5 5.5 c 128,-1,55
 1252 7 1252 7 1225.5 8.5 c 128,-1,56
 1199 10 1199 10 1179 10 c 1,57,58
 1164 35 1164 35 1149.5 99 c 128,-1,59
 1135 163 1135 163 1118 250 c 1,60,61
 1094 246 1094 246 1065 244.5 c 128,-1,62
 1036 243 1036 243 1005 243 c 128,-1,63
 974 243 974 243 942 243.5 c 128,-1,64
 910 244 910 244 882 244 c 1,65,66
 865 160 865 160 851 97.5 c 128,-1,67
 837 35 837 35 823 10 c 1,68,69
 815 10 815 10 804.5 6 c 128,-1,70
 794 2 794 2 792 2 c 2,71,-1
 786 2 l 2,72,73
 775 2 775 2 769 6 c 128,-1,74
 763 10 763 10 758 10 c 0,75,76
 705 9 705 9 665 7 c 0,77,78
 648 6 648 6 631.5 5.5 c 128,-1,79
 615 5 615 5 602 4 c 128,-1,80
 589 3 589 3 581 2.5 c 128,-1,81
 573 2 573 2 573 2 c 1,82,-1
 383 2 l 2,83,84
 381 2 381 2 365.5 1.5 c 128,-1,85
 350 1 350 1 326 0.5 c 128,-1,86
 302 0 302 0 274 -0.5 c 128,-1,87
 246 -1 246 -1 220.5 -1.5 c 128,-1,88
 195 -2 195 -2 175 -2 c 128,-1,89
 155 -2 155 -2 147 -2 c 0,90,91
 131 -2 131 -2 123 9.5 c 128,-1,92
 115 21 115 21 112.5 39 c 128,-1,93
 110 57 110 57 112 78.5 c 128,-1,94
 114 100 114 100 118 121 c 128,-1,95
 122 142 122 142 125.5 159.5 c 128,-1,96
 129 177 129 177 131 186 c 0,97,98
 157 310 157 310 187.5 440 c 128,-1,99
 218 570 218 570 250 694 c 1,100,-1
 393 1341 l 1,101,102
 393 1346 393 1346 400 1353.5 c 128,-1,103
 407 1361 407 1361 414 1364 c 1,104,105
 419 1364 419 1364 422.5 1363 c 128,-1,106
 426 1362 426 1362 432 1362 c 0,107,108
 458 1362 458 1362 486 1368 c 128,-1,109
 514 1374 514 1374 543 1374 c 0,110,111
 586 1374 586 1374 626.5 1369 c 128,-1,112
 667 1364 667 1364 715 1364 c 0,0,1
995 1016 m 0,113,114
 995 1015 995 1015 990.5 988.5 c 128,-1,115
 986 962 986 962 978.5 919.5 c 128,-1,116
 971 877 971 877 961.5 823 c 128,-1,117
 952 769 952 769 942.5 713 c 128,-1,118
 933 657 933 657 923.5 602.5 c 128,-1,119
 914 548 914 548 907 506 c 1,120,-1
 1012 506 l 1,121,122
 1014 508 1014 508 1019 510 c 128,-1,123
 1024 512 1024 512 1026 512 c 2,124,-1
 1030 512 l 2,125,126
 1050 512 1050 512 1065.5 507.5 c 128,-1,127
 1081 503 1081 503 1095 500 c 1,128,129
 1088 542 1088 542 1079 596.5 c 128,-1,130
 1070 651 1070 651 1060 708 c 128,-1,131
 1050 765 1050 765 1040.5 820 c 128,-1,132
 1031 875 1031 875 1023.5 918 c 128,-1,133
 1016 961 1016 961 1011.5 988 c 128,-1,134
 1007 1015 1007 1015 1007 1016 c 0,135,136
 1006 1020 1006 1020 1005 1024 c 256,137,138
 1004 1028 1004 1028 1003.5 1033.5 c 128,-1,139
 1003 1039 1003 1039 1001 1047 c 1,140,141
 999 1039 999 1039 998 1033.5 c 128,-1,142
 997 1028 997 1028 996 1024 c 256,143,144
 995 1020 995 1020 995 1016 c 0,113,114
EndSplineSet
EndChar

StartChar: B
Encoding: 66 66 37
Width: 1680
Flags: W
LayerCount: 2
Fore
SplineSet
118 1075 m 0,0,1
 118 1110 118 1110 117 1143.5 c 128,-1,2
 116 1177 116 1177 116 1208 c 0,3,4
 116 1237 116 1237 118 1263 c 128,-1,5
 120 1289 120 1289 125 1313 c 0,6,7
 128 1327 128 1327 130.5 1343.5 c 128,-1,8
 133 1360 133 1360 140 1373.5 c 128,-1,9
 147 1387 147 1387 162 1396 c 128,-1,10
 177 1405 177 1405 206 1405 c 0,11,12
 243 1405 243 1405 292.5 1408 c 128,-1,13
 342 1411 342 1411 394.5 1414 c 128,-1,14
 447 1417 447 1417 497.5 1420 c 128,-1,15
 548 1423 548 1423 589 1423 c 0,16,17
 685 1423 685 1423 786 1413 c 128,-1,18
 887 1403 887 1403 983 1391 c 0,19,20
 1037 1384 1037 1384 1100.5 1375.5 c 128,-1,21
 1164 1367 1164 1367 1228 1352 c 128,-1,22
 1292 1337 1292 1337 1351 1313.5 c 128,-1,23
 1410 1290 1410 1290 1455.5 1253 c 128,-1,24
 1501 1216 1501 1216 1528.5 1163 c 128,-1,25
 1556 1110 1556 1110 1556 1036 c 0,26,27
 1556 948 1556 948 1521.5 884.5 c 128,-1,28
 1487 821 1487 821 1415 776 c 1,29,30
 1398 767 1398 767 1380 760 c 128,-1,31
 1362 753 1362 753 1345.5 746 c 128,-1,32
 1329 739 1329 739 1316 731 c 128,-1,33
 1303 723 1303 723 1296 713 c 1,34,35
 1298 711 1298 711 1299 709 c 128,-1,36
 1300 707 1300 707 1302 705 c 1,37,38
 1381 672 1381 672 1437 636 c 128,-1,39
 1493 600 1493 600 1528.5 562.5 c 128,-1,40
 1564 525 1564 525 1580.5 486.5 c 128,-1,41
 1597 448 1597 448 1597 410 c 0,42,43
 1597 350 1597 350 1560.5 292 c 128,-1,44
 1524 234 1524 234 1460 183 c 128,-1,45
 1396 132 1396 132 1310.5 90 c 128,-1,46
 1225 48 1225 48 1126 20 c 0,47,48
 1050 -2 1050 -2 976.5 -15.5 c 128,-1,49
 903 -29 903 -29 835.5 -36.5 c 128,-1,50
 768 -44 768 -44 709 -46.5 c 128,-1,51
 650 -49 650 -49 602 -49 c 0,52,53
 467 -49 467 -49 376 -42.5 c 128,-1,54
 285 -36 285 -36 230 -15 c 128,-1,55
 175 6 175 6 152 44.5 c 128,-1,56
 129 83 129 83 129 147 c 0,57,58
 129 167 129 167 130 198 c 128,-1,59
 131 229 131 229 132 261.5 c 128,-1,60
 133 294 133 294 134 323 c 128,-1,61
 135 352 135 352 135 367 c 0,62,63
 135 543 135 543 126.5 720.5 c 128,-1,64
 118 898 118 898 118 1075 c 0,0,1
817 522 m 0,65,66
 804 522 804 522 799 513.5 c 128,-1,67
 794 505 794 505 794 494 c 2,68,-1
 794 330 l 2,69,70
 794 319 794 319 800 317 c 128,-1,71
 806 315 806 315 811 315 c 0,72,73
 813 315 813 315 815 315 c 128,-1,74
 817 315 817 315 817 317 c 1,75,76
 981 396 981 396 1142 469 c 1,77,78
 1146 474 1146 474 1152 477 c 128,-1,79
 1158 480 1158 480 1161 483 c 1,80,81
 1115 497 1115 497 1074.5 505 c 128,-1,82
 1034 513 1034 513 993.5 516.5 c 128,-1,83
 953 520 953 520 910.5 521 c 128,-1,84
 868 522 868 522 817 522 c 0,65,66
829 928 m 0,85,86
 829 917 829 917 830 911 c 128,-1,87
 831 905 831 905 845 905 c 0,88,89
 850 905 850 905 869 912.5 c 128,-1,90
 888 920 888 920 914 931.5 c 128,-1,91
 940 943 940 943 968.5 956.5 c 128,-1,92
 997 970 997 970 1021.5 981.5 c 128,-1,93
 1046 993 1046 993 1062.5 1000.5 c 128,-1,94
 1079 1008 1079 1008 1081 1008 c 0,95,96
 1088 1010 1088 1010 1097 1012.5 c 128,-1,97
 1106 1015 1106 1015 1106 1025 c 0,98,99
 1106 1044 1106 1044 1082.5 1055 c 128,-1,100
 1059 1066 1059 1066 1027.5 1072 c 128,-1,101
 996 1078 996 1078 964.5 1079.5 c 128,-1,102
 933 1081 933 1081 917 1081 c 0,103,104
 883 1081 883 1081 865 1068.5 c 128,-1,105
 847 1056 847 1056 839 1034.5 c 128,-1,106
 831 1013 831 1013 830 985.5 c 128,-1,107
 829 958 829 958 829 928 c 0,85,86
EndSplineSet
EndChar

StartChar: C
Encoding: 67 67 38
Width: 1384
Flags: W
LayerCount: 2
Fore
SplineSet
778 670 m 0,0,1
 778 645 778 645 779 622 c 128,-1,2
 780 599 780 599 782 578 c 0,3,4
 788 511 788 511 803.5 464.5 c 128,-1,5
 819 418 819 418 841.5 389.5 c 128,-1,6
 864 361 864 361 892.5 348.5 c 128,-1,7
 921 336 921 336 954 336 c 0,8,9
 985 336 985 336 1019 345.5 c 128,-1,10
 1053 355 1053 355 1089 372 c 128,-1,11
 1125 389 1125 389 1162 411 c 128,-1,12
 1199 433 1199 433 1235 459 c 1,13,-1
 1253 123 l 1,14,15
 1213 84 1213 84 1160.5 52 c 128,-1,16
 1108 20 1108 20 1050 -2.5 c 128,-1,17
 992 -25 992 -25 934 -37 c 128,-1,18
 876 -49 876 -49 825 -49 c 0,19,20
 769 -49 769 -49 712.5 -46.5 c 128,-1,21
 656 -44 656 -44 600.5 -36.5 c 128,-1,22
 545 -29 545 -29 491.5 -14.5 c 128,-1,23
 438 0 438 0 389 23 c 0,24,25
 369 32 369 32 349.5 43 c 128,-1,26
 330 54 330 54 311 68 c 1,27,28
 280 94 280 94 253 126 c 128,-1,29
 226 158 226 158 203 197 c 1,30,31
 164 241 164 241 137 299 c 1,32,33
 112 367 112 367 98 451 c 128,-1,34
 84 535 84 535 84 641 c 0,35,36
 84 762 84 762 108.5 863.5 c 128,-1,37
 133 965 133 965 178 1049 c 1,38,39
 262 1220 262 1220 403.5 1314.5 c 128,-1,40
 545 1409 545 1409 723 1421 c 1,41,42
 735 1423 735 1423 747.5 1423 c 128,-1,43
 760 1423 760 1423 774 1423 c 0,44,45
 859 1423 859 1423 948 1405 c 0,46,47
 1033 1388 1033 1388 1119 1354.5 c 128,-1,48
 1205 1321 1205 1321 1292 1270 c 1,49,-1
 1255 1004 l 1,50,51
 1196 1018 1196 1018 1134 1033.5 c 128,-1,52
 1072 1049 1072 1049 1012 1049 c 0,53,54
 961 1049 961 1049 916 1031 c 128,-1,55
 871 1013 871 1013 839 965 c 0,56,57
 810 921 810 921 794 850 c 128,-1,58
 778 779 778 779 778 670 c 0,0,1
EndSplineSet
EndChar

StartChar: D
Encoding: 68 68 39
Width: 1756
Flags: W
LayerCount: 2
Fore
SplineSet
767 -2 m 0,0,1
 700 -2 700 -2 633.5 -1.5 c 128,-1,2
 567 -1 567 -1 496.5 0 c 128,-1,3
 426 1 426 1 349.5 1.5 c 128,-1,4
 273 2 273 2 185 2 c 0,5,6
 166 2 166 2 155 14 c 128,-1,7
 144 26 144 26 138.5 44.5 c 128,-1,8
 133 63 133 63 131.5 85 c 128,-1,9
 130 107 130 107 130 127 c 0,10,11
 130 175 130 175 128.5 258.5 c 128,-1,12
 127 342 127 342 124.5 444 c 128,-1,13
 122 546 122 546 120.5 657 c 128,-1,14
 119 768 119 768 119 870 c 2,15,-1
 119 1321 l 2,16,17
 119 1340 119 1340 136.5 1357 c 128,-1,18
 154 1374 154 1374 173 1374 c 0,19,20
 310 1374 310 1374 409 1372 c 128,-1,21
 508 1370 508 1370 580 1370 c 0,22,23
 692 1370 692 1370 818.5 1373 c 128,-1,24
 945 1376 945 1376 1096 1376 c 0,25,26
 1152 1376 1152 1376 1215.5 1365.5 c 128,-1,27
 1279 1355 1279 1355 1342 1329 c 128,-1,28
 1405 1303 1405 1303 1463 1258.5 c 128,-1,29
 1521 1214 1521 1214 1565 1146 c 128,-1,30
 1609 1078 1609 1078 1635.5 983 c 128,-1,31
 1662 888 1662 888 1662 762 c 0,32,33
 1662 552 1662 552 1616 406.5 c 128,-1,34
 1570 261 1570 261 1464.5 170.5 c 128,-1,35
 1359 80 1359 80 1188 39 c 128,-1,36
 1017 -2 1017 -2 767 -2 c 0,0,1
783 270 m 1,37,38
 803 269 803 269 821 270 c 0,39,40
 836 271 836 271 851.5 274 c 128,-1,41
 867 277 867 277 875 285 c 0,42,43
 888 298 888 298 900 329.5 c 128,-1,44
 912 361 912 361 922.5 403.5 c 128,-1,45
 933 446 933 446 941.5 497.5 c 128,-1,46
 950 549 950 549 956 602.5 c 128,-1,47
 962 656 962 656 965.5 708.5 c 128,-1,48
 969 761 969 761 969 807 c 0,49,50
 969 814 969 814 968.5 844.5 c 128,-1,51
 968 875 968 875 965.5 916.5 c 128,-1,52
 963 958 963 958 957.5 1004.5 c 128,-1,53
 952 1051 952 1051 941.5 1090.5 c 128,-1,54
 931 1130 931 1130 914.5 1156 c 128,-1,55
 898 1182 898 1182 875 1182 c 0,56,57
 858 1182 858 1182 845.5 1178.5 c 128,-1,58
 833 1175 833 1175 824 1171 c 0,59,60
 813 1167 813 1167 806 1161 c 1,61,62
 806 1114 806 1114 805 1051 c 128,-1,63
 804 988 804 988 802.5 916.5 c 128,-1,64
 801 845 801 845 798.5 769.5 c 128,-1,65
 796 694 796 694 794 622 c 2,66,-1
 783 270 l 1,37,38
EndSplineSet
EndChar

StartChar: E
Encoding: 69 69 40
Width: 1419
Flags: W
LayerCount: 2
Fore
SplineSet
116 805 m 0,0,1
 116 935 116 935 118 1063.5 c 128,-1,2
 120 1192 120 1192 133 1331 c 1,3,4
 133 1345 133 1345 147 1353 c 128,-1,5
 161 1361 161 1361 183 1365.5 c 128,-1,6
 205 1370 205 1370 232 1371 c 128,-1,7
 259 1372 259 1372 284 1372 c 0,8,9
 412 1372 412 1372 526 1375.5 c 128,-1,10
 640 1379 640 1379 752.5 1381 c 128,-1,11
 865 1383 865 1383 984 1381.5 c 128,-1,12
 1103 1380 1103 1380 1241 1370 c 1,13,14
 1260 1370 1260 1370 1271 1348 c 128,-1,15
 1282 1326 1282 1326 1289 1292.5 c 128,-1,16
 1296 1259 1296 1259 1302.5 1219 c 128,-1,17
 1309 1179 1309 1179 1319 1143 c 1,18,19
 1320 1117 1320 1117 1317.5 1105.5 c 128,-1,20
 1315 1094 1315 1094 1309.5 1089.5 c 128,-1,21
 1304 1085 1304 1085 1294.5 1086 c 128,-1,22
 1285 1087 1285 1087 1272 1087 c 0,23,24
 1221 1087 1221 1087 1168 1083 c 128,-1,25
 1115 1079 1115 1079 1061 1074 c 128,-1,26
 1007 1069 1007 1069 953 1063.5 c 128,-1,27
 899 1058 899 1058 846 1055 c 0,28,29
 837 1055 837 1055 829.5 1030 c 128,-1,30
 822 1005 822 1005 817 971.5 c 128,-1,31
 812 938 812 938 809.5 905 c 128,-1,32
 807 872 807 872 807 856 c 0,33,34
 807 828 807 828 814.5 820.5 c 128,-1,35
 822 813 822 813 839 813 c 0,36,37
 932 813 932 813 1022 813.5 c 128,-1,38
 1112 814 1112 814 1202 805 c 0,39,40
 1218 803 1218 803 1229 802 c 128,-1,41
 1240 801 1240 801 1248 797.5 c 128,-1,42
 1256 794 1256 794 1261.5 785 c 128,-1,43
 1267 776 1267 776 1272 758 c 1,44,-1
 1280 575 l 1,45,-1
 1280 569 l 2,46,47
 1280 551 1280 551 1260 541 c 128,-1,48
 1240 531 1240 531 1206.5 526 c 128,-1,49
 1173 521 1173 521 1130 519.5 c 128,-1,50
 1087 518 1087 518 1042 518 c 0,51,52
 954 518 954 518 905 520 c 128,-1,53
 856 522 856 522 833 516.5 c 128,-1,54
 810 511 810 511 805 493 c 128,-1,55
 800 475 800 475 800 436 c 0,56,57
 800 398 800 398 796 360.5 c 128,-1,58
 792 323 792 323 794 281 c 1,59,60
 893 281 893 281 992 287 c 128,-1,61
 1091 293 1091 293 1188 293 c 0,62,63
 1195 293 1195 293 1203 278 c 128,-1,64
 1211 263 1211 263 1219.5 239 c 128,-1,65
 1228 215 1228 215 1236 186.5 c 128,-1,66
 1244 158 1244 158 1250.5 131.5 c 128,-1,67
 1257 105 1257 105 1261 83.5 c 128,-1,68
 1265 62 1265 62 1265 53 c 0,69,70
 1265 35 1265 35 1255.5 22.5 c 128,-1,71
 1246 10 1246 10 1224 10 c 0,72,73
 1150 10 1150 10 1080.5 6 c 128,-1,74
 1011 2 1011 2 934 2 c 0,75,76
 773 2 773 2 610.5 1 c 128,-1,77
 448 0 448 0 286 0 c 0,78,79
 278 0 278 0 254.5 2.5 c 128,-1,80
 231 5 231 5 206.5 9 c 128,-1,81
 182 13 182 13 163 18 c 128,-1,82
 144 23 144 23 145 29 c 1,83,84
 145 51 145 51 143.5 88.5 c 128,-1,85
 142 126 142 126 139.5 170.5 c 128,-1,86
 137 215 137 215 134 263.5 c 128,-1,87
 131 312 131 312 128.5 357.5 c 128,-1,88
 126 403 126 403 124.5 441 c 128,-1,89
 123 479 123 479 123 504 c 0,90,91
 123 537 123 537 122 564.5 c 128,-1,92
 121 592 121 592 119.5 624.5 c 128,-1,93
 118 657 118 657 117 699.5 c 128,-1,94
 116 742 116 742 116 805 c 0,0,1
EndSplineSet
EndChar

StartChar: F
Encoding: 70 70 41
Width: 1355
Flags: W
LayerCount: 2
Fore
SplineSet
116 1341 m 2,0,1
 116 1352 116 1352 121 1356.5 c 128,-1,2
 126 1361 126 1361 132.5 1362.5 c 128,-1,3
 139 1364 139 1364 144.5 1363 c 128,-1,4
 150 1362 150 1362 151 1362 c 0,5,6
 223 1362 223 1362 340 1367 c 128,-1,7
 457 1372 457 1372 598 1372 c 0,8,9
 601 1372 601 1372 619.5 1371.5 c 128,-1,10
 638 1371 638 1371 659 1371 c 128,-1,11
 680 1371 680 1371 698 1370.5 c 128,-1,12
 716 1370 716 1370 718 1370 c 0,13,14
 765 1370 765 1370 813.5 1369 c 128,-1,15
 862 1368 862 1368 914.5 1367 c 128,-1,16
 967 1366 967 1366 1025.5 1365 c 128,-1,17
 1084 1364 1084 1364 1151 1364 c 0,18,19
 1166 1364 1166 1364 1176.5 1361 c 128,-1,20
 1187 1358 1187 1358 1196 1356.5 c 128,-1,21
 1205 1355 1205 1355 1213.5 1355.5 c 128,-1,22
 1222 1356 1222 1356 1231 1364 c 1,23,24
 1258 1364 1258 1364 1269 1340 c 128,-1,25
 1280 1316 1280 1316 1282.5 1276.5 c 128,-1,26
 1285 1237 1285 1237 1282.5 1186 c 128,-1,27
 1280 1135 1280 1135 1280 1081 c 0,28,29
 1280 1068 1280 1068 1268.5 1062 c 128,-1,30
 1257 1056 1257 1056 1240.5 1054 c 128,-1,31
 1224 1052 1224 1052 1206.5 1052.5 c 128,-1,32
 1189 1053 1189 1053 1177 1053 c 2,33,-1
 1085 1053 l 2,34,35
 1063 1053 1063 1053 1050 1051.5 c 128,-1,36
 1037 1050 1037 1050 1025 1048.5 c 128,-1,37
 1013 1047 1013 1047 999 1045.5 c 128,-1,38
 985 1044 985 1044 960 1044 c 0,39,40
 945 1044 945 1044 930.5 1044.5 c 128,-1,41
 916 1045 916 1045 911 1047 c 1,42,43
 906 1045 906 1045 902 1042.5 c 128,-1,44
 898 1040 898 1040 895 1038 c 1,45,46
 894 1033 894 1033 891.5 1018.5 c 128,-1,47
 889 1004 889 1004 886.5 978 c 128,-1,48
 884 952 884 952 882 913 c 128,-1,49
 880 874 880 874 880 819 c 1,50,51
 881 820 881 820 879 813 c 128,-1,52
 877 806 877 806 886 797 c 1,53,-1
 927 797 l 1,54,-1
 1132 797 l 2,55,56
 1154 797 1154 797 1166.5 790.5 c 128,-1,57
 1179 784 1179 784 1185 766.5 c 128,-1,58
 1191 749 1191 749 1192.5 718 c 128,-1,59
 1194 687 1194 687 1194 639 c 0,60,61
 1194 579 1194 579 1194 543 c 128,-1,62
 1194 507 1194 507 1191.5 487 c 128,-1,63
 1189 467 1189 467 1182.5 460.5 c 128,-1,64
 1176 454 1176 454 1164 454 c 0,65,66
 1153 454 1153 454 1132 452.5 c 128,-1,67
 1111 451 1111 451 1086.5 449.5 c 128,-1,68
 1062 448 1062 448 1038 447 c 128,-1,69
 1014 446 1014 446 997 446 c 0,70,71
 982 446 982 446 974 445 c 128,-1,72
 966 444 966 444 959 442.5 c 128,-1,73
 952 441 952 441 943.5 439.5 c 128,-1,74
 935 438 935 438 919 436 c 256,75,76
 903 434 903 434 890 435 c 128,-1,77
 877 436 877 436 866 434.5 c 128,-1,78
 855 433 855 433 845 427.5 c 128,-1,79
 835 422 835 422 825 408 c 1,80,81
 825 334 825 334 824.5 269.5 c 128,-1,82
 824 205 824 205 822 153.5 c 128,-1,83
 820 102 820 102 814.5 65 c 128,-1,84
 809 28 809 28 800 10 c 1,85,86
 778 10 778 10 749 8.5 c 128,-1,87
 720 7 720 7 694 5.5 c 128,-1,88
 668 4 668 4 649.5 3 c 128,-1,89
 631 2 631 2 630 2 c 0,90,91
 621 1 621 1 615.5 2.5 c 128,-1,92
 610 4 610 4 606.5 5.5 c 128,-1,93
 603 7 603 7 599.5 8.5 c 128,-1,94
 596 10 596 10 592 10 c 0,95,96
 590 10 590 10 583.5 7 c 128,-1,97
 577 4 577 4 575 2 c 1,98,-1
 405 2 l 1,99,100
 403 0 403 0 376 -4.5 c 128,-1,101
 349 -9 349 -9 315.5 -13 c 128,-1,102
 282 -17 282 -17 251.5 -20 c 128,-1,103
 221 -23 221 -23 211 -23 c 0,104,105
 185 -23 185 -23 172.5 1.5 c 128,-1,106
 160 26 160 26 155 58 c 128,-1,107
 150 90 150 90 150 121 c 128,-1,108
 150 152 150 152 149 166 c 0,109,110
 145 230 145 230 142.5 296.5 c 128,-1,111
 140 363 140 363 137 430 c 128,-1,112
 134 497 134 497 129.5 563.5 c 128,-1,113
 125 630 125 630 116 694 c 1,114,-1
 116 1341 l 2,0,1
EndSplineSet
EndChar

StartChar: G
Encoding: 71 71 42
Width: 1694
Flags: W
LayerCount: 2
Fore
SplineSet
1592 291 m 0,0,1
 1592 243 1592 243 1591.5 197 c 128,-1,2
 1591 151 1591 151 1589.5 113 c 128,-1,3
 1588 75 1588 75 1584.5 47 c 128,-1,4
 1581 19 1581 19 1574 6 c 1,5,6
 1557 6 1557 6 1536 5 c 128,-1,7
 1515 4 1515 4 1495 3 c 0,8,9
 1472 1 1472 1 1449 0 c 1,10,-1
 1443 0 l 2,11,12
 1427 0 1427 0 1423 3 c 0,13,14
 1420 4 1420 4 1420 6 c 1,15,-1
 1414 4 l 2,16,17
 1408 2 1408 2 1408 0 c 1,18,-1
 1205 0 l 2,19,20
 1203 0 1203 0 1193.5 -0.5 c 128,-1,21
 1184 -1 1184 -1 1172 -1 c 128,-1,22
 1160 -1 1160 -1 1148.5 -1.5 c 128,-1,23
 1137 -2 1137 -2 1133 -2 c 0,24,25
 1125 -2 1125 -2 1118.5 10.5 c 128,-1,26
 1112 23 1112 23 1107.5 45.5 c 128,-1,27
 1103 68 1103 68 1100 99 c 128,-1,28
 1097 130 1097 130 1094 168 c 1,29,30
 1083 115 1083 115 1049 75 c 128,-1,31
 1015 35 1015 35 964 8 c 128,-1,32
 913 -19 913 -19 848 -33 c 128,-1,33
 783 -47 783 -47 711 -47 c 0,34,35
 642 -47 642 -47 569 -30 c 128,-1,36
 496 -13 496 -13 426.5 23.5 c 128,-1,37
 357 60 357 60 295.5 117 c 128,-1,38
 234 174 234 174 187.5 255 c 128,-1,39
 141 336 141 336 114 442 c 128,-1,40
 87 548 87 548 87 682 c 0,41,42
 87 860 87 860 150.5 998 c 128,-1,43
 214 1136 214 1136 326 1230.5 c 128,-1,44
 438 1325 438 1325 590.5 1374 c 128,-1,45
 743 1423 743 1423 920 1423 c 0,46,47
 1048 1423 1048 1423 1185 1389.5 c 128,-1,48
 1322 1356 1322 1356 1459 1290 c 1,49,-1
 1381 942 l 1,50,51
 1343 952 1343 952 1302 963.5 c 128,-1,52
 1261 975 1261 975 1219.5 985 c 128,-1,53
 1178 995 1178 995 1136.5 1001.5 c 128,-1,54
 1095 1008 1095 1008 1056 1008 c 0,55,56
 998 1008 998 1008 948 993.5 c 128,-1,57
 898 979 898 979 861 941 c 128,-1,58
 824 903 824 903 802.5 837.5 c 128,-1,59
 781 772 781 772 781 670 c 0,60,61
 781 581 781 581 794 521 c 128,-1,62
 807 461 807 461 830.5 424.5 c 128,-1,63
 854 388 854 388 886.5 372 c 128,-1,64
 919 356 919 356 957 356 c 0,65,66
 985 356 985 356 1016.5 363.5 c 128,-1,67
 1048 371 1048 371 1080 385 c 1,68,69
 1078 458 1078 458 1075.5 528 c 128,-1,70
 1073 598 1073 598 1073 667 c 0,71,72
 1073 704 1073 704 1073.5 722.5 c 128,-1,73
 1074 741 1074 741 1080 748 c 128,-1,74
 1086 755 1086 755 1099 754.5 c 128,-1,75
 1112 754 1112 754 1137 754 c 2,76,-1
 1354 754 l 2,77,78
 1431 754 1431 754 1478.5 755 c 128,-1,79
 1526 756 1526 756 1552.5 751.5 c 128,-1,80
 1579 747 1579 747 1588.5 733.5 c 128,-1,81
 1598 720 1598 720 1598 690 c 0,82,83
 1598 681 1598 681 1598.5 674 c 128,-1,84
 1599 667 1599 667 1599 655 c 128,-1,85
 1599 643 1599 643 1599.5 621.5 c 128,-1,86
 1600 600 1600 600 1600 561 c 2,87,-1
 1600 352 l 2,88,89
 1600 350 1600 350 1598.5 341 c 128,-1,90
 1597 332 1597 332 1595.5 321 c 128,-1,91
 1594 310 1594 310 1593 301 c 128,-1,92
 1592 292 1592 292 1592 291 c 0,0,1
EndSplineSet
EndChar

StartChar: H
Encoding: 72 72 43
Width: 1905
Flags: W
LayerCount: 2
Fore
SplineSet
1060 954 m 1,0,1
 1061 1032 1061 1032 1063 1094 c 0,2,3
 1064 1121 1064 1121 1064.5 1147 c 128,-1,4
 1065 1173 1065 1173 1065.5 1194.5 c 128,-1,5
 1066 1216 1066 1216 1066.5 1230.5 c 128,-1,6
 1067 1245 1067 1245 1067 1248 c 0,7,8
 1067 1284 1067 1284 1068 1306.5 c 128,-1,9
 1069 1329 1069 1329 1077.5 1341 c 128,-1,10
 1086 1353 1086 1353 1105.5 1357.5 c 128,-1,11
 1125 1362 1125 1362 1163 1362 c 0,12,13
 1176 1362 1176 1362 1217.5 1362.5 c 128,-1,14
 1259 1363 1259 1363 1315 1364.5 c 128,-1,15
 1371 1366 1371 1366 1434 1367 c 128,-1,16
 1497 1368 1497 1368 1553 1369.5 c 128,-1,17
 1609 1371 1609 1371 1650.5 1371.5 c 128,-1,18
 1692 1372 1692 1372 1704 1372 c 0,19,20
 1727 1372 1727 1372 1744 1370 c 128,-1,21
 1761 1368 1761 1368 1772 1359.5 c 128,-1,22
 1783 1351 1783 1351 1788 1335.5 c 128,-1,23
 1793 1320 1793 1320 1793 1293 c 0,24,25
 1793 1231 1793 1231 1791 1179 c 128,-1,26
 1789 1127 1789 1127 1786.5 1077.5 c 128,-1,27
 1784 1028 1784 1028 1782 976.5 c 128,-1,28
 1780 925 1780 925 1780 864 c 0,29,30
 1780 853 1780 853 1782.5 843 c 128,-1,31
 1785 833 1785 833 1785 823 c 2,32,-1
 1737 47 l 2,33,34
 1737 41 1737 41 1732.5 33 c 128,-1,35
 1728 25 1728 25 1721.5 17.5 c 128,-1,36
 1715 10 1715 10 1706.5 5 c 128,-1,37
 1698 0 1698 0 1690 0 c 2,38,-1
 1127 0 l 2,39,40
 1119 0 1119 0 1113.5 9 c 128,-1,41
 1108 18 1108 18 1104 33.5 c 128,-1,42
 1100 49 1100 49 1097.5 68.5 c 128,-1,43
 1095 88 1095 88 1094 109 c 2,44,-1
 1072 485 l 2,45,46
 1071 485 1071 485 1055.5 485.5 c 128,-1,47
 1040 486 1040 486 1016.5 487 c 128,-1,48
 993 488 993 488 965.5 489.5 c 128,-1,49
 938 491 938 491 914 492 c 128,-1,50
 890 493 890 493 872.5 493.5 c 128,-1,51
 855 494 855 494 853 494 c 0,52,53
 842 494 842 494 840 481 c 128,-1,54
 838 468 838 468 838 459 c 0,55,56
 838 344 838 344 837.5 265.5 c 128,-1,57
 837 187 837 187 835 135.5 c 128,-1,58
 833 84 833 84 828.5 56 c 128,-1,59
 824 28 824 28 815.5 15.5 c 128,-1,60
 807 3 807 3 794.5 0.5 c 128,-1,61
 782 -2 782 -2 763 -2 c 1,62,63
 649 -10 649 -10 541 -12 c 0,64,65
 495 -13 495 -13 445.5 -12.5 c 128,-1,66
 396 -12 396 -12 348.5 -9 c 128,-1,67
 301 -6 301 -6 257 -0.5 c 128,-1,68
 213 5 213 5 177 14 c 0,69,70
 172 15 172 15 167.5 23 c 128,-1,71
 163 31 163 31 160 40.5 c 128,-1,72
 157 50 157 50 155.5 58.5 c 128,-1,73
 154 67 154 67 154 70 c 2,74,-1
 115 815 l 1,75,-1
 115 834 l 1,76,-1
 115 854 l 2,77,78
 115 871 115 871 116 912 c 128,-1,79
 117 953 117 953 118.5 1005 c 128,-1,80
 120 1057 120 1057 121.5 1113 c 128,-1,81
 123 1169 123 1169 124.5 1215.5 c 128,-1,82
 126 1262 126 1262 128 1292.5 c 128,-1,83
 130 1323 130 1323 132 1325 c 0,84,85
 136 1329 136 1329 144.5 1337 c 128,-1,86
 153 1345 153 1345 165.5 1353.5 c 128,-1,87
 178 1362 178 1362 193.5 1367.5 c 128,-1,88
 209 1373 209 1373 226 1372 c 1,89,-1
 343 1372 l 2,90,91
 345 1372 345 1372 376 1371.5 c 128,-1,92
 407 1371 407 1371 451.5 1370.5 c 128,-1,93
 496 1370 496 1370 547.5 1369 c 128,-1,94
 599 1368 599 1368 643.5 1367.5 c 128,-1,95
 688 1367 688 1367 718 1366.5 c 128,-1,96
 748 1366 748 1366 750 1366 c 0,97,98
 774 1366 774 1366 792 1363 c 128,-1,99
 810 1360 810 1360 821.5 1351 c 128,-1,100
 833 1342 833 1342 839 1325 c 128,-1,101
 845 1308 845 1308 845 1280 c 0,102,103
 845 1274 845 1274 843.5 1259 c 128,-1,104
 842 1244 842 1244 840.5 1226.5 c 128,-1,105
 839 1209 839 1209 837.5 1193 c 128,-1,106
 836 1177 836 1177 836 1169 c 256,107,108
 836 1161 836 1161 839 1151 c 128,-1,109
 842 1141 842 1141 842 1130 c 0,110,111
 842 1090 842 1090 840 1052 c 128,-1,112
 838 1014 838 1014 838 969 c 1,113,114
 861 969 861 969 889.5 966.5 c 128,-1,115
 918 964 918 964 947.5 961.5 c 128,-1,116
 977 959 977 959 1006 956.5 c 128,-1,117
 1035 954 1035 954 1060 954 c 1,0,1
EndSplineSet
EndChar

StartChar: I
Encoding: 73 73 44
Width: 984
Flags: W
LayerCount: 2
Fore
SplineSet
857 408 m 0,0,1
 855 340 855 340 854 276.5 c 128,-1,2
 853 213 853 213 851.5 159.5 c 128,-1,3
 850 106 850 106 845.5 67 c 128,-1,4
 841 28 841 28 832 10 c 1,5,6
 809 10 809 10 780 8.5 c 128,-1,7
 751 7 751 7 725 5.5 c 128,-1,8
 699 4 699 4 681 3 c 128,-1,9
 663 2 663 2 662 2 c 2,10,-1
 656 2 l 2,11,12
 644 2 644 2 637.5 6 c 128,-1,13
 631 10 631 10 623 10 c 1,14,15
 619 9 619 9 615 7 c 0,16,17
 607 3 607 3 607 2 c 1,18,-1
 417 2 l 1,19,20
 414 1 414 1 381.5 0.5 c 128,-1,21
 349 0 349 0 308 -0.5 c 128,-1,22
 267 -1 267 -1 230 -1.5 c 128,-1,23
 193 -2 193 -2 181 -2 c 0,24,25
 164 -2 164 -2 153 9.5 c 128,-1,26
 142 21 142 21 135.5 39 c 128,-1,27
 129 57 129 57 126 78.5 c 128,-1,28
 123 100 123 100 121.5 121 c 128,-1,29
 120 142 120 142 120 159.5 c 128,-1,30
 120 177 120 177 120 186 c 0,31,32
 122 310 122 310 122.5 440 c 128,-1,33
 123 570 123 570 128 694 c 1,34,-1
 128 1341 l 2,35,36
 128 1358 128 1358 139 1360 c 128,-1,37
 150 1362 150 1362 163 1362 c 0,38,39
 266 1362 266 1362 367 1363 c 128,-1,40
 468 1364 468 1364 572 1364 c 0,41,42
 581 1364 581 1364 591 1366.5 c 128,-1,43
 601 1369 601 1369 619 1370.5 c 128,-1,44
 637 1372 637 1372 666 1371 c 128,-1,45
 695 1370 695 1370 740 1364 c 1,46,47
 749 1356 749 1356 756.5 1358.5 c 128,-1,48
 764 1361 764 1361 773 1364 c 1,49,50
 801 1364 801 1364 819.5 1360.5 c 128,-1,51
 838 1357 838 1357 849 1341.5 c 128,-1,52
 860 1326 860 1326 864.5 1295.5 c 128,-1,53
 869 1265 869 1265 869 1211 c 2,54,-1
 869 811 l 2,55,56
 869 810 869 810 868 780.5 c 128,-1,57
 867 751 867 751 866 706.5 c 128,-1,58
 865 662 865 662 863 611 c 128,-1,59
 861 560 861 560 860 515.5 c 128,-1,60
 859 471 859 471 858 440.5 c 128,-1,61
 857 410 857 410 857 408 c 0,0,1
EndSplineSet
EndChar

StartChar: J
Encoding: 74 74 45
Width: 1344
Flags: W
LayerCount: 2
Fore
SplineSet
1102 133 m 0,0,1
 1039 75 1039 75 968 40 c 128,-1,2
 897 5 897 5 835 -15 c 0,3,4
 763 -38 763 -38 692 -49 c 1,5,6
 552 -68 552 -68 410 -54 c 128,-1,7
 268 -40 268 -40 137 14 c 1,8,-1
 47 55 l 1,9,10
 45 62 45 62 46.5 77 c 128,-1,11
 48 92 48 92 50 111.5 c 128,-1,12
 52 131 52 131 54.5 153 c 128,-1,13
 57 175 57 175 59 197 c 0,14,15
 59 208 59 208 61 228.5 c 128,-1,16
 63 249 63 249 65 268 c 128,-1,17
 67 287 67 287 69.5 300 c 128,-1,18
 72 313 72 313 74 309 c 1,19,20
 125 291 125 291 164.5 279 c 128,-1,21
 204 267 204 267 241 260 c 128,-1,22
 278 253 278 253 316.5 250 c 128,-1,23
 355 247 355 247 403 248 c 0,24,25
 427 248 427 248 442.5 265.5 c 128,-1,26
 458 283 458 283 468 306.5 c 128,-1,27
 478 330 478 330 483.5 354.5 c 128,-1,28
 489 379 489 379 493 393 c 1,29,30
 495 428 495 428 497.5 482.5 c 128,-1,31
 500 537 500 537 500 621 c 1,32,33
 501 682 501 682 501.5 736.5 c 128,-1,34
 502 791 502 791 503 832 c 0,35,36
 504 880 504 880 504 920 c 2,37,-1
 502 1341 l 2,38,39
 502 1358 502 1358 513 1360 c 128,-1,40
 524 1362 524 1362 536 1362 c 0,41,42
 639 1362 639 1362 740.5 1363 c 128,-1,43
 842 1364 842 1364 946 1364 c 2,44,-1
 1147 1364 l 2,45,46
 1175 1364 1175 1364 1193.5 1360.5 c 128,-1,47
 1212 1357 1212 1357 1223 1341.5 c 128,-1,48
 1234 1326 1234 1326 1238.5 1295.5 c 128,-1,49
 1243 1265 1243 1265 1243 1211 c 2,50,-1
 1243 811 l 2,51,52
 1243 810 1243 810 1242.5 794.5 c 128,-1,53
 1242 779 1242 779 1241 756.5 c 128,-1,54
 1240 734 1240 734 1239 708 c 128,-1,55
 1238 682 1238 682 1237 659 c 128,-1,56
 1236 636 1236 636 1235.5 620 c 128,-1,57
 1235 604 1235 604 1235 602 c 0,58,59
 1235 543 1235 543 1232 478.5 c 128,-1,60
 1229 414 1229 414 1216 352 c 128,-1,61
 1203 290 1203 290 1176.5 233.5 c 128,-1,62
 1150 177 1150 177 1102 133 c 0,0,1
EndSplineSet
EndChar

StartChar: K
Encoding: 75 75 46
Width: 1750
Flags: W
LayerCount: 2
Fore
SplineSet
823 1376 m 0,0,1
 841 1376 841 1376 849.5 1367 c 128,-1,2
 858 1358 858 1358 860.5 1344 c 128,-1,3
 863 1330 863 1330 862.5 1314 c 128,-1,4
 862 1298 862 1298 862 1284 c 0,5,6
 863 1206 863 1206 857.5 1132.5 c 128,-1,7
 852 1059 852 1059 852 1004 c 1,8,9
 870 1004 870 1004 879.5 1006.5 c 128,-1,10
 889 1009 889 1009 896 1014.5 c 128,-1,11
 903 1020 903 1020 910.5 1028 c 128,-1,12
 918 1036 918 1036 930 1047 c 1,13,14
 937 1051 937 1051 967.5 1080.5 c 128,-1,15
 998 1110 998 1110 1041.5 1151 c 128,-1,16
 1085 1192 1085 1192 1135.5 1239.5 c 128,-1,17
 1186 1287 1186 1287 1232 1327 c 128,-1,18
 1278 1367 1278 1367 1313 1394 c 128,-1,19
 1348 1421 1348 1421 1362 1423 c 0,20,21
 1366 1423 1366 1423 1374 1415.5 c 128,-1,22
 1382 1408 1382 1408 1390 1398.5 c 128,-1,23
 1398 1389 1398 1389 1405.5 1380 c 128,-1,24
 1413 1371 1413 1371 1417 1368 c 1,25,26
 1419 1364 1419 1364 1430.5 1353.5 c 128,-1,27
 1442 1343 1442 1343 1455.5 1330 c 128,-1,28
 1469 1317 1469 1317 1481 1305.5 c 128,-1,29
 1493 1294 1493 1294 1497 1288 c 0,30,31
 1510 1267 1510 1267 1527 1245 c 128,-1,32
 1544 1223 1544 1223 1561.5 1200.5 c 128,-1,33
 1579 1178 1579 1178 1595 1155 c 128,-1,34
 1611 1132 1611 1132 1622 1108 c 1,35,-1
 1622 1104 l 2,36,37
 1622 1084 1622 1084 1605 1060 c 128,-1,38
 1588 1036 1588 1036 1565.5 1013 c 128,-1,39
 1543 990 1543 990 1520.5 969 c 128,-1,40
 1498 948 1498 948 1487 934 c 1,41,42
 1483 932 1483 932 1468 920 c 128,-1,43
 1453 908 1453 908 1432.5 890.5 c 128,-1,44
 1412 873 1412 873 1389 853 c 128,-1,45
 1366 833 1366 833 1346 815.5 c 128,-1,46
 1326 798 1326 798 1311 786 c 128,-1,47
 1296 774 1296 774 1292 772 c 1,48,49
 1283 764 1283 764 1274.5 760.5 c 128,-1,50
 1266 757 1266 757 1260 753.5 c 128,-1,51
 1254 750 1254 750 1250.5 744.5 c 128,-1,52
 1247 739 1247 739 1247 727 c 0,53,54
 1247 708 1247 708 1256 693 c 128,-1,55
 1265 678 1265 678 1278.5 665 c 128,-1,56
 1292 652 1292 652 1307.5 640 c 128,-1,57
 1323 628 1323 628 1335 616 c 0,58,59
 1350 601 1350 601 1381 573.5 c 128,-1,60
 1412 546 1412 546 1450 512 c 128,-1,61
 1488 478 1488 478 1528 441 c 128,-1,62
 1568 404 1568 404 1601.5 369.5 c 128,-1,63
 1635 335 1635 335 1656 306.5 c 128,-1,64
 1677 278 1677 278 1677 262 c 0,65,66
 1677 251 1677 251 1675 242.5 c 128,-1,67
 1673 234 1673 234 1661 223 c 0,68,69
 1627 194 1627 194 1586 172 c 128,-1,70
 1545 150 1545 150 1511 121 c 0,71,72
 1485 99 1485 99 1454.5 71.5 c 128,-1,73
 1424 44 1424 44 1392 27 c 0,74,75
 1376 19 1376 19 1367 14 c 128,-1,76
 1358 9 1358 9 1350.5 4.5 c 128,-1,77
 1343 0 1343 0 1333 -6.5 c 128,-1,78
 1323 -13 1323 -13 1305 -24 c 0,79,80
 1272 -44 1272 -44 1246.5 -43.5 c 128,-1,81
 1221 -43 1221 -43 1203 -34.5 c 128,-1,82
 1185 -26 1185 -26 1174.5 -14.5 c 128,-1,83
 1164 -3 1164 -3 1162 0 c 2,84,-1
 946 248 l 1,85,86
 942 255 942 255 929 270.5 c 128,-1,87
 916 286 916 286 900.5 302.5 c 128,-1,88
 885 319 885 319 871 331.5 c 128,-1,89
 857 344 857 344 852 344 c 0,90,91
 844 344 844 344 839.5 339 c 128,-1,92
 835 334 835 334 835 328 c 0,93,94
 835 318 835 318 834.5 298 c 128,-1,95
 834 278 834 278 833.5 253.5 c 128,-1,96
 833 229 833 229 832 201.5 c 128,-1,97
 831 174 831 174 830.5 149 c 128,-1,98
 830 124 830 124 829.5 104.5 c 128,-1,99
 829 85 829 85 829 76 c 0,100,101
 829 59 829 59 830 46.5 c 128,-1,102
 831 34 831 34 827.5 25.5 c 128,-1,103
 824 17 824 17 814 13.5 c 128,-1,104
 804 10 804 10 782 12 c 1,105,106
 676 6 676 6 575.5 8 c 128,-1,107
 475 10 475 10 368 10 c 0,108,109
 355 10 355 10 334 10.5 c 128,-1,110
 313 11 313 11 292.5 11 c 128,-1,111
 272 11 272 11 257 11.5 c 128,-1,112
 242 12 242 12 241 12 c 2,113,-1
 149 20 l 1,114,-1
 143 37 l 2,115,116
 142 37 142 37 141.5 59.5 c 128,-1,117
 141 82 141 82 139.5 118 c 128,-1,118
 138 154 138 154 137 199 c 128,-1,119
 136 244 136 244 134.5 290 c 128,-1,120
 133 336 133 336 132 378.5 c 128,-1,121
 131 421 131 421 131 451 c 1,122,123
 126 526 126 526 120 604 c 128,-1,124
 114 682 114 682 114 758 c 0,125,126
 114 762 114 762 115 779 c 128,-1,127
 116 796 116 796 117.5 815.5 c 128,-1,128
 119 835 119 835 120 852 c 128,-1,129
 121 869 121 869 121 874 c 0,130,131
 121 878 121 878 120 890 c 128,-1,132
 119 902 119 902 117.5 915 c 128,-1,133
 116 928 116 928 115 939.5 c 128,-1,134
 114 951 114 951 114 954 c 0,135,136
 114 959 114 959 115 977.5 c 128,-1,137
 116 996 116 996 117.5 1017 c 128,-1,138
 119 1038 119 1038 120 1056 c 128,-1,139
 121 1074 121 1074 121 1079 c 0,140,141
 121 1089 121 1089 120.5 1109 c 128,-1,142
 120 1129 120 1129 119.5 1154 c 128,-1,143
 119 1179 119 1179 118 1205.5 c 128,-1,144
 117 1232 117 1232 116 1255 c 128,-1,145
 115 1278 115 1278 114.5 1294.5 c 128,-1,146
 114 1311 114 1311 114 1315 c 0,147,148
 111 1342 111 1342 125.5 1355 c 128,-1,149
 140 1368 140 1368 162.5 1373 c 128,-1,150
 185 1378 185 1378 211 1378 c 128,-1,151
 237 1378 237 1378 256 1378 c 0,152,153
 386 1378 386 1378 483 1377.5 c 128,-1,154
 580 1377 580 1377 648.5 1377 c 128,-1,155
 717 1377 717 1377 759.5 1376.5 c 128,-1,156
 802 1376 802 1376 823 1376 c 0,0,1
EndSplineSet
EndChar

StartChar: L
Encoding: 76 76 47
Width: 1281
Flags: W
LayerCount: 2
Fore
SplineSet
122 508 m 2,0,1
 122 602 122 602 121.5 705 c 128,-1,2
 121 808 121 808 121.5 904.5 c 128,-1,3
 122 1001 122 1001 124 1083.5 c 128,-1,4
 126 1166 126 1166 132 1221 c 1,5,6
 132 1241 132 1241 132 1267.5 c 128,-1,7
 132 1294 132 1294 136.5 1318 c 128,-1,8
 141 1342 141 1342 152.5 1359 c 128,-1,9
 164 1376 164 1376 187 1376 c 0,10,11
 275 1376 275 1376 337.5 1375 c 128,-1,12
 400 1374 400 1374 451.5 1373 c 128,-1,13
 503 1372 503 1372 552.5 1371 c 128,-1,14
 602 1370 602 1370 664 1370 c 0,15,16
 698 1370 698 1370 725.5 1369.5 c 128,-1,17
 753 1369 753 1369 771.5 1360 c 128,-1,18
 790 1351 790 1351 800 1329.5 c 128,-1,19
 810 1308 810 1308 810 1266 c 0,20,21
 810 1263 810 1263 808.5 1249 c 128,-1,22
 807 1235 807 1235 804.5 1219 c 128,-1,23
 802 1203 802 1203 800.5 1189 c 128,-1,24
 799 1175 799 1175 799 1171 c 0,25,26
 799 1165 799 1165 800.5 1149 c 128,-1,27
 802 1133 802 1133 804.5 1115.5 c 128,-1,28
 807 1098 807 1098 808.5 1084 c 128,-1,29
 810 1070 810 1070 810 1069 c 0,30,31
 811 991 811 991 811.5 920 c 128,-1,32
 812 849 812 849 812 782.5 c 128,-1,33
 812 716 812 716 812 652 c 128,-1,34
 812 588 812 588 812 524 c 0,35,36
 812 509 812 509 812 500 c 128,-1,37
 812 491 812 491 816 486 c 128,-1,38
 820 481 820 481 828.5 479 c 128,-1,39
 837 477 837 477 855 477 c 0,40,41
 926 477 926 477 1006 478 c 128,-1,42
 1086 479 1086 479 1174 479 c 0,43,44
 1196 479 1196 479 1210.5 465.5 c 128,-1,45
 1225 452 1225 452 1225 438 c 2,46,-1
 1225 45 l 2,47,48
 1225 40 1225 40 1223 32 c 128,-1,49
 1221 24 1221 24 1207.5 17 c 128,-1,50
 1194 10 1194 10 1165 5 c 128,-1,51
 1136 0 1136 0 1082 0 c 2,52,-1
 783 0 l 2,53,54
 697 0 697 0 623 0.5 c 128,-1,55
 549 1 549 1 478 2 c 128,-1,56
 407 3 407 3 333.5 3.5 c 128,-1,57
 260 4 260 4 175 4 c 0,58,59
 166 4 166 4 156.5 9 c 128,-1,60
 147 14 147 14 139.5 21.5 c 128,-1,61
 132 29 132 29 127 38.5 c 128,-1,62
 122 48 122 48 122 57 c 2,63,-1
 122 508 l 2,0,1
EndSplineSet
EndChar

StartChar: M
Encoding: 77 77 48
Width: 2078
Flags: W
LayerCount: 2
Fore
SplineSet
1063 889 m 0,0,1
 1064 893 1064 893 1077 920.5 c 128,-1,2
 1090 948 1090 948 1108 988 c 128,-1,3
 1126 1028 1126 1028 1147.5 1075 c 128,-1,4
 1169 1122 1169 1122 1188.5 1164 c 128,-1,5
 1208 1206 1208 1206 1222.5 1238 c 128,-1,6
 1237 1270 1237 1270 1241 1280 c 0,7,8
 1248 1295 1248 1295 1258.5 1312 c 128,-1,9
 1269 1329 1269 1329 1279 1343.5 c 128,-1,10
 1289 1358 1289 1358 1298 1367 c 128,-1,11
 1307 1376 1307 1376 1312 1376 c 0,12,13
 1348 1376 1348 1376 1471.5 1377 c 128,-1,14
 1595 1378 1595 1378 1818 1378 c 0,15,16
 1837 1378 1837 1378 1848 1377.5 c 128,-1,17
 1859 1377 1859 1377 1870 1377 c 128,-1,18
 1881 1377 1881 1377 1896.5 1376.5 c 128,-1,19
 1912 1376 1912 1376 1941 1376 c 0,20,21
 1946 1376 1946 1376 1949 1345 c 128,-1,22
 1952 1314 1952 1314 1954 1263 c 128,-1,23
 1956 1212 1956 1212 1957.5 1146.5 c 128,-1,24
 1959 1081 1959 1081 1959.5 1012 c 128,-1,25
 1960 943 1960 943 1960 877 c 128,-1,26
 1960 811 1960 811 1960 758 c 0,27,28
 1960 682 1960 682 1954.5 604 c 128,-1,29
 1949 526 1949 526 1943 451 c 1,30,31
 1943 421 1943 421 1944 378.5 c 128,-1,32
 1945 336 1945 336 1945.5 290 c 128,-1,33
 1946 244 1946 244 1947 199 c 128,-1,34
 1948 154 1948 154 1948.5 118 c 128,-1,35
 1949 82 1949 82 1949.5 59.5 c 128,-1,36
 1950 37 1950 37 1951 37 c 2,37,-1
 1945 20 l 1,38,-1
 1853 -2 l 2,39,40
 1852 -2 1852 -2 1837 -2.5 c 128,-1,41
 1822 -3 1822 -3 1802 -3 c 128,-1,42
 1782 -3 1782 -3 1760.5 -3.5 c 128,-1,43
 1739 -4 1739 -4 1726 -4 c 0,44,45
 1685 -4 1685 -4 1646.5 -2.5 c 128,-1,46
 1608 -1 1608 -1 1570.5 1 c 128,-1,47
 1533 3 1533 3 1494.5 6 c 128,-1,48
 1456 9 1456 9 1415 12 c 0,49,50
 1413 12 1413 12 1406 11 c 128,-1,51
 1399 10 1399 10 1392 10 c 256,52,53
 1385 10 1385 10 1380 31.5 c 128,-1,54
 1375 53 1375 53 1371.5 89 c 128,-1,55
 1368 125 1368 125 1366.5 173 c 128,-1,56
 1365 221 1365 221 1364 275 c 128,-1,57
 1363 329 1363 329 1362.5 384.5 c 128,-1,58
 1362 440 1362 440 1362 492 c 0,59,60
 1362 498 1362 498 1357.5 503 c 128,-1,61
 1353 508 1353 508 1345 508 c 0,62,63
 1340 508 1340 508 1331 487.5 c 128,-1,64
 1322 467 1322 467 1311 439 c 128,-1,65
 1300 411 1300 411 1289.5 381 c 128,-1,66
 1279 351 1279 351 1272 332 c 1,67,68
 1269 328 1269 328 1261.5 310 c 128,-1,69
 1254 292 1254 292 1241.5 268 c 128,-1,70
 1229 244 1229 244 1213.5 217 c 128,-1,71
 1198 190 1198 190 1179 167.5 c 128,-1,72
 1160 145 1160 145 1139 130 c 128,-1,73
 1118 115 1118 115 1095 115 c 0,74,75
 1084 115 1084 115 1064.5 115 c 128,-1,76
 1045 115 1045 115 1023 115.5 c 128,-1,77
 1001 116 1001 116 978.5 116.5 c 128,-1,78
 956 117 956 117 938 119 c 1,79,80
 880 210 880 210 843.5 282 c 128,-1,81
 807 354 807 354 785 404.5 c 128,-1,82
 763 455 763 455 752.5 481.5 c 128,-1,83
 742 508 742 508 737 508 c 0,84,85
 729 508 729 508 725 503 c 128,-1,86
 721 498 721 498 721 492 c 0,87,88
 721 448 721 448 721 395 c 128,-1,89
 721 342 721 342 720.5 288.5 c 128,-1,90
 720 235 720 235 718.5 184.5 c 128,-1,91
 717 134 717 134 713.5 95.5 c 128,-1,92
 710 57 710 57 704.5 33.5 c 128,-1,93
 699 10 699 10 690 10 c 0,94,95
 684 10 684 10 676.5 11 c 128,-1,96
 669 12 669 12 667 12 c 0,97,98
 586 6 586 6 512 1 c 128,-1,99
 438 -4 438 -4 356 -4 c 0,100,101
 343 -4 343 -4 321.5 -3.5 c 128,-1,102
 300 -3 300 -3 280 -3 c 128,-1,103
 260 -3 260 -3 245 -2.5 c 128,-1,104
 230 -2 230 -2 229 -2 c 2,105,-1
 137 20 l 1,106,-1
 131 37 l 2,107,108
 130 37 130 37 129 59.5 c 128,-1,109
 128 82 128 82 126.5 118 c 128,-1,110
 125 154 125 154 124 199 c 128,-1,111
 123 244 123 244 122 290 c 128,-1,112
 121 336 121 336 120 378.5 c 128,-1,113
 119 421 119 421 118 451 c 1,114,115
 120 557 120 557 124.5 659 c 128,-1,116
 129 761 129 761 129 874 c 0,117,118
 129 878 129 878 128 890 c 128,-1,119
 127 902 127 902 126 915 c 128,-1,120
 125 928 125 928 124 939.5 c 128,-1,121
 123 951 123 951 123 954 c 0,122,123
 123 985 123 985 124.5 1009.5 c 128,-1,124
 126 1034 126 1034 128 1060 c 128,-1,125
 130 1086 130 1086 131.5 1116 c 128,-1,126
 133 1146 133 1146 133 1188 c 0,127,128
 133 1194 133 1194 132.5 1209.5 c 128,-1,129
 132 1225 132 1225 131 1243 c 128,-1,130
 130 1261 130 1261 129.5 1276.5 c 128,-1,131
 129 1292 129 1292 129 1298 c 1,132,133
 127 1300 127 1300 125 1305 c 128,-1,134
 123 1310 123 1310 123 1313 c 0,135,136
 123 1335 123 1335 140 1348 c 128,-1,137
 157 1361 157 1361 180.5 1367.5 c 128,-1,138
 204 1374 204 1374 227.5 1376 c 128,-1,139
 251 1378 251 1378 264 1378 c 0,140,141
 487 1378 487 1378 611 1377 c 128,-1,142
 735 1376 735 1376 770 1376 c 0,143,144
 775 1376 775 1376 784 1367 c 128,-1,145
 793 1358 793 1358 803 1343.5 c 128,-1,146
 813 1329 813 1329 823 1312 c 128,-1,147
 833 1295 833 1295 841 1280 c 1,148,149
 845 1270 845 1270 857.5 1237.5 c 128,-1,150
 870 1205 870 1205 886.5 1162.5 c 128,-1,151
 903 1120 903 1120 922 1073 c 128,-1,152
 941 1026 941 1026 957 986 c 128,-1,153
 973 946 973 946 984.5 918.5 c 128,-1,154
 996 891 996 891 999 889 c 1,155,156
 1013 856 1013 856 1030 856 c 0,157,158
 1041 856 1041 856 1049.5 866 c 128,-1,159
 1058 876 1058 876 1063 889 c 0,0,1
EndSplineSet
EndChar

StartChar: N
Encoding: 78 78 49
Width: 1787
Flags: W
LayerCount: 2
Fore
SplineSet
1665 459 m 0,0,1
 1665 344 1665 344 1664.5 265.5 c 128,-1,2
 1664 187 1664 187 1662 135.5 c 128,-1,3
 1660 84 1660 84 1655.5 56 c 128,-1,4
 1651 28 1651 28 1642.5 15.5 c 128,-1,5
 1634 3 1634 3 1621 0.5 c 128,-1,6
 1608 -2 1608 -2 1589 -2 c 1,7,8
 1590 -2 1590 -2 1554 -1.5 c 128,-1,9
 1518 -1 1518 -1 1462.5 -1 c 128,-1,10
 1407 -1 1407 -1 1341 -0.5 c 128,-1,11
 1275 0 1275 0 1216 0 c 0,12,13
 1204 0 1204 0 1186 -1.5 c 128,-1,14
 1168 -3 1168 -3 1147.5 -0.5 c 128,-1,15
 1127 2 1127 2 1105 10 c 128,-1,16
 1083 18 1083 18 1064 37 c 1,17,-1
 856 330 l 2,18,19
 852 337 852 337 838.5 359 c 128,-1,20
 825 381 825 381 810 405 c 128,-1,21
 795 429 795 429 781 447.5 c 128,-1,22
 767 466 767 466 761 466 c 0,23,24
 753 466 753 466 749 461 c 128,-1,25
 745 456 745 456 745 450 c 0,26,27
 745 436 745 436 744.5 406 c 128,-1,28
 744 376 744 376 743.5 338 c 128,-1,29
 743 300 743 300 742 258.5 c 128,-1,30
 741 217 741 217 740.5 180.5 c 128,-1,31
 740 144 740 144 739.5 115.5 c 128,-1,32
 739 87 739 87 739 76 c 0,33,34
 739 59 739 59 740 46.5 c 128,-1,35
 741 34 741 34 737.5 25.5 c 128,-1,36
 734 17 734 17 724 13.5 c 128,-1,37
 714 10 714 10 692 12 c 1,38,39
 610 6 610 6 536 1 c 128,-1,40
 462 -4 462 -4 380 -4 c 0,41,42
 367 -4 367 -4 346 -3.5 c 128,-1,43
 325 -3 325 -3 305 -3 c 128,-1,44
 285 -3 285 -3 269.5 -2.5 c 128,-1,45
 254 -2 254 -2 253 -2 c 2,46,-1
 161 20 l 1,47,-1
 155 37 l 2,48,49
 154 37 154 37 153 59.5 c 128,-1,50
 152 82 152 82 150.5 118 c 128,-1,51
 149 154 149 154 148 199 c 128,-1,52
 147 244 147 244 146 290 c 128,-1,53
 145 336 145 336 144 378.5 c 128,-1,54
 143 421 143 421 143 451 c 1,55,56
 131 556 131 556 129.5 662 c 128,-1,57
 128 768 128 768 129.5 873.5 c 128,-1,58
 131 979 131 979 133.5 1085 c 128,-1,59
 136 1191 136 1191 133 1298 c 1,60,61
 128 1324 128 1324 135.5 1340 c 128,-1,62
 143 1356 143 1356 158.5 1364.5 c 128,-1,63
 174 1373 174 1373 193.5 1375.5 c 128,-1,64
 213 1378 213 1378 232 1378 c 0,65,66
 338 1378 338 1378 422.5 1383 c 128,-1,67
 507 1388 507 1388 568 1391.5 c 128,-1,68
 629 1395 629 1395 665 1393 c 128,-1,69
 701 1391 701 1391 712 1376 c 0,70,71
 718 1368 718 1368 737 1341.5 c 128,-1,72
 756 1315 756 1315 783 1275 c 128,-1,73
 810 1235 810 1235 843 1185.5 c 128,-1,74
 876 1136 876 1136 911 1083.5 c 128,-1,75
 946 1031 946 1031 981 978.5 c 128,-1,76
 1016 926 1016 926 1046 881 c 1,77,78
 1047 917 1047 917 1047.5 963.5 c 128,-1,79
 1048 1010 1048 1010 1049 1059 c 128,-1,80
 1050 1108 1050 1108 1051 1155 c 128,-1,81
 1052 1202 1052 1202 1053.5 1239.5 c 128,-1,82
 1055 1277 1055 1277 1056.5 1300 c 128,-1,83
 1058 1323 1058 1323 1060 1325 c 0,84,85
 1064 1329 1064 1329 1073 1337 c 128,-1,86
 1082 1345 1082 1345 1094.5 1353.5 c 128,-1,87
 1107 1362 1107 1362 1122.5 1367.5 c 128,-1,88
 1138 1373 1138 1373 1155 1372 c 1,89,-1
 1271 1372 l 2,90,91
 1274 1372 1274 1372 1297 1371.5 c 128,-1,92
 1320 1371 1320 1371 1353 1370.5 c 128,-1,93
 1386 1370 1386 1370 1424.5 1369 c 128,-1,94
 1463 1368 1463 1368 1496 1367.5 c 128,-1,95
 1529 1367 1529 1367 1551.5 1366.5 c 128,-1,96
 1574 1366 1574 1366 1576 1366 c 0,97,98
 1600 1366 1600 1366 1618 1363 c 128,-1,99
 1636 1360 1636 1360 1647.5 1351 c 128,-1,100
 1659 1342 1659 1342 1665 1325 c 128,-1,101
 1671 1308 1671 1308 1671 1280 c 0,102,103
 1671 1274 1671 1274 1669.5 1259 c 128,-1,104
 1668 1244 1668 1244 1666.5 1226.5 c 128,-1,105
 1665 1209 1665 1209 1663.5 1193 c 128,-1,106
 1662 1177 1662 1177 1662 1169 c 256,107,108
 1662 1161 1662 1161 1665.5 1151 c 128,-1,109
 1669 1141 1669 1141 1669 1130 c 0,110,111
 1669 1117 1669 1117 1668.5 1066 c 128,-1,112
 1668 1015 1668 1015 1668 945.5 c 128,-1,113
 1668 876 1668 876 1667 797 c 128,-1,114
 1666 718 1666 718 1666 647.5 c 128,-1,115
 1666 577 1666 577 1665.5 525.5 c 128,-1,116
 1665 474 1665 474 1665 459 c 0,0,1
EndSplineSet
EndChar

StartChar: O
Encoding: 79 79 50
Width: 1759
Flags: W
LayerCount: 2
Fore
SplineSet
897 -49 m 0,0,1
 797 -49 797 -49 699 -42 c 128,-1,2
 601 -35 601 -35 512 -11.5 c 128,-1,3
 423 12 423 12 346.5 57 c 128,-1,4
 270 102 270 102 214 179 c 128,-1,5
 158 256 158 256 126 369 c 128,-1,6
 94 482 94 482 94 641 c 0,7,8
 94 850 94 850 140.5 998 c 128,-1,9
 187 1146 187 1146 286.5 1240.5 c 128,-1,10
 386 1335 386 1335 542 1379 c 128,-1,11
 698 1423 698 1423 917 1423 c 0,12,13
 991 1423 991 1423 1075.5 1411 c 128,-1,14
 1160 1399 1160 1399 1243.5 1369.5 c 128,-1,15
 1327 1340 1327 1340 1403.5 1289.5 c 128,-1,16
 1480 1239 1480 1239 1538.5 1161.5 c 128,-1,17
 1597 1084 1597 1084 1632 977 c 128,-1,18
 1667 870 1667 870 1667 727 c 0,19,20
 1667 563 1667 563 1642 442 c 128,-1,21
 1617 321 1617 321 1569.5 234.5 c 128,-1,22
 1522 148 1522 148 1454 93 c 128,-1,23
 1386 38 1386 38 1300.5 6.5 c 128,-1,24
 1215 -25 1215 -25 1113.5 -37 c 128,-1,25
 1012 -49 1012 -49 897 -49 c 0,0,1
788 670 m 0,26,27
 788 639 788 639 788.5 588 c 128,-1,28
 789 537 789 537 791.5 479 c 128,-1,29
 794 421 794 421 799.5 362 c 128,-1,30
 805 303 805 303 815 255 c 128,-1,31
 825 207 825 207 841 177 c 128,-1,32
 857 147 857 147 880 147 c 0,33,34
 904 147 904 147 920 181 c 128,-1,35
 936 215 936 215 946.5 268 c 128,-1,36
 957 321 957 321 963 386.5 c 128,-1,37
 969 452 969 452 971.5 514.5 c 128,-1,38
 974 577 974 577 974.5 630 c 128,-1,39
 975 683 975 683 975 711 c 0,40,41
 975 720 975 720 974.5 762 c 128,-1,42
 974 804 974 804 971.5 861.5 c 128,-1,43
 969 919 969 919 963 983.5 c 128,-1,44
 957 1048 957 1048 946.5 1102.5 c 128,-1,45
 936 1157 936 1157 920 1193 c 128,-1,46
 904 1229 904 1229 880 1229 c 0,47,48
 857 1229 857 1229 841 1205 c 128,-1,49
 825 1181 825 1181 815 1139.5 c 128,-1,50
 805 1098 805 1098 799.5 1043 c 128,-1,51
 794 988 794 988 791.5 926 c 128,-1,52
 789 864 789 864 788.5 798 c 128,-1,53
 788 732 788 732 788 670 c 0,26,27
EndSplineSet
EndChar

StartChar: P
Encoding: 80 80 51
Width: 1719
Flags: W
LayerCount: 2
Fore
SplineSet
119 1321 m 2,0,1
 119 1340 119 1340 136 1357 c 128,-1,2
 153 1374 153 1374 172 1374 c 0,3,4
 309 1374 309 1374 408 1372 c 128,-1,5
 507 1370 507 1370 579 1370 c 0,6,7
 691 1370 691 1370 817.5 1373 c 128,-1,8
 944 1376 944 1376 1095 1376 c 0,9,10
 1151 1376 1151 1376 1214.5 1368.5 c 128,-1,11
 1278 1361 1278 1361 1341 1341 c 128,-1,12
 1404 1321 1404 1321 1462 1287 c 128,-1,13
 1520 1253 1520 1253 1564 1201 c 128,-1,14
 1608 1149 1608 1149 1634.5 1076 c 128,-1,15
 1661 1003 1661 1003 1661 905 c 0,16,17
 1661 744 1661 744 1620 633 c 128,-1,18
 1579 522 1579 522 1504 454 c 128,-1,19
 1429 386 1429 386 1323 356 c 128,-1,20
 1217 326 1217 326 1087 326 c 2,21,-1
 807 326 l 1,22,23
 808 290 808 290 808.5 268 c 128,-1,24
 809 246 809 246 808.5 225 c 128,-1,25
 808 204 808 204 807.5 179 c 128,-1,26
 807 154 807 154 807 113 c 0,27,28
 807 76 807 76 799.5 55 c 128,-1,29
 792 34 792 34 777.5 23.5 c 128,-1,30
 763 13 763 13 742 10.5 c 128,-1,31
 721 8 721 8 694 8 c 0,32,33
 623 8 623 8 569.5 7 c 128,-1,34
 516 6 516 6 461.5 5 c 128,-1,35
 407 4 407 4 342.5 3 c 128,-1,36
 278 2 278 2 184 2 c 0,37,38
 165 2 165 2 154 14 c 128,-1,39
 143 26 143 26 137.5 44.5 c 128,-1,40
 132 63 132 63 130.5 85 c 128,-1,41
 129 107 129 107 129 127 c 0,42,43
 129 175 129 175 127.5 258.5 c 128,-1,44
 126 342 126 342 124 444 c 128,-1,45
 122 546 122 546 120.5 657 c 128,-1,46
 119 768 119 768 119 870 c 2,47,-1
 119 1321 l 2,0,1
823 578 m 0,48,49
 823 576 823 576 834 574 c 0,50,51
 842 572 842 572 861 571.5 c 128,-1,52
 880 571 880 571 915 571 c 0,53,54
 939 571 939 571 955 594 c 128,-1,55
 971 617 971 617 981.5 652.5 c 128,-1,56
 992 688 992 688 997.5 732 c 128,-1,57
 1003 776 1003 776 1005.5 818 c 128,-1,58
 1008 860 1008 860 1008.5 895.5 c 128,-1,59
 1009 931 1009 931 1009 950 c 0,60,61
 1009 953 1009 953 1008.5 971.5 c 128,-1,62
 1008 990 1008 990 1005.5 1016 c 128,-1,63
 1003 1042 1003 1042 997.5 1071 c 128,-1,64
 992 1100 992 1100 981.5 1124.5 c 128,-1,65
 971 1149 971 1149 954.5 1165.5 c 128,-1,66
 938 1182 938 1182 915 1182 c 0,67,68
 898 1182 898 1182 884.5 1156 c 128,-1,69
 871 1130 871 1130 861.5 1087.5 c 128,-1,70
 852 1045 852 1045 845 991 c 128,-1,71
 838 937 838 937 834 880 c 0,72,73
 823 747 823 747 823 578 c 0,48,49
EndSplineSet
EndChar

StartChar: Q
Encoding: 81 81 52
Width: 1718
Flags: W
LayerCount: 2
Fore
SplineSet
1636 727 m 0,0,1
 1636 560 1636 560 1610 437.5 c 128,-1,2
 1584 315 1584 315 1535 228.5 c 128,-1,3
 1486 142 1486 142 1416.5 87.5 c 128,-1,4
 1347 33 1347 33 1259 2 c 1,5,6
 1283 -29 1283 -29 1307 -62.5 c 128,-1,7
 1331 -96 1331 -96 1350.5 -127 c 128,-1,8
 1370 -158 1370 -158 1382.5 -183.5 c 128,-1,9
 1395 -209 1395 -209 1395 -223 c 0,10,11
 1394 -244 1394 -244 1373.5 -262.5 c 128,-1,12
 1353 -281 1353 -281 1325 -298 c 128,-1,13
 1297 -315 1297 -315 1268 -330.5 c 128,-1,14
 1239 -346 1239 -346 1220 -360 c 1,15,16
 1202 -365 1202 -365 1183 -371.5 c 128,-1,17
 1164 -378 1164 -378 1143 -383 c 1,18,19
 1139 -386 1139 -386 1116 -393.5 c 128,-1,20
 1093 -401 1093 -401 1066 -408.5 c 128,-1,21
 1039 -416 1039 -416 1016 -421.5 c 128,-1,22
 993 -427 993 -427 989 -426 c 1,23,24
 987 -435 987 -435 980 -435 c 128,-1,25
 973 -435 973 -435 973 -436 c 1,26,27
 972 -436 972 -436 967.5 -435 c 128,-1,28
 963 -434 963 -434 954.5 -429.5 c 128,-1,29
 946 -425 946 -425 933.5 -415 c 128,-1,30
 921 -405 921 -405 903 -387 c 1,31,32
 898 -376 898 -376 895.5 -375.5 c 128,-1,33
 893 -375 893 -375 891 -375 c 1,34,35
 888 -373 888 -373 885.5 -371.5 c 128,-1,36
 883 -370 883 -370 878 -362 c 2,37,-1
 717 -96 l 2,38,39
 714 -90 714 -90 705.5 -75 c 128,-1,40
 697 -60 697 -60 686 -43 c 1,41,42
 603 -37 603 -37 524.5 -21.5 c 128,-1,43
 446 -6 446 -6 377 25 c 128,-1,44
 308 56 308 56 250 105.5 c 128,-1,45
 192 155 192 155 150.5 229 c 128,-1,46
 109 303 109 303 86 404.5 c 128,-1,47
 63 506 63 506 63 641 c 0,48,49
 63 850 63 850 109.5 998 c 128,-1,50
 156 1146 156 1146 255.5 1240.5 c 128,-1,51
 355 1335 355 1335 511 1379 c 128,-1,52
 667 1423 667 1423 887 1423 c 0,53,54
 961 1423 961 1423 1045.5 1411 c 128,-1,55
 1130 1399 1130 1399 1213 1369.5 c 128,-1,56
 1296 1340 1296 1340 1372.5 1289.5 c 128,-1,57
 1449 1239 1449 1239 1507.5 1161.5 c 128,-1,58
 1566 1084 1566 1084 1601 977 c 128,-1,59
 1636 870 1636 870 1636 727 c 0,0,1
758 670 m 0,60,61
 758 639 758 639 758.5 588 c 128,-1,62
 759 537 759 537 761.5 479 c 128,-1,63
 764 421 764 421 769.5 362 c 128,-1,64
 775 303 775 303 785 255 c 128,-1,65
 795 207 795 207 811 177 c 128,-1,66
 827 147 827 147 850 147 c 256,67,68
 873 147 873 147 889.5 181 c 128,-1,69
 906 215 906 215 916.5 268 c 128,-1,70
 927 321 927 321 932.5 386.5 c 128,-1,71
 938 452 938 452 940.5 514.5 c 128,-1,72
 943 577 943 577 943.5 630 c 128,-1,73
 944 683 944 683 944 711 c 0,74,75
 944 720 944 720 943.5 762 c 128,-1,76
 943 804 943 804 940.5 861.5 c 128,-1,77
 938 919 938 919 932.5 983.5 c 128,-1,78
 927 1048 927 1048 916.5 1102.5 c 128,-1,79
 906 1157 906 1157 889.5 1193 c 128,-1,80
 873 1229 873 1229 850 1229 c 256,81,82
 827 1229 827 1229 811 1205 c 128,-1,83
 795 1181 795 1181 785 1139.5 c 128,-1,84
 775 1098 775 1098 769.5 1043 c 128,-1,85
 764 988 764 988 761.5 926 c 128,-1,86
 759 864 759 864 758.5 798 c 128,-1,87
 758 732 758 732 758 670 c 0,60,61
EndSplineSet
EndChar

StartChar: R
Encoding: 82 82 53
Width: 1787
Flags: W
LayerCount: 2
Fore
SplineSet
1150 -27 m 1,0,1
 1147 -16 1147 -16 1144 -14 c 128,-1,2
 1141 -12 1141 -12 1139 -12 c 256,3,4
 1137 -12 1137 -12 1134.5 -10 c 128,-1,5
 1132 -8 1132 -8 1127 -2 c 2,6,-1
 953 256 l 2,7,8
 949 263 949 263 938.5 279.5 c 128,-1,9
 928 296 928 296 915.5 313 c 128,-1,10
 903 330 903 330 891.5 343 c 128,-1,11
 880 356 880 356 875 356 c 0,12,13
 866 356 866 356 862.5 330.5 c 128,-1,14
 859 305 859 305 857.5 267 c 128,-1,15
 856 229 856 229 855.5 184 c 128,-1,16
 855 139 855 139 852.5 101 c 128,-1,17
 850 63 850 63 844.5 37.5 c 128,-1,18
 839 12 839 12 828 12 c 0,19,20
 820 12 820 12 813 13 c 128,-1,21
 806 14 806 14 804 14 c 0,22,23
 694 8 694 8 589.5 2 c 128,-1,24
 485 -4 485 -4 376 -4 c 0,25,26
 363 -4 363 -4 341 -3.5 c 128,-1,27
 319 -3 319 -3 298 -3 c 128,-1,28
 277 -3 277 -3 261 -2.5 c 128,-1,29
 245 -2 245 -2 244 -2 c 2,30,-1
 171 23 l 1,31,-1
 163 39 l 1,32,33
 163 39 163 39 160.5 62.5 c 128,-1,34
 158 86 158 86 155 123 c 128,-1,35
 152 160 152 160 148.5 207 c 128,-1,36
 145 254 145 254 141.5 301 c 128,-1,37
 138 348 138 348 135 392 c 128,-1,38
 132 436 132 436 130 467 c 0,39,40
 125 545 125 545 119 625.5 c 128,-1,41
 113 706 113 706 113 784 c 0,42,43
 113 789 113 789 114.5 807 c 128,-1,44
 116 825 116 825 117.5 845 c 128,-1,45
 119 865 119 865 120.5 882.5 c 128,-1,46
 122 900 122 900 122 905 c 0,47,48
 122 972 122 972 116.5 1032 c 128,-1,49
 111 1092 111 1092 111 1161 c 0,50,51
 111 1209 111 1209 113.5 1253 c 128,-1,52
 116 1297 116 1297 124.5 1330.5 c 128,-1,53
 133 1364 133 1364 148 1384.5 c 128,-1,54
 163 1405 163 1405 187 1405 c 0,55,56
 298 1405 298 1405 417.5 1403.5 c 128,-1,57
 537 1402 537 1402 657.5 1399 c 128,-1,58
 778 1396 778 1396 897 1392.5 c 128,-1,59
 1016 1389 1016 1389 1125 1386 c 0,60,61
 1263 1382 1263 1382 1361.5 1347 c 128,-1,62
 1460 1312 1460 1312 1523 1256 c 128,-1,63
 1586 1200 1586 1200 1615.5 1128.5 c 128,-1,64
 1645 1057 1645 1057 1645 979 c 0,65,66
 1645 926 1645 926 1635 882.5 c 128,-1,67
 1625 839 1625 839 1608.5 803 c 128,-1,68
 1592 767 1592 767 1571 738.5 c 128,-1,69
 1550 710 1550 710 1528 688 c 0,70,71
 1477 637 1477 637 1412 606 c 1,72,73
 1428 592 1428 592 1444 578 c 0,74,75
 1458 566 1458 566 1472.5 553 c 128,-1,76
 1487 540 1487 540 1500 532 c 1,77,78
 1510 519 1510 519 1530.5 494 c 128,-1,79
 1551 469 1551 469 1576 438 c 128,-1,80
 1601 407 1601 407 1628 373 c 128,-1,81
 1655 339 1655 339 1677 308 c 128,-1,82
 1699 277 1699 277 1713 251 c 128,-1,83
 1727 225 1727 225 1727 211 c 0,84,85
 1727 190 1727 190 1707.5 170.5 c 128,-1,86
 1688 151 1688 151 1660.5 133 c 128,-1,87
 1633 115 1633 115 1604 98 c 128,-1,88
 1575 81 1575 81 1557 66 c 1,89,90
 1520 47 1520 47 1480 24.5 c 128,-1,91
 1440 2 1440 2 1393 -12 c 0,92,93
 1390 -13 1390 -13 1377 -18 c 128,-1,94
 1364 -23 1364 -23 1347 -29 c 128,-1,95
 1330 -35 1330 -35 1310.5 -41 c 128,-1,96
 1291 -47 1291 -47 1275 -52 c 128,-1,97
 1259 -57 1259 -57 1249 -59 c 128,-1,98
 1239 -61 1239 -61 1240 -59 c 1,99,100
 1235 -70 1235 -70 1230 -70 c 128,-1,101
 1225 -70 1225 -70 1223 -70 c 0,102,103
 1222 -70 1222 -70 1218 -70 c 128,-1,104
 1214 -70 1214 -70 1205 -66 c 128,-1,105
 1196 -62 1196 -62 1182.5 -53.5 c 128,-1,106
 1169 -45 1169 -45 1150 -27 c 1,0,1
831 659 m 1,107,108
 832 657 832 657 837 656 c 0,109,110
 842 654 842 654 852 653.5 c 128,-1,111
 862 653 862 653 882 653 c 0,112,113
 918 653 918 653 943 671 c 128,-1,114
 968 689 968 689 984 717 c 128,-1,115
 1000 745 1000 745 1009 779.5 c 128,-1,116
 1018 814 1018 814 1022 847 c 128,-1,117
 1026 880 1026 880 1026.5 907.5 c 128,-1,118
 1027 935 1027 935 1027 950 c 0,119,120
 1027 953 1027 953 1026.5 971.5 c 128,-1,121
 1026 990 1026 990 1022 1016 c 128,-1,122
 1018 1042 1018 1042 1009 1071 c 128,-1,123
 1000 1100 1000 1100 984 1124.5 c 128,-1,124
 968 1149 968 1149 943 1165.5 c 128,-1,125
 918 1182 918 1182 882 1182 c 0,126,127
 872 1182 872 1182 864.5 1159.5 c 128,-1,128
 857 1137 857 1137 852 1100 c 128,-1,129
 847 1063 847 1063 843 1016 c 128,-1,130
 839 969 839 969 837 920 c 0,131,132
 832 805 832 805 831 659 c 1,107,108
EndSplineSet
EndChar

StartChar: S
Encoding: 83 83 54
Width: 1476
Flags: W
LayerCount: 2
Fore
SplineSet
1372 412 m 1,0,1
 1364 329 1364 329 1332.5 262.5 c 128,-1,2
 1301 196 1301 196 1252.5 145 c 128,-1,3
 1204 94 1204 94 1140 57 c 128,-1,4
 1076 20 1076 20 1003 -3.5 c 128,-1,5
 930 -27 930 -27 849.5 -38 c 128,-1,6
 769 -49 769 -49 688 -49 c 0,7,8
 613 -49 613 -49 539 -40.5 c 128,-1,9
 465 -32 465 -32 396 -16.5 c 128,-1,10
 327 -1 327 -1 265.5 22.5 c 128,-1,11
 204 46 204 46 155 76 c 1,12,13
 128 162 128 162 114 252.5 c 128,-1,14
 100 343 100 343 88 436 c 1,15,-1
 88 442 l 1,16,17
 90 452 90 452 96.5 462.5 c 128,-1,18
 103 473 103 473 114 479 c 1,19,20
 188 433 188 433 260.5 409 c 128,-1,21
 333 385 333 385 422 385 c 0,22,23
 440 385 440 385 472 383 c 128,-1,24
 504 381 504 381 537 384 c 128,-1,25
 570 387 570 387 598.5 398 c 128,-1,26
 627 409 627 409 637 434 c 1,27,28
 584 462 584 462 525.5 489.5 c 128,-1,29
 467 517 467 517 411 548.5 c 128,-1,30
 355 580 355 580 304 617 c 128,-1,31
 253 654 253 654 214.5 701.5 c 128,-1,32
 176 749 176 749 153.5 809 c 128,-1,33
 131 869 131 869 131 946 c 0,34,35
 131 1045 131 1045 161 1119 c 128,-1,36
 191 1193 191 1193 242.5 1246 c 128,-1,37
 294 1299 294 1299 363 1333.5 c 128,-1,38
 432 1368 432 1368 509.5 1387.5 c 128,-1,39
 587 1407 587 1407 669 1415 c 128,-1,40
 751 1423 751 1423 829 1423 c 0,41,42
 911 1423 911 1423 981 1416 c 128,-1,43
 1051 1409 1051 1409 1111.5 1399.5 c 128,-1,44
 1172 1390 1172 1390 1224.5 1380.5 c 128,-1,45
 1277 1371 1277 1371 1325 1366 c 0,46,47
 1330 1365 1330 1365 1334.5 1360.5 c 128,-1,48
 1339 1356 1339 1356 1343 1350.5 c 128,-1,49
 1347 1345 1347 1345 1351 1340.5 c 128,-1,50
 1355 1336 1355 1336 1360 1335 c 0,51,52
 1362 1335 1362 1335 1362 1336 c 128,-1,53
 1362 1337 1362 1337 1364 1337 c 1,54,55
 1367 1282 1367 1282 1373.5 1228 c 128,-1,56
 1380 1174 1380 1174 1380 1118 c 0,57,58
 1380 1100 1380 1100 1379 1081 c 128,-1,59
 1378 1062 1378 1062 1373.5 1044 c 128,-1,60
 1369 1026 1369 1026 1360 1010.5 c 128,-1,61
 1351 995 1351 995 1335 985 c 1,62,-1
 1147 1008 l 2,63,64
 1139 1008 1139 1008 1127 1009 c 128,-1,65
 1115 1010 1115 1010 1098 1010 c 0,66,67
 1065 1010 1065 1010 1021 1005.5 c 128,-1,68
 977 1001 977 1001 937.5 994.5 c 128,-1,69
 898 988 898 988 871 982 c 128,-1,70
 844 976 844 976 844 973 c 0,71,72
 844 943 844 943 863.5 920 c 128,-1,73
 883 897 883 897 910 880.5 c 128,-1,74
 937 864 937 864 964.5 853.5 c 128,-1,75
 992 843 992 843 1007 838 c 0,76,77
 1085 816 1085 816 1153.5 776.5 c 128,-1,78
 1222 737 1222 737 1272 687.5 c 128,-1,79
 1322 638 1322 638 1351 583 c 128,-1,80
 1380 528 1380 528 1380 477 c 0,81,82
 1380 460 1380 460 1378.5 446 c 128,-1,83
 1377 432 1377 432 1372 412 c 1,0,1
EndSplineSet
EndChar

StartChar: T
Encoding: 84 84 55
Width: 1479
Flags: W
LayerCount: 2
Fore
SplineSet
388 899 m 0,0,1
 388 901 388 901 380 905 c 1,2,-1
 154 905 l 2,3,4
 125 905 125 905 109.5 938.5 c 128,-1,5
 94 972 94 972 86.5 1019 c 128,-1,6
 79 1066 79 1066 78 1115 c 128,-1,7
 77 1164 77 1164 77 1196 c 0,8,9
 77 1204 77 1204 77.5 1221.5 c 128,-1,10
 78 1239 78 1239 78.5 1257 c 128,-1,11
 79 1275 79 1275 79.5 1289 c 128,-1,12
 80 1303 80 1303 80 1304 c 0,13,14
 80 1319 80 1319 91.5 1327.5 c 128,-1,15
 103 1336 103 1336 119.5 1340.5 c 128,-1,16
 136 1345 136 1345 153.5 1346.5 c 128,-1,17
 171 1348 171 1348 183 1348 c 0,18,19
 258 1348 258 1348 337 1346 c 128,-1,20
 416 1344 416 1344 491 1344 c 2,21,-1
 1228 1344 l 2,22,23
 1296 1344 1296 1344 1333 1340.5 c 128,-1,24
 1370 1337 1370 1337 1387 1329.5 c 128,-1,25
 1404 1322 1404 1322 1407 1311 c 128,-1,26
 1410 1300 1410 1300 1410 1285 c 2,27,-1
 1410 946 l 2,28,29
 1410 934 1410 934 1404 927.5 c 128,-1,30
 1398 921 1398 921 1389.5 918 c 128,-1,31
 1381 915 1381 915 1371.5 914.5 c 128,-1,32
 1362 914 1362 914 1355 914 c 0,33,34
 1327 914 1327 914 1293 914 c 128,-1,35
 1259 914 1259 914 1223.5 914 c 128,-1,36
 1188 914 1188 914 1153.5 914.5 c 128,-1,37
 1119 915 1119 915 1090 915 c 0,38,39
 1082 915 1082 915 1077.5 914.5 c 128,-1,40
 1073 914 1073 914 1070.5 909.5 c 128,-1,41
 1068 905 1068 905 1067 895 c 128,-1,42
 1066 885 1066 885 1066 866 c 0,43,44
 1066 851 1066 851 1065.5 796 c 128,-1,45
 1065 741 1065 741 1062.5 662 c 128,-1,46
 1060 583 1060 583 1055.5 489 c 128,-1,47
 1051 395 1051 395 1044 303 c 1,48,-1
 1044 106 l 2,49,50
 1044 68 1044 68 1036.5 48.5 c 128,-1,51
 1029 29 1029 29 1014.5 20 c 128,-1,52
 1000 11 1000 11 977.5 9 c 128,-1,53
 955 7 955 7 925 4 c 1,54,55
 863 4 863 4 813.5 3 c 128,-1,56
 764 2 764 2 711.5 1 c 128,-1,57
 659 0 659 0 597.5 -1 c 128,-1,58
 536 -2 536 -2 452 -2 c 0,59,60
 424 -2 424 -2 409 33.5 c 128,-1,61
 394 69 394 69 386.5 132 c 128,-1,62
 379 195 379 195 378.5 280.5 c 128,-1,63
 378 366 378 366 380 466 c 128,-1,64
 382 566 382 566 385 676.5 c 128,-1,65
 388 787 388 787 388 899 c 0,0,1
EndSplineSet
EndChar

StartChar: U
Encoding: 85 85 56
Width: 1813
Flags: W
LayerCount: 2
Fore
SplineSet
1029 72 m 1,0,1
 977 46 977 46 918 24 c 128,-1,2
 859 2 859 2 797 -14 c 128,-1,3
 735 -30 735 -30 670.5 -38.5 c 128,-1,4
 606 -47 606 -47 543 -47 c 0,5,6
 440 -47 440 -47 368 -23.5 c 128,-1,7
 296 0 296 0 248 42.5 c 128,-1,8
 200 85 200 85 173 143.5 c 128,-1,9
 146 202 146 202 132.5 272.5 c 128,-1,10
 119 343 119 343 116 422.5 c 128,-1,11
 113 502 113 502 113 586 c 0,12,13
 113 667 113 667 117 749.5 c 128,-1,14
 121 832 121 832 126.5 916 c 128,-1,15
 132 1000 132 1000 136 1086 c 128,-1,16
 140 1172 140 1172 140 1260 c 0,17,18
 140 1283 140 1283 136 1303 c 128,-1,19
 132 1323 132 1323 132 1346 c 0,20,21
 132 1368 132 1368 153.5 1374 c 128,-1,22
 175 1380 175 1380 201 1380 c 0,23,24
 261 1380 261 1380 322.5 1381 c 128,-1,25
 384 1382 384 1382 447 1380.5 c 128,-1,26
 510 1379 510 1379 574.5 1373 c 128,-1,27
 639 1367 639 1367 705 1354 c 1,28,29
 733 1346 733 1346 750.5 1336.5 c 128,-1,30
 768 1327 768 1327 777.5 1311.5 c 128,-1,31
 787 1296 787 1296 790 1270.5 c 128,-1,32
 793 1245 793 1245 793 1206 c 0,33,34
 793 1124 793 1124 791 1038.5 c 128,-1,35
 789 953 789 953 786 857 c 128,-1,36
 783 761 783 761 781 652 c 128,-1,37
 779 543 779 543 779 414 c 0,38,39
 779 339 779 339 784.5 304.5 c 128,-1,40
 790 270 790 270 818 270 c 0,41,42
 850 270 850 270 881 279.5 c 128,-1,43
 912 289 912 289 938 300 c 0,44,45
 968 313 968 313 996 330 c 1,46,-1
 996 1153 l 1,47,48
 992 1176 992 1176 990 1200 c 128,-1,49
 988 1224 988 1224 987 1244.5 c 128,-1,50
 986 1265 986 1265 986 1279.5 c 128,-1,51
 986 1294 986 1294 986 1298 c 0,52,53
 986 1317 986 1317 988.5 1329 c 128,-1,54
 991 1341 991 1341 999.5 1348.5 c 128,-1,55
 1008 1356 1008 1356 1024 1359 c 128,-1,56
 1040 1362 1040 1362 1068 1362 c 0,57,58
 1089 1362 1089 1362 1131.5 1363.5 c 128,-1,59
 1174 1365 1174 1365 1221 1367.5 c 128,-1,60
 1268 1370 1268 1370 1310 1372 c 128,-1,61
 1352 1374 1352 1374 1371 1376 c 0,62,63
 1375 1376 1375 1376 1395.5 1375 c 128,-1,64
 1416 1374 1416 1374 1440 1373 c 0,65,66
 1467 1371 1467 1371 1502 1370 c 1,67,68
 1572 1362 1572 1362 1611.5 1353.5 c 128,-1,69
 1651 1345 1651 1345 1670.5 1337 c 128,-1,70
 1690 1329 1690 1329 1694.5 1320.5 c 128,-1,71
 1699 1312 1699 1312 1699 1303 c 0,72,73
 1699 1148 1699 1148 1695 996.5 c 128,-1,74
 1691 845 1691 845 1686.5 694.5 c 128,-1,75
 1682 544 1682 544 1678 393 c 128,-1,76
 1674 242 1674 242 1674 88 c 0,77,78
 1674 46 1674 46 1656 26 c 128,-1,79
 1638 6 1638 6 1598 6 c 0,80,81
 1583 6 1583 6 1555.5 5.5 c 128,-1,82
 1528 5 1528 5 1493.5 3.5 c 128,-1,83
 1459 2 1459 2 1420 0.5 c 128,-1,84
 1381 -1 1381 -1 1343 -2 c 0,85,86
 1253 -6 1253 -6 1150 -10 c 1,87,88
 1099 -10 1099 -10 1070 9 c 128,-1,89
 1041 28 1041 28 1029 72 c 1,0,1
EndSplineSet
EndChar

StartChar: V
Encoding: 86 86 57
Width: 1880
Flags: W
LayerCount: 2
Fore
SplineSet
1288 10 m 1,0,1
 1098 2 1098 2 908.5 1 c 128,-1,2
 719 0 719 0 543 0 c 0,3,4
 514 0 514 0 486 6 c 128,-1,5
 458 12 458 12 432 12 c 0,6,7
 426 12 426 12 422.5 11 c 128,-1,8
 419 10 419 10 414 10 c 1,9,10
 407 13 407 13 400 20.5 c 128,-1,11
 393 28 393 28 393 33 c 1,12,-1
 250 680 l 1,13,14
 218 804 218 804 187.5 934 c 128,-1,15
 157 1064 157 1064 131 1188 c 0,16,17
 129 1202 129 1202 122 1233 c 128,-1,18
 115 1264 115 1264 112.5 1296 c 128,-1,19
 110 1328 110 1328 116.5 1352 c 128,-1,20
 123 1376 123 1376 147 1376 c 0,21,22
 155 1376 155 1376 175 1376 c 128,-1,23
 195 1376 195 1376 220.5 1375.5 c 128,-1,24
 246 1375 246 1375 274 1374.5 c 128,-1,25
 302 1374 302 1374 326 1373.5 c 128,-1,26
 350 1373 350 1373 365.5 1372.5 c 128,-1,27
 381 1372 381 1372 383 1372 c 2,28,-1
 573 1372 l 1,29,30
 573 1371 573 1371 583 1367 c 0,31,32
 587 1365 587 1365 594 1364 c 1,33,34
 602 1364 602 1364 606 1368 c 128,-1,35
 610 1372 610 1372 622 1372 c 2,36,-1
 629 1372 l 2,37,38
 630 1372 630 1372 650.5 1370.5 c 128,-1,39
 671 1369 671 1369 700.5 1367.5 c 128,-1,40
 730 1366 730 1366 763.5 1365 c 128,-1,41
 797 1364 797 1364 823 1364 c 1,42,43
 834 1346 834 1346 844 1307 c 128,-1,44
 854 1268 854 1268 865 1215 c 128,-1,45
 876 1162 876 1162 888 1098 c 128,-1,46
 900 1034 900 1034 915 967 c 0,47,48
 915 965 915 965 921 934.5 c 128,-1,49
 927 904 927 904 936 859.5 c 128,-1,50
 945 815 945 815 955 763.5 c 128,-1,51
 965 712 965 712 974 667.5 c 128,-1,52
 983 623 983 623 989 593.5 c 128,-1,53
 995 564 995 564 995 563 c 0,54,55
 995 559 995 559 996 555 c 256,56,57
 997 551 997 551 998 545 c 128,-1,58
 999 539 999 539 1001 532 c 1,59,60
 1003 539 1003 539 1003.5 545 c 128,-1,61
 1004 551 1004 551 1005 555 c 256,62,63
 1006 559 1006 559 1007 563 c 0,64,65
 1007 564 1007 564 1013 593.5 c 128,-1,66
 1019 623 1019 623 1028 667.5 c 128,-1,67
 1037 712 1037 712 1047 763.5 c 128,-1,68
 1057 815 1057 815 1066 859.5 c 128,-1,69
 1075 904 1075 904 1081 934.5 c 128,-1,70
 1087 965 1087 965 1087 967 c 0,71,72
 1102 1034 1102 1034 1114 1098 c 128,-1,73
 1126 1162 1126 1162 1137 1215 c 128,-1,74
 1148 1268 1148 1268 1158 1307 c 128,-1,75
 1168 1346 1168 1346 1179 1364 c 1,76,77
 1199 1364 1199 1364 1225.5 1365 c 128,-1,78
 1252 1366 1252 1366 1275.5 1367.5 c 128,-1,79
 1299 1369 1299 1369 1315.5 1370.5 c 128,-1,80
 1332 1372 1332 1372 1333 1372 c 2,81,-1
 1339 1372 l 2,82,83
 1342 1372 1342 1372 1343.5 1368 c 128,-1,84
 1345 1364 1345 1364 1347 1364 c 0,85,86
 1363 1364 1363 1364 1365.5 1367 c 128,-1,87
 1368 1370 1368 1370 1368 1372 c 1,88,-1
 1497 1372 l 1,89,90
 1498 1373 1498 1373 1514 1373 c 128,-1,91
 1530 1373 1530 1373 1554 1373.5 c 128,-1,92
 1578 1374 1578 1374 1605.5 1374.5 c 128,-1,93
 1633 1375 1633 1375 1659 1375.5 c 128,-1,94
 1685 1376 1685 1376 1704.5 1376 c 128,-1,95
 1724 1376 1724 1376 1732 1376 c 0,96,97
 1757 1376 1757 1376 1763.5 1352 c 128,-1,98
 1770 1328 1770 1328 1768 1296 c 128,-1,99
 1766 1264 1766 1264 1759 1233 c 128,-1,100
 1752 1202 1752 1202 1749 1188 c 0,101,102
 1723 1064 1723 1064 1692.5 934 c 128,-1,103
 1662 804 1662 804 1630 680 c 1,104,-1
 1487 33 l 1,105,106
 1487 28 1487 28 1479.5 20.5 c 128,-1,107
 1472 13 1472 13 1466 10 c 1,108,109
 1461 10 1461 10 1457.5 11 c 128,-1,110
 1454 12 1454 12 1448 12 c 0,111,112
 1435 12 1435 12 1423 6 c 128,-1,113
 1411 0 1411 0 1399 0 c 0,114,115
 1370 0 1370 0 1343.5 5 c 128,-1,116
 1317 10 1317 10 1288 10 c 1,0,1
EndSplineSet
EndChar

StartChar: W
Encoding: 87 87 58
Width: 2397
Flags: W
LayerCount: 2
Fore
SplineSet
1474 10 m 0,0,1
 1445 10 1445 10 1414.5 11 c 128,-1,2
 1384 12 1384 12 1356 12 c 1,3,-1
 1337 10 l 1,4,5
 1322 13 1322 13 1319.5 20.5 c 128,-1,6
 1317 28 1317 28 1317 33 c 1,7,-1
 1179 709 l 1,8,-1
 1044 33 l 2,9,10
 1039 12 1039 12 1019.5 6 c 128,-1,11
 1000 0 1000 0 977 0 c 0,12,13
 924 0 924 0 882.5 -1 c 128,-1,14
 841 -2 841 -2 788 -2 c 0,15,16
 733 -2 733 -2 694.5 -1.5 c 128,-1,17
 656 -1 656 -1 622 -1 c 128,-1,18
 588 -1 588 -1 553 -0.5 c 128,-1,19
 518 0 518 0 469 0 c 0,20,21
 452 0 452 0 434 6 c 128,-1,22
 416 12 416 12 399 12 c 1,23,-1
 381 10 l 1,24,25
 365 13 365 13 362.5 20.5 c 128,-1,26
 360 28 360 28 360 33 c 1,27,-1
 217 680 l 1,28,29
 192 804 192 804 166 934 c 128,-1,30
 140 1064 140 1064 119 1188 c 1,31,32
 111 1195 111 1195 107 1209.5 c 128,-1,33
 103 1224 103 1224 101 1242 c 128,-1,34
 99 1260 99 1260 98.5 1279 c 128,-1,35
 98 1298 98 1298 98 1315 c 0,36,37
 98 1341 98 1341 105.5 1358.5 c 128,-1,38
 113 1376 113 1376 135 1376 c 0,39,40
 143 1376 143 1376 163 1376 c 128,-1,41
 183 1376 183 1376 208.5 1375.5 c 128,-1,42
 234 1375 234 1375 262 1374.5 c 128,-1,43
 290 1374 290 1374 313.5 1373.5 c 128,-1,44
 337 1373 337 1373 352.5 1372.5 c 128,-1,45
 368 1372 368 1372 370 1372 c 2,46,-1
 459 1372 l 1,47,48
 467 1371 467 1371 470.5 1370 c 128,-1,49
 474 1369 474 1369 476 1367 c 2,50,-1
 479 1364 l 1,51,52
 484 1364 484 1364 490.5 1368 c 128,-1,53
 497 1372 497 1372 508 1372 c 2,54,-1
 514 1372 l 2,55,56
 515 1372 515 1372 531.5 1370.5 c 128,-1,57
 548 1369 548 1369 571.5 1367.5 c 128,-1,58
 595 1366 595 1366 621 1365 c 128,-1,59
 647 1364 647 1364 667 1364 c 1,60,61
 678 1344 678 1344 688.5 1301.5 c 128,-1,62
 699 1259 699 1259 710 1200.5 c 128,-1,63
 721 1142 721 1142 733 1071.5 c 128,-1,64
 745 1001 745 1001 760 926 c 0,65,66
 760 924 760 924 763 907.5 c 128,-1,67
 766 891 766 891 770 867 c 128,-1,68
 774 843 774 843 779 815 c 128,-1,69
 784 787 784 787 788 763.5 c 128,-1,70
 792 740 792 740 795 724 c 128,-1,71
 798 708 798 708 798 707 c 0,72,73
 799 702 799 702 800 698 c 0,74,75
 801 693 801 693 802 688 c 128,-1,76
 803 683 803 683 805 676 c 1,77,78
 807 683 807 683 807.5 688 c 128,-1,79
 808 693 808 693 809 698 c 0,80,81
 810 702 810 702 811 707 c 0,82,83
 811 708 811 708 814 724 c 128,-1,84
 817 740 817 740 821 763.5 c 128,-1,85
 825 787 825 787 830.5 815 c 128,-1,86
 836 843 836 843 840 867 c 128,-1,87
 844 891 844 891 847 907.5 c 128,-1,88
 850 924 850 924 850 926 c 0,89,90
 879 1077 879 1077 898.5 1171.5 c 128,-1,91
 918 1266 918 1266 933 1320 c 0,92,93
 936 1332 936 1332 940.5 1342.5 c 128,-1,94
 945 1353 945 1353 956 1360.5 c 128,-1,95
 967 1368 967 1368 989 1372 c 128,-1,96
 1011 1376 1011 1376 1050 1376 c 0,97,98
 1059 1376 1059 1376 1085.5 1376 c 128,-1,99
 1112 1376 1112 1376 1144 1376 c 128,-1,100
 1176 1376 1176 1376 1207.5 1375.5 c 128,-1,101
 1239 1375 1239 1375 1259 1374 c 0,102,103
 1261 1374 1261 1374 1264.5 1375 c 128,-1,104
 1268 1376 1268 1376 1270 1376 c 0,105,106
 1276 1376 1276 1376 1281 1375 c 128,-1,107
 1286 1374 1286 1374 1286 1372 c 1,108,109
 1342 1371 1342 1371 1372 1370 c 128,-1,110
 1402 1369 1402 1369 1416 1367 c 0,111,112
 1433 1365 1433 1365 1435 1364 c 1,113,114
 1440 1364 1440 1364 1447.5 1368 c 128,-1,115
 1455 1372 1455 1372 1470 1372 c 0,116,117
 1471 1372 1471 1372 1482.5 1372.5 c 128,-1,118
 1494 1373 1494 1373 1507.5 1373 c 128,-1,119
 1521 1373 1521 1373 1532.5 1371 c 128,-1,120
 1544 1369 1544 1369 1546 1363 c 0,121,122
 1553 1340 1553 1340 1559.5 1300.5 c 128,-1,123
 1566 1261 1566 1261 1573 1209.5 c 128,-1,124
 1580 1158 1580 1158 1589.5 1096 c 128,-1,125
 1599 1034 1599 1034 1614 967 c 0,126,127
 1614 965 1614 965 1617 943.5 c 128,-1,128
 1620 922 1620 922 1624 891 c 128,-1,129
 1628 860 1628 860 1633 824.5 c 128,-1,130
 1638 789 1638 789 1642 758.5 c 128,-1,131
 1646 728 1646 728 1649 707.5 c 128,-1,132
 1652 687 1652 687 1652 686 c 0,133,134
 1653 682 1653 682 1654 678 c 256,135,136
 1655 674 1655 674 1656 668 c 128,-1,137
 1657 662 1657 662 1659 655 c 1,138,139
 1661 662 1661 662 1661.5 668 c 128,-1,140
 1662 674 1662 674 1663 678 c 256,141,142
 1664 682 1664 682 1665 686 c 0,143,144
 1665 687 1665 687 1668 707.5 c 128,-1,145
 1671 728 1671 728 1675 758.5 c 128,-1,146
 1679 789 1679 789 1684.5 824.5 c 128,-1,147
 1690 860 1690 860 1694 891 c 128,-1,148
 1698 922 1698 922 1701 943.5 c 128,-1,149
 1704 965 1704 965 1704 967 c 0,150,151
 1719 1034 1719 1034 1731 1098 c 128,-1,152
 1743 1162 1743 1162 1754 1215 c 128,-1,153
 1765 1268 1765 1268 1775 1307 c 128,-1,154
 1785 1346 1785 1346 1796 1364 c 1,155,156
 1808 1364 1808 1364 1824 1365 c 128,-1,157
 1840 1366 1840 1366 1854 1368 c 0,158,159
 1871 1370 1871 1370 1888 1372 c 1,160,-1
 1894 1372 l 2,161,162
 1897 1372 1897 1372 1898.5 1368 c 128,-1,163
 1900 1364 1900 1364 1902 1364 c 0,164,165
 1918 1364 1918 1364 1920.5 1367 c 128,-1,166
 1923 1370 1923 1370 1923 1372 c 1,167,-1
 2031 1372 l 1,168,169
 2031 1373 2031 1373 2046.5 1373 c 128,-1,170
 2062 1373 2062 1373 2085.5 1373.5 c 128,-1,171
 2109 1374 2109 1374 2137.5 1374.5 c 128,-1,172
 2166 1375 2166 1375 2192 1375.5 c 128,-1,173
 2218 1376 2218 1376 2238.5 1376 c 128,-1,174
 2259 1376 2259 1376 2267 1376 c 0,175,176
 2287 1376 2287 1376 2295.5 1358 c 128,-1,177
 2304 1340 2304 1340 2304 1315 c 1,178,179
 2296 1297 2296 1297 2292 1278 c 128,-1,180
 2288 1259 2288 1259 2286 1241.5 c 128,-1,181
 2284 1224 2284 1224 2283.5 1209.5 c 128,-1,182
 2283 1195 2283 1195 2283 1188 c 1,183,184
 2254 1051 2254 1051 2218 903.5 c 128,-1,185
 2182 756 2182 756 2144 618 c 1,186,-1
 2001 33 l 1,187,188
 1985 28 1985 28 1982.5 20.5 c 128,-1,189
 1980 13 1980 13 1980 10 c 1,190,-1
 1962 12 l 1,191,192
 1948 12 1948 12 1937.5 10.5 c 128,-1,193
 1927 9 1927 9 1913 9 c 0,194,195
 1868 9 1868 9 1809.5 9 c 128,-1,196
 1751 9 1751 9 1691 9.5 c 128,-1,197
 1631 10 1631 10 1574 10 c 128,-1,198
 1517 10 1517 10 1474 10 c 0,0,1
EndSplineSet
EndChar

StartChar: X
Encoding: 88 88 59
Width: 1871
Flags: W
LayerCount: 2
Fore
SplineSet
809 115 m 1,0,-1
 768 47 l 1,1,-1
 719 2 l 2,2,3
 719 3 719 3 715.5 4 c 128,-1,4
 712 5 712 5 708 6 c 2,5,-1
 698 8 l 2,6,7
 697 8 697 8 689 4.5 c 128,-1,8
 681 1 681 1 670 -3.5 c 128,-1,9
 659 -8 659 -8 648 -11 c 128,-1,10
 637 -14 637 -14 631 -12 c 0,11,12
 617 -9 617 -9 587 -7.5 c 128,-1,13
 557 -6 557 -6 517 -5 c 128,-1,14
 477 -4 477 -4 430.5 -4 c 128,-1,15
 384 -4 384 -4 337.5 -3 c 128,-1,16
 291 -2 291 -2 247.5 0.5 c 128,-1,17
 204 3 204 3 170 8 c 1,18,-1
 162 8 l 2,19,20
 153 8 153 8 149 12 c 128,-1,21
 145 16 145 16 144 21.5 c 128,-1,22
 143 27 143 27 144 33.5 c 128,-1,23
 145 40 145 40 145 45 c 0,24,25
 145 56 145 56 154 79.5 c 128,-1,26
 163 103 163 103 177 132.5 c 128,-1,27
 191 162 191 162 209 195 c 128,-1,28
 227 228 227 228 244 258 c 128,-1,29
 261 288 261 288 276.5 313 c 128,-1,30
 292 338 292 338 301 352 c 0,31,32
 307 361 307 361 318 381.5 c 128,-1,33
 329 402 329 402 343 430 c 128,-1,34
 357 458 357 458 373.5 490.5 c 128,-1,35
 390 523 390 523 406 555 c 0,36,37
 444 631 444 631 487 721 c 1,38,-1
 466 756 l 2,39,40
 457 771 457 771 446.5 789.5 c 128,-1,41
 436 808 436 808 426 827 c 1,42,43
 423 830 423 830 405 858 c 128,-1,44
 387 886 387 886 362.5 926.5 c 128,-1,45
 338 967 338 967 309.5 1013 c 128,-1,46
 281 1059 281 1059 256 1099.5 c 128,-1,47
 231 1140 231 1140 214 1167.5 c 128,-1,48
 197 1195 197 1195 194 1198 c 0,49,50
 185 1211 185 1211 169.5 1233.5 c 128,-1,51
 154 1256 154 1256 139 1282 c 128,-1,52
 124 1308 124 1308 113 1334.5 c 128,-1,53
 102 1361 102 1361 102 1382 c 1,54,55
 117 1384 117 1384 129 1386 c 0,56,57
 140 1388 140 1388 148.5 1389 c 128,-1,58
 157 1390 157 1390 157 1391 c 1,59,60
 159 1391 159 1391 182.5 1390 c 128,-1,61
 206 1389 206 1389 243.5 1387.5 c 128,-1,62
 281 1386 281 1386 329 1384 c 128,-1,63
 377 1382 377 1382 426.5 1379.5 c 128,-1,64
 476 1377 476 1377 524 1375 c 128,-1,65
 572 1373 572 1373 610 1371.5 c 128,-1,66
 648 1370 648 1370 672 1369 c 128,-1,67
 696 1368 696 1368 698 1368 c 0,68,69
 706 1368 706 1368 724 1346 c 128,-1,70
 742 1324 742 1324 764.5 1290 c 128,-1,71
 787 1256 787 1256 811.5 1216 c 128,-1,72
 836 1176 836 1176 856.5 1140.5 c 128,-1,73
 877 1105 877 1105 891 1079.5 c 128,-1,74
 905 1054 905 1054 907 1049 c 1,75,76
 907 1043 907 1043 910 1036 c 128,-1,77
 913 1029 913 1029 916.5 1023 c 128,-1,78
 920 1017 920 1017 923.5 1012.5 c 128,-1,79
 927 1008 927 1008 928 1008 c 0,80,81
 934 1013 934 1013 940 1019 c 0,82,83
 945 1024 945 1024 951.5 1031.5 c 128,-1,84
 958 1039 958 1039 964 1049 c 0,85,86
 966 1054 966 1054 980.5 1079.5 c 128,-1,87
 995 1105 995 1105 1015.5 1140.5 c 128,-1,88
 1036 1176 1036 1176 1060.5 1216 c 128,-1,89
 1085 1256 1085 1256 1107.5 1290 c 128,-1,90
 1130 1324 1130 1324 1147.5 1346 c 128,-1,91
 1165 1368 1165 1368 1173 1368 c 0,92,93
 1176 1368 1176 1368 1217 1369.5 c 128,-1,94
 1258 1371 1258 1371 1317.5 1374 c 128,-1,95
 1377 1377 1377 1377 1445.5 1379.5 c 128,-1,96
 1514 1382 1514 1382 1573 1385 c 128,-1,97
 1632 1388 1632 1388 1672 1389.5 c 128,-1,98
 1712 1391 1712 1391 1714 1391 c 1,99,100
 1714 1390 1714 1390 1722 1389 c 128,-1,101
 1730 1388 1730 1388 1741 1386 c 2,102,-1
 1769 1382 l 1,103,104
 1769 1363 1769 1363 1758 1339 c 128,-1,105
 1747 1315 1747 1315 1732 1292 c 128,-1,106
 1717 1269 1717 1269 1701.5 1249 c 128,-1,107
 1686 1229 1686 1229 1677 1219 c 0,108,109
 1674 1216 1674 1216 1657 1186.5 c 128,-1,110
 1640 1157 1640 1157 1615.5 1114.5 c 128,-1,111
 1591 1072 1591 1072 1562.5 1023 c 128,-1,112
 1534 974 1534 974 1509 931.5 c 128,-1,113
 1484 889 1484 889 1466.5 859.5 c 128,-1,114
 1449 830 1449 830 1446 827 c 0,115,116
 1433 808 1433 808 1419 789.5 c 128,-1,117
 1405 771 1405 771 1393 756 c 0,118,119
 1379 738 1379 738 1364 721 c 1,120,121
 1398 657 1398 657 1428 602 c 0,122,123
 1441 579 1441 579 1453.5 555.5 c 128,-1,124
 1466 532 1466 532 1477.5 511.5 c 128,-1,125
 1489 491 1489 491 1497.5 475.5 c 128,-1,126
 1506 460 1506 460 1511 453 c 0,127,128
 1523 433 1523 433 1543.5 398 c 128,-1,129
 1564 363 1564 363 1588 320.5 c 128,-1,130
 1612 278 1612 278 1636.5 232 c 128,-1,131
 1661 186 1661 186 1681 145 c 128,-1,132
 1701 104 1701 104 1713.5 72 c 128,-1,133
 1726 40 1726 40 1726 25 c 0,134,135
 1726 20 1726 20 1727 13.5 c 128,-1,136
 1728 7 1728 7 1727 1.5 c 128,-1,137
 1726 -4 1726 -4 1722.5 -8 c 128,-1,138
 1719 -12 1719 -12 1710 -12 c 2,139,-1
 1702 -12 l 2,140,141
 1670 -12 1670 -12 1628.5 -11 c 128,-1,142
 1587 -10 1587 -10 1542.5 -9 c 128,-1,143
 1498 -8 1498 -8 1453.5 -7 c 128,-1,144
 1409 -6 1409 -6 1370.5 -6 c 128,-1,145
 1332 -6 1332 -6 1303 -7.5 c 128,-1,146
 1274 -9 1274 -9 1261 -12 c 0,147,148
 1255 -14 1255 -14 1244 -11 c 128,-1,149
 1233 -8 1233 -8 1222 -3.5 c 128,-1,150
 1211 1 1211 1 1203 4.5 c 128,-1,151
 1195 8 1195 8 1194 8 c 0,152,153
 1192 8 1192 8 1182.5 6 c 128,-1,154
 1173 4 1173 4 1171 2 c 1,155,-1
 1124 47 l 1,156,-1
 1124 63 l 2,157,158
 1124 66 1124 66 1122.5 66 c 128,-1,159
 1121 66 1121 66 1118 65.5 c 128,-1,160
 1115 65 1115 65 1111 65.5 c 128,-1,161
 1107 66 1107 66 1102 72 c 1,162,-1
 999 256 l 1,163,164
 994 267 994 267 984.5 286 c 128,-1,165
 975 305 975 305 964 323.5 c 128,-1,166
 953 342 953 342 943 355.5 c 128,-1,167
 933 369 933 369 928 369 c 1,168,-1
 872 256 l 1,169,-1
 809 115 l 1,0,-1
EndSplineSet
EndChar

StartChar: Y
Encoding: 89 89 60
Width: 1678
Flags: W
LayerCount: 2
Fore
SplineSet
939 -182 m 1,0,1
 933 -182 933 -182 929 -184 c 128,-1,2
 925 -186 925 -186 923 -186 c 0,3,4
 918 -186 918 -186 915 -183 c 128,-1,5
 912 -180 912 -180 906 -168 c 1,6,7
 855 -162 855 -162 814 -150 c 128,-1,8
 773 -138 773 -138 742 -129 c 0,9,10
 740 -128 740 -128 732.5 -127 c 128,-1,11
 725 -126 725 -126 715.5 -125 c 128,-1,12
 706 -124 706 -124 697.5 -123 c 128,-1,13
 689 -122 689 -122 687 -121 c 0,14,15
 670 -117 670 -117 640.5 -108 c 128,-1,16
 611 -99 611 -99 576.5 -87 c 128,-1,17
 542 -75 542 -75 507 -61.5 c 128,-1,18
 472 -48 472 -48 443 -34.5 c 128,-1,19
 414 -21 414 -21 396 -8.5 c 128,-1,20
 378 4 378 4 378 14 c 0,21,22
 378 33 378 33 383.5 54.5 c 128,-1,23
 389 76 389 76 397.5 97 c 128,-1,24
 406 118 406 118 416 139 c 128,-1,25
 426 160 426 160 435 178 c 0,26,27
 443 196 443 196 457.5 218 c 128,-1,28
 472 240 472 240 486 263 c 128,-1,29
 500 286 500 286 510.5 308 c 128,-1,30
 521 330 521 330 521 348 c 0,31,32
 521 368 521 368 510.5 382.5 c 128,-1,33
 500 397 500 397 487.5 410.5 c 128,-1,34
 475 424 475 424 464.5 438 c 128,-1,35
 454 452 454 452 454 471 c 1,36,37
 447 471 447 471 446 470 c 128,-1,38
 445 469 445 469 443 469 c 256,39,40
 441 469 441 469 439.5 470 c 128,-1,41
 438 471 438 471 435 477 c 1,42,43
 408 512 408 512 373.5 563.5 c 128,-1,44
 339 615 339 615 302 674.5 c 128,-1,45
 265 734 265 734 229 798 c 128,-1,46
 193 862 193 862 163 922 c 0,47,48
 156 935 156 935 145.5 957.5 c 128,-1,49
 135 980 135 980 123.5 1007.5 c 128,-1,50
 112 1035 112 1035 100.5 1065 c 128,-1,51
 89 1095 89 1095 79.5 1122 c 128,-1,52
 70 1149 70 1149 64 1171 c 128,-1,53
 58 1193 58 1193 58 1204 c 0,54,55
 58 1217 58 1217 70.5 1230.5 c 128,-1,56
 83 1244 83 1244 102 1257 c 128,-1,57
 121 1270 121 1270 143 1281 c 128,-1,58
 165 1292 165 1292 183 1300 c 1,59,60
 208 1303 208 1303 229.5 1309.5 c 128,-1,61
 251 1316 251 1316 267.5 1322.5 c 128,-1,62
 284 1329 284 1329 296 1334 c 128,-1,63
 308 1339 308 1339 316 1339 c 256,64,65
 324 1339 324 1339 352 1345 c 128,-1,66
 380 1351 380 1351 417 1360 c 128,-1,67
 454 1369 454 1369 494.5 1380.5 c 128,-1,68
 535 1392 535 1392 568 1403 c 0,69,70
 571 1403 571 1403 574 1404 c 0,71,72
 576 1404 576 1404 578.5 1404.5 c 128,-1,73
 581 1405 581 1405 583 1405 c 0,74,75
 603 1405 603 1405 617 1399.5 c 128,-1,76
 631 1394 631 1394 641.5 1383.5 c 128,-1,77
 652 1373 652 1373 661 1358 c 128,-1,78
 670 1343 670 1343 679 1325 c 0,79,80
 685 1314 685 1314 694 1301.5 c 128,-1,81
 703 1289 703 1289 712.5 1277 c 128,-1,82
 722 1265 722 1265 730 1255 c 128,-1,83
 738 1245 738 1245 742 1239 c 0,84,85
 757 1217 757 1217 778 1180.5 c 128,-1,86
 799 1144 799 1144 820 1109.5 c 128,-1,87
 841 1075 841 1075 859.5 1049.5 c 128,-1,88
 878 1024 878 1024 890 1024 c 0,89,90
 897 1024 897 1024 910.5 1046 c 128,-1,91
 924 1068 924 1068 941 1102 c 128,-1,92
 958 1136 958 1136 976.5 1177.5 c 128,-1,93
 995 1219 995 1219 1012 1257.5 c 128,-1,94
 1029 1296 1029 1296 1042.5 1327 c 128,-1,95
 1056 1358 1056 1358 1062 1372 c 1,96,97
 1066 1386 1066 1386 1070 1397.5 c 128,-1,98
 1074 1409 1074 1409 1079.5 1417.5 c 128,-1,99
 1085 1426 1085 1426 1094.5 1431 c 128,-1,100
 1104 1436 1104 1436 1119 1436 c 0,101,102
 1151 1436 1151 1436 1196 1428 c 128,-1,103
 1241 1420 1241 1420 1290.5 1405.5 c 128,-1,104
 1340 1391 1340 1391 1391.5 1371 c 128,-1,105
 1443 1351 1443 1351 1488 1328.5 c 128,-1,106
 1533 1306 1533 1306 1568.5 1281 c 128,-1,107
 1604 1256 1604 1256 1623 1231 c 1,108,109
 1623 1202 1623 1202 1616 1176 c 128,-1,110
 1609 1150 1609 1150 1598 1128 c 0,111,112
 1502 918 1502 918 1409.5 710.5 c 128,-1,113
 1317 503 1317 503 1222 295 c 0,114,115
 1220 293 1220 293 1216.5 292 c 128,-1,116
 1213 291 1213 291 1211 289 c 0,117,118
 1149 168 1149 168 1087 50 c 128,-1,119
 1025 -68 1025 -68 963 -186 c 0,120,121
 960 -193 960 -193 952.5 -194 c 128,-1,122
 945 -195 945 -195 939 -195 c 1,123,-1
 939 -182 l 1,0,1
EndSplineSet
EndChar

StartChar: Z
Encoding: 90 90 61
Width: 1439
Flags: W
LayerCount: 2
Fore
SplineSet
146 434 m 1,0,1
 269 556 269 556 367 659 c 0,2,3
 409 702 409 702 448.5 746 c 128,-1,4
 488 790 488 790 519.5 827 c 128,-1,5
 551 864 551 864 570 892 c 128,-1,6
 589 920 589 920 589 932 c 0,7,8
 589 940 589 940 578 940 c 2,9,-1
 189 946 l 2,10,11
 170 946 170 946 156.5 959.5 c 128,-1,12
 143 973 143 973 134 994.5 c 128,-1,13
 125 1016 125 1016 120.5 1043.5 c 128,-1,14
 116 1071 116 1071 114 1098.5 c 128,-1,15
 112 1126 112 1126 111.5 1151.5 c 128,-1,16
 111 1177 111 1177 111 1196 c 0,17,18
 111 1204 111 1204 112 1227.5 c 128,-1,19
 113 1251 113 1251 114 1276 c 128,-1,20
 115 1301 115 1301 116 1320.5 c 128,-1,21
 117 1340 117 1340 117 1341 c 2,22,-1
 128 1352 l 2,23,24
 142 1366 142 1366 169 1366 c 0,25,26
 181 1366 181 1366 194 1364 c 128,-1,27
 207 1362 207 1362 218 1362 c 0,28,29
 293 1362 293 1362 367.5 1368 c 128,-1,30
 442 1374 442 1374 517 1374 c 0,31,32
 665 1374 665 1374 808.5 1377 c 128,-1,33
 952 1380 952 1380 1105 1380 c 0,34,35
 1174 1380 1174 1380 1216.5 1376 c 128,-1,36
 1259 1372 1259 1372 1282.5 1366 c 128,-1,37
 1306 1360 1306 1360 1314 1352 c 128,-1,38
 1322 1344 1322 1344 1322 1335 c 2,39,-1
 1322 1008 l 2,40,41
 1322 984 1322 984 1307.5 944 c 128,-1,42
 1293 904 1293 904 1247.5 835.5 c 128,-1,43
 1202 767 1202 767 1116 665 c 128,-1,44
 1030 563 1030 563 888 416 c 1,45,46
 955 416 955 416 1022 417 c 0,47,48
 1079 417 1079 417 1143 417.5 c 128,-1,49
 1207 418 1207 418 1260 418 c 0,50,51
 1280 418 1280 418 1295.5 403.5 c 128,-1,52
 1311 389 1311 389 1311 377 c 2,53,-1
 1311 45 l 2,54,55
 1311 40 1311 40 1309 32 c 128,-1,56
 1307 24 1307 24 1293.5 17 c 128,-1,57
 1280 10 1280 10 1251 5 c 128,-1,58
 1222 0 1222 0 1168 0 c 2,59,-1
 808 0 l 2,60,61
 722 0 722 0 648 0.5 c 128,-1,62
 574 1 574 1 502.5 2 c 128,-1,63
 431 3 431 3 357.5 3.5 c 128,-1,64
 284 4 284 4 199 4 c 0,65,66
 190 4 190 4 180.5 9 c 128,-1,67
 171 14 171 14 163.5 21.5 c 128,-1,68
 156 29 156 29 151 38.5 c 128,-1,69
 146 48 146 48 146 57 c 2,70,-1
 146 434 l 1,0,1
EndSplineSet
EndChar

StartChar: bracketleft
Encoding: 91 91 62
Width: 1133
Flags: W
LayerCount: 2
Fore
SplineSet
125 942 m 1,0,-1
 125 1042 l 2,1,2
 125 1071 125 1071 123.5 1108.5 c 128,-1,3
 122 1146 122 1146 120.5 1186 c 128,-1,4
 119 1226 119 1226 118 1264.5 c 128,-1,5
 117 1303 117 1303 117 1335 c 0,6,7
 117 1344 117 1344 118 1370.5 c 128,-1,8
 119 1397 119 1397 120 1426 c 128,-1,9
 121 1455 121 1455 122 1477.5 c 128,-1,10
 123 1500 123 1500 123 1501 c 2,11,-1
 133 1511 l 1,12,13
 158 1509 158 1509 179.5 1508 c 128,-1,14
 201 1507 201 1507 223 1507 c 0,15,16
 282 1507 282 1507 331.5 1510 c 128,-1,17
 381 1513 381 1513 440 1513 c 0,18,19
 489 1513 489 1513 525.5 1513.5 c 128,-1,20
 562 1514 562 1514 592.5 1515 c 128,-1,21
 623 1516 623 1516 651 1516.5 c 128,-1,22
 679 1517 679 1517 710.5 1518 c 128,-1,23
 742 1519 742 1519 781.5 1519.5 c 128,-1,24
 821 1520 821 1520 874 1520 c 0,25,26
 881 1520 881 1520 904 1515 c 128,-1,27
 927 1510 927 1510 952 1503 c 128,-1,28
 977 1496 977 1496 996.5 1488 c 128,-1,29
 1016 1480 1016 1480 1016 1475 c 2,30,-1
 1016 1208 l 2,31,32
 1016 1194 1016 1194 1002.5 1179 c 128,-1,33
 989 1164 989 1164 975 1161 c 1,34,35
 936 1174 936 1174 898.5 1176 c 128,-1,36
 861 1178 861 1178 819 1178 c 0,37,38
 804 1178 804 1178 794.5 1176.5 c 128,-1,39
 785 1175 785 1175 768 1167 c 1,40,41
 752 1115 752 1115 748.5 1052.5 c 128,-1,42
 745 990 745 990 745 928 c 0,43,44
 745 921 745 921 745 919 c 128,-1,45
 745 917 745 917 745 914 c 128,-1,46
 745 911 745 911 745 903.5 c 128,-1,47
 745 896 745 896 744.5 878.5 c 128,-1,48
 744 861 744 861 743.5 831 c 128,-1,49
 743 801 743 801 743 752 c 0,50,51
 743 751 743 751 741.5 745.5 c 128,-1,52
 740 740 740 740 738 733 c 128,-1,53
 736 726 736 726 734.5 719.5 c 128,-1,54
 733 713 733 713 733 711 c 0,55,56
 733 705 733 705 734.5 696 c 128,-1,57
 736 687 736 687 738 678.5 c 128,-1,58
 740 670 740 670 741.5 663 c 128,-1,59
 743 656 743 656 743 655 c 0,60,61
 743 606 743 606 743.5 576 c 128,-1,62
 744 546 744 546 744.5 528.5 c 128,-1,63
 745 511 745 511 745 503.5 c 128,-1,64
 745 496 745 496 745 493 c 128,-1,65
 745 490 745 490 745 488 c 128,-1,66
 745 486 745 486 745 479 c 0,67,68
 745 417 745 417 748.5 354.5 c 128,-1,69
 752 292 752 292 768 240 c 1,70,71
 785 232 785 232 794.5 230.5 c 128,-1,72
 804 229 804 229 819 229 c 0,73,74
 861 229 861 229 897 227 c 128,-1,75
 933 225 933 225 975 225 c 0,76,77
 987 225 987 225 1001.5 215 c 128,-1,78
 1016 205 1016 205 1016 199 c 2,79,-1
 1016 -68 l 2,80,81
 1016 -73 1016 -73 996.5 -77 c 128,-1,82
 977 -81 977 -81 952 -84.5 c 128,-1,83
 927 -88 927 -88 904 -90 c 128,-1,84
 881 -92 881 -92 874 -92 c 0,85,86
 796 -92 796 -92 692 -94 c 128,-1,87
 588 -96 588 -96 440 -96 c 0,88,89
 411 -96 411 -96 384.5 -93.5 c 128,-1,90
 358 -91 358 -91 331.5 -88 c 128,-1,91
 305 -85 305 -85 278.5 -82.5 c 128,-1,92
 252 -80 252 -80 223 -80 c 0,93,94
 201 -80 201 -80 179.5 -81 c 128,-1,95
 158 -82 158 -82 133 -84 c 1,96,-1
 123 -74 l 2,97,98
 123 -73 123 -73 122 -53 c 128,-1,99
 121 -33 121 -33 120 -8 c 128,-1,100
 119 17 119 17 118 40.5 c 128,-1,101
 117 64 117 64 117 72 c 0,102,103
 117 103 117 103 118 142 c 128,-1,104
 119 181 119 181 120.5 220.5 c 128,-1,105
 122 260 122 260 123.5 298 c 128,-1,106
 125 336 125 336 125 365 c 2,107,-1
 125 575 l 1,108,-1
 125 942 l 1,0,-1
EndSplineSet
EndChar

StartChar: backslash
Encoding: 92 92 63
Width: 1120
Flags: W
LayerCount: 2
Fore
SplineSet
333 408 m 0,0,1
 333 410 333 410 323 440.5 c 128,-1,2
 313 471 313 471 299 515.5 c 128,-1,3
 285 560 285 560 268.5 611 c 128,-1,4
 252 662 252 662 238 706.5 c 128,-1,5
 224 751 224 751 214 780.5 c 128,-1,6
 204 810 204 810 204 811 c 256,7,8
 204 812 204 812 199.5 825 c 128,-1,9
 195 838 195 838 187.5 858.5 c 128,-1,10
 180 879 180 879 170 905 c 128,-1,11
 160 931 160 931 150 958 c 0,12,13
 126 1021 126 1021 97 1102 c 1,14,15
 85 1156 85 1156 77.5 1206.5 c 128,-1,16
 70 1257 70 1257 71.5 1296.5 c 128,-1,17
 73 1336 73 1336 85.5 1360 c 128,-1,18
 98 1384 98 1384 126 1384 c 1,19,-1
 144 1378 l 1,20,-1
 152 1380 l 2,21,22
 155 1381 155 1381 157.5 1382 c 128,-1,23
 160 1383 160 1383 159 1384 c 1,24,-1
 195 1384 l 1,25,26
 200 1388 200 1388 218 1390.5 c 128,-1,27
 236 1393 236 1393 247 1393 c 0,28,29
 248 1393 248 1393 253.5 1391.5 c 128,-1,30
 259 1390 259 1390 265.5 1388.5 c 128,-1,31
 272 1387 272 1387 278 1385.5 c 128,-1,32
 284 1384 284 1384 286 1384 c 0,33,34
 289 1384 289 1384 294.5 1387.5 c 128,-1,35
 300 1391 300 1391 300 1393 c 1,36,37
 314 1393 314 1393 333 1394 c 128,-1,38
 352 1395 352 1395 371 1395 c 128,-1,39
 390 1395 390 1395 407 1392.5 c 128,-1,40
 424 1390 424 1390 433 1384 c 1,41,42
 447 1384 447 1384 458.5 1389.5 c 128,-1,43
 470 1395 470 1395 484 1395 c 0,44,45
 519 1395 519 1395 551.5 1388.5 c 128,-1,46
 584 1382 584 1382 615 1382 c 0,47,48
 621 1382 621 1382 623 1383 c 128,-1,49
 625 1384 625 1384 632 1384 c 1,50,51
 632 1382 632 1382 635.5 1379.5 c 128,-1,52
 639 1377 639 1377 643 1374 c 128,-1,53
 647 1371 647 1371 650.5 1367.5 c 128,-1,54
 654 1364 654 1364 654 1362 c 2,55,-1
 871 694 l 1,56,57
 909 566 909 566 947.5 430 c 128,-1,58
 986 294 986 294 1021 166 c 0,59,60
 1023 157 1023 157 1027 139.5 c 128,-1,61
 1031 122 1031 122 1035 101 c 128,-1,62
 1039 80 1039 80 1041 58 c 128,-1,63
 1043 36 1043 36 1040.5 18 c 128,-1,64
 1038 0 1038 0 1029.5 -11.5 c 128,-1,65
 1021 -23 1021 -23 1004 -23 c 0,66,67
 998 -23 998 -23 980.5 -22.5 c 128,-1,68
 963 -22 963 -22 944 -21.5 c 128,-1,69
 925 -21 925 -21 909.5 -20 c 128,-1,70
 894 -19 894 -19 892 -18 c 1,71,-1
 660 -18 l 1,72,73
 660 -17 660 -17 657 -16 c 128,-1,74
 654 -15 654 -15 651 -13 c 0,75,76
 647 -11 647 -11 642 -10 c 1,77,78
 634 -10 634 -10 629 -14 c 128,-1,79
 624 -18 624 -18 611 -18 c 2,80,-1
 605 -18 l 2,81,82
 604 -18 604 -18 590 -17 c 128,-1,83
 576 -16 576 -16 556 -14.5 c 128,-1,84
 536 -13 536 -13 514 -11.5 c 128,-1,85
 492 -10 492 -10 474 -10 c 1,86,87
 458 9 458 9 442 50 c 128,-1,88
 426 91 426 91 409 146.5 c 128,-1,89
 392 202 392 202 373 269 c 128,-1,90
 354 336 354 336 333 408 c 0,0,1
EndSplineSet
EndChar

StartChar: bracketright
Encoding: 93 93 64
Width: 1133
Flags: W
LayerCount: 2
Fore
SplineSet
1007 575 m 2,0,1
 1007 499 1007 499 1008.5 435 c 128,-1,2
 1010 371 1010 371 1011.5 312 c 128,-1,3
 1013 253 1013 253 1014.5 194.5 c 128,-1,4
 1016 136 1016 136 1016 72 c 0,5,6
 1016 49 1016 49 1014 22 c 128,-1,7
 1012 -5 1012 -5 1009 -28 c 128,-1,8
 1006 -51 1006 -51 1003 -67 c 128,-1,9
 1000 -83 1000 -83 999 -84 c 1,10,-1
 989 -84 l 2,11,12
 946 -84 946 -84 908.5 -86 c 128,-1,13
 871 -88 871 -88 835.5 -90 c 128,-1,14
 800 -92 800 -92 765 -94 c 128,-1,15
 730 -96 730 -96 692 -96 c 0,16,17
 577 -96 577 -96 472.5 -96 c 128,-1,18
 368 -96 368 -96 289 -93.5 c 128,-1,19
 210 -91 210 -91 163.5 -85 c 128,-1,20
 117 -79 117 -79 117 -68 c 2,21,-1
 117 199 l 2,22,23
 117 201 117 201 139 203 c 128,-1,24
 161 205 161 205 191.5 206.5 c 128,-1,25
 222 208 222 208 255.5 208.5 c 128,-1,26
 289 209 289 209 313 209 c 256,27,28
 337 209 337 209 352.5 230 c 128,-1,29
 368 251 368 251 376.5 286.5 c 128,-1,30
 385 322 385 322 388 367.5 c 128,-1,31
 391 413 391 413 391 462.5 c 128,-1,32
 391 512 391 512 390 562 c 128,-1,33
 389 612 389 612 389 655 c 0,34,35
 389 662 389 662 390.5 685.5 c 128,-1,36
 392 709 392 709 394 739 c 128,-1,37
 396 769 396 769 397.5 800.5 c 128,-1,38
 399 832 399 832 399 854 c 0,39,40
 399 855 399 855 397.5 861.5 c 128,-1,41
 396 868 396 868 394 874.5 c 128,-1,42
 392 881 392 881 390.5 887 c 128,-1,43
 389 893 389 893 389 895 c 0,44,45
 384 964 384 964 387 1025 c 128,-1,46
 390 1086 390 1086 395 1143 c 0,47,48
 396 1164 396 1164 393 1172 c 128,-1,49
 390 1180 390 1180 381.5 1181.5 c 128,-1,50
 373 1183 373 1183 358.5 1180.5 c 128,-1,51
 344 1178 344 1178 323 1178 c 2,52,-1
 158 1178 l 2,53,54
 144 1178 144 1178 130.5 1186 c 128,-1,55
 117 1194 117 1194 117 1208 c 2,56,-1
 117 1475 l 2,57,58
 117 1480 117 1480 136.5 1488 c 128,-1,59
 156 1496 156 1496 180.5 1503 c 128,-1,60
 205 1510 205 1510 228 1515 c 128,-1,61
 251 1520 251 1520 258 1520 c 0,62,63
 323 1520 323 1520 370 1519 c 128,-1,64
 417 1518 417 1518 457.5 1516.5 c 128,-1,65
 498 1515 498 1515 537.5 1513.5 c 128,-1,66
 577 1512 577 1512 627.5 1510.5 c 128,-1,67
 678 1509 678 1509 745.5 1508 c 128,-1,68
 813 1507 813 1507 909 1507 c 0,69,70
 931 1507 931 1507 952.5 1508 c 128,-1,71
 974 1509 974 1509 999 1511 c 1,72,-1
 1009 1501 l 2,73,74
 1009 1500 1009 1500 1010 1477.5 c 128,-1,75
 1011 1455 1011 1455 1012.5 1426 c 128,-1,76
 1014 1397 1014 1397 1015 1370.5 c 128,-1,77
 1016 1344 1016 1344 1016 1335 c 0,78,79
 1016 1284 1016 1284 1014.5 1230.5 c 128,-1,80
 1013 1177 1013 1177 1011.5 1126 c 128,-1,81
 1010 1075 1010 1075 1008.5 1028 c 128,-1,82
 1007 981 1007 981 1007 942 c 2,83,-1
 1007 575 l 2,0,1
EndSplineSet
EndChar

StartChar: asciicircum
Encoding: 94 94 65
Width: 1241
Flags: W
LayerCount: 2
Fore
SplineSet
489 1229 m 2,0,1
 490 1229 490 1229 505.5 1228.5 c 128,-1,2
 521 1228 521 1228 539.5 1227.5 c 128,-1,3
 558 1227 558 1227 573 1227 c 128,-1,4
 588 1227 588 1227 587 1227 c 2,5,-1
 871 1227 l 2,6,7
 880 1227 880 1227 887.5 1228 c 128,-1,8
 895 1229 895 1229 903 1229 c 2,9,-1
 916 1229 l 1,10,11
 921 1227 921 1227 924.5 1222 c 128,-1,12
 928 1217 928 1217 928 1213 c 1,13,-1
 1053 794 l 1,14,15
 1074 713 1074 713 1093.5 628.5 c 128,-1,16
 1113 544 1113 544 1131 463 c 0,17,18
 1132 455 1132 455 1136.5 435 c 128,-1,19
 1141 415 1141 415 1142.5 394.5 c 128,-1,20
 1144 374 1144 374 1139 358 c 128,-1,21
 1134 342 1134 342 1118 342 c 0,22,23
 1111 342 1111 342 1087 342.5 c 128,-1,24
 1063 343 1063 343 1036.5 343.5 c 128,-1,25
 1010 344 1010 344 989 344.5 c 128,-1,26
 968 345 968 345 967 345 c 2,27,-1
 881 345 l 1,28,29
 881 347 881 347 879.5 349 c 128,-1,30
 878 351 878 351 869 351 c 0,31,32
 868 351 868 351 866.5 348 c 128,-1,33
 865 345 865 345 863 345 c 2,34,-1
 862 345 l 2,35,36
 861 345 861 345 850 346 c 128,-1,37
 839 347 839 347 823.5 348 c 128,-1,38
 808 349 808 349 791 350 c 128,-1,39
 774 351 774 351 761 351 c 1,40,41
 754 363 754 363 747 388 c 128,-1,42
 740 413 740 413 733 447.5 c 128,-1,43
 726 482 726 482 718 523 c 128,-1,44
 710 564 710 564 700 608 c 0,45,46
 700 609 700 609 696 632 c 128,-1,47
 692 655 692 655 686.5 689 c 128,-1,48
 681 723 681 723 674 762.5 c 128,-1,49
 667 802 667 802 661.5 836 c 128,-1,50
 656 870 656 870 652 892.5 c 128,-1,51
 648 915 648 915 648 916 c 0,52,53
 648 918 648 918 647 921 c 0,54,55
 645 925 645 925 644 936 c 1,56,57
 634 907 634 907 633 888 c 1,58,59
 631 877 631 877 632 866 c 0,60,61
 632 865 632 865 628.5 846 c 128,-1,62
 625 827 625 827 620 799 c 128,-1,63
 615 771 615 771 609.5 738 c 128,-1,64
 604 705 604 705 599 676.5 c 128,-1,65
 594 648 594 648 590.5 628.5 c 128,-1,66
 587 609 587 609 587 608 c 0,67,68
 579 564 579 564 571.5 523 c 128,-1,69
 564 482 564 482 557.5 447.5 c 128,-1,70
 551 413 551 413 544 388 c 128,-1,71
 537 363 537 363 530 351 c 1,72,73
 512 351 512 351 490.5 350 c 128,-1,74
 469 349 469 349 449 348 c 0,75,76
 426 346 426 346 404 345 c 1,77,-1
 400 345 l 2,78,79
 390 345 390 345 387 348 c 128,-1,80
 384 351 384 351 381 351 c 0,81,82
 377 350 377 350 374 349 c 0,83,84
 368 347 368 347 368 345 c 1,85,-1
 274 345 l 2,86,87
 272 345 272 345 251.5 344.5 c 128,-1,88
 231 344 231 344 204.5 343.5 c 128,-1,89
 178 343 178 343 154 342.5 c 128,-1,90
 130 342 130 342 122 342 c 0,91,92
 106 342 106 342 101.5 358 c 128,-1,93
 97 374 97 374 98.5 394.5 c 128,-1,94
 100 415 100 415 104 435 c 128,-1,95
 108 455 108 455 110 463 c 0,96,97
 127 544 127 544 147 628.5 c 128,-1,98
 167 713 167 713 188 794 c 1,99,-1
 312 1213 l 1,100,101
 312 1217 312 1217 315.5 1222 c 128,-1,102
 319 1227 319 1227 324 1229 c 1,103,-1
 489 1229 l 2,0,1
EndSplineSet
EndChar

StartChar: underscore
Encoding: 95 95 66
Width: 1206
Flags: W
LayerCount: 2
Fore
SplineSet
766 192 m 1,0,-1
 868 192 l 2,1,2
 876 192 876 192 894.5 191 c 128,-1,3
 913 190 913 190 933 188 c 0,4,5
 955 186 955 186 981 185 c 1,6,7
 1018 185 1018 185 1039.5 177.5 c 128,-1,8
 1061 170 1061 170 1071 156 c 128,-1,9
 1081 142 1081 142 1083.5 121 c 128,-1,10
 1086 100 1086 100 1086 73 c 0,11,12
 1086 41 1086 41 1087 16 c 128,-1,13
 1088 -9 1088 -9 1089 -34.5 c 128,-1,14
 1090 -60 1090 -60 1091 -91 c 128,-1,15
 1092 -122 1092 -122 1092 -167 c 0,16,17
 1092 -186 1092 -186 1079 -197 c 128,-1,18
 1066 -208 1066 -208 1046 -213.5 c 128,-1,19
 1026 -219 1026 -219 1002 -220.5 c 128,-1,20
 978 -222 978 -222 957 -222 c 0,21,22
 880 -222 880 -222 807 -221 c 128,-1,23
 734 -220 734 -220 644 -220 c 2,24,-1
 454 -220 l 2,25,26
 374 -220 374 -220 307 -219 c 128,-1,27
 240 -218 240 -218 170 -218 c 0,28,29
 161 -218 161 -218 151.5 -213 c 128,-1,30
 142 -208 142 -208 134 -200.5 c 128,-1,31
 126 -193 126 -193 121 -183.5 c 128,-1,32
 116 -174 116 -174 116 -165 c 0,33,34
 116 -121 116 -121 116.5 -86 c 128,-1,35
 117 -51 117 -51 117.5 -17.5 c 128,-1,36
 118 16 118 16 118.5 51.5 c 128,-1,37
 119 87 119 87 119 132 c 0,38,39
 119 158 119 158 134.5 171 c 128,-1,40
 150 184 150 184 175.5 188.5 c 128,-1,41
 201 193 201 193 232 192.5 c 128,-1,42
 263 192 263 192 295 192 c 2,43,-1
 766 192 l 1,0,-1
EndSplineSet
EndChar

StartChar: grave
Encoding: 96 96 67
Width: 866
Flags: W
LayerCount: 2
Fore
SplineSet
315 1556 m 0,0,1
 295 1592 295 1592 279.5 1626.5 c 128,-1,2
 264 1661 264 1661 249.5 1695 c 128,-1,3
 235 1729 235 1729 219.5 1762.5 c 128,-1,4
 204 1796 204 1796 184 1831 c 0,5,6
 172 1850 172 1850 156.5 1876.5 c 128,-1,7
 141 1903 141 1903 124 1931.5 c 128,-1,8
 107 1960 107 1960 91 1987.5 c 128,-1,9
 75 2015 75 2015 62.5 2038 c 128,-1,10
 50 2061 50 2061 43 2076 c 128,-1,11
 36 2091 36 2091 37 2093 c 1,12,13
 37 2109 37 2109 51.5 2116 c 128,-1,14
 66 2123 66 2123 106 2132 c 1,15,16
 111 2132 111 2132 113.5 2131 c 128,-1,17
 116 2130 116 2130 121 2130 c 1,18,-1
 135 2134 l 1,19,-1
 223 2140 l 1,20,21
 229 2142 229 2142 236 2142.5 c 128,-1,22
 243 2143 243 2143 248 2146 c 1,23,24
 256 2144 256 2144 268.5 2144.5 c 128,-1,25
 281 2145 281 2145 291 2142 c 1,26,-1
 303 2148 l 1,27,28
 356 2148 356 2148 415 2145 c 128,-1,29
 474 2142 474 2142 547 2142 c 1,30,-1
 635 2128 l 1,31,-1
 651 2114 l 1,32,33
 674 2030 674 2030 691.5 1955 c 128,-1,34
 709 1880 709 1880 725 1798 c 1,35,36
 730 1744 730 1744 738 1689.5 c 128,-1,37
 746 1635 746 1635 753.5 1580.5 c 128,-1,38
 761 1526 761 1526 766.5 1472.5 c 128,-1,39
 772 1419 772 1419 772 1366 c 0,40,41
 772 1344 772 1344 765.5 1324.5 c 128,-1,42
 759 1305 759 1305 733 1305 c 0,43,44
 705 1305 705 1305 677.5 1306 c 128,-1,45
 650 1307 650 1307 622 1307 c 2,46,-1
 563 1307 l 1,47,-1
 555 1313 l 1,48,-1
 541 1305 l 1,49,50
 525 1307 525 1307 504 1307 c 128,-1,51
 483 1307 483 1307 465 1307 c 0,52,53
 450 1307 450 1307 431 1335.5 c 128,-1,54
 412 1364 412 1364 391.5 1403.5 c 128,-1,55
 371 1443 371 1443 351 1485.5 c 128,-1,56
 331 1528 331 1528 315 1556 c 0,0,1
EndSplineSet
EndChar

